<svg width="1440" height="406" viewBox="0 0 1440 406" fill="none" xmlns="http://www.w3.org/2000/svg">
<g opacity="0.08" clip-path="url(#clip0_41_1355)">
<path opacity="0.8" d="M416.353 132.68L383.454 132.719L383.434 119.741L344.593 119.78L344.602 132.757L311.694 132.786L311.713 153.181L295.921 153.191L295.95 180.268L278.545 180.287L278.516 153.81L266.362 153.829L266.334 126.916L245.002 55.5781L223.873 126.955L223.902 153.868L212.727 153.877L212.746 180.355L204.586 180.364L204.577 173.295L130.762 173.373L130.801 211.029L119.655 211.039L119.751 305.963L44.1223 341.231L44.1895 407.947L204.366 407.782L215.953 407.773L296.18 407.686L432.433 407.55L432.174 153.055L416.382 153.075L416.353 132.68Z" fill="#5C667F"/>
<path opacity="0.07" d="M518.217 69.2611L488.572 58.5657L488.544 31.334H484.156L484.185 56.9894L455.942 46.8066L455.98 82.055L443.952 77.713L444.23 351.336L529.632 351.249L529.382 108.523L518.256 104.51L518.217 69.2611Z" fill="#5C667F"/>
<path opacity="0.8" d="M620.112 128.991L595.699 129.011L595.661 110.51L577.664 110.52L577.626 95.0022L566.025 95.0119L565.988 78.3807L540.027 78.3903L539.952 43.3262H531.988L532.063 78.4L506.101 78.4097L506.139 95.041L494.519 95.0507L494.557 110.568L476.559 110.578L476.596 129.069L452.183 129.078L452.22 149.177L426.874 149.187L427.377 407.742L645.999 407.625L645.496 149.071L620.149 149.09L620.112 128.991Z" fill="#5C667F"/>
<path opacity="0.8" d="M942.616 90.4154L912.476 80.422L912.445 54.9414H907.985L908.017 78.9351L879.303 69.4149L879.345 102.378L867.114 98.3231L867.207 187.056L855.153 187.076L855.143 168.788L839.078 168.808L839.057 149.738L805.603 149.767L805.593 137.63L766.096 137.669L766.117 149.806L732.663 149.835L732.684 168.904L716.619 168.923L716.65 194.25H711.566L711.482 113.53L642.408 78.7709L642.773 407.016L703.189 406.968L711.805 406.958L855.403 406.823L940.439 406.736L940.376 354.172L954.212 354.162L953.962 127.135L942.658 123.389L942.616 90.4154Z" fill="#5C667F"/>
<path opacity="0.3" d="M1103.91 146.593L1080.47 146.603L1080.43 129.32L1063.14 129.329L1063.1 114.839H1051.95L1051.93 99.3042L1026.97 99.3139L1026.92 66.5547H1019.27L1019.34 99.3235L994.406 99.3332L994.425 114.868L983.275 114.877L983.314 129.378L966.025 129.387L966.063 146.661L942.597 146.68L942.636 165.451L918.29 165.46L918.787 407.015L1128.79 406.908L1128.3 165.354L1103.95 165.364L1103.91 146.593Z" fill="#5C667F"/>
<path opacity="0.4" d="M1375.84 339.708L1321.87 339.747L1321.81 302.063L1281.88 302.092L1240.4 281.187L1240.31 220.393L1228.61 220.403L1228.58 200.754L1199.1 200.783L1199.08 188.276L1164.29 188.296L1164.31 200.802L1134.83 200.822L1134.86 220.471L1120.71 220.48L1120.79 267.945L1106.17 267.955L1106.02 165.989L1035.43 194.346L1035.57 281.322L1025.87 281.332L1025.66 131.813L936.251 99.2227L936.712 407.016L1026.07 406.958L1321.99 406.745L1321.97 405.054L1375.94 405.015L1375.84 339.708Z" fill="#5C667F"/>
<path opacity="0.9" d="M518.401 31.1992H385.643L385.585 29.178C385.297 18.1732 390.213 9.6826 399.083 5.90149C407.329 2.37181 417.534 3.59994 425.118 8.61885C423.784 -6.97943 430.542 -17.259 444.145 -19.9087C452.68 -21.5817 460.389 -19.5992 465.851 -14.3966C469.414 -11.016 471.673 -6.47281 472.225 -1.57371C474.324 -2.73462 476.69 -3.31649 479.084 -3.26045C481.478 -3.20441 483.814 -2.51245 485.857 -1.25457C488.229 0.169411 490.144 2.25008 491.375 4.73956C492.605 7.22903 493.099 10.0223 492.798 12.7868C498.405 10.9011 505.278 10.6496 510.837 13.9666C514.302 16.0457 518.43 20.3683 518.43 29.1297L518.401 31.1992ZM389.675 27.0602H514.235C513.803 22.6602 511.96 19.4497 508.734 17.5156C504.04 14.6919 496.696 14.9433 490.859 18.1152L486.107 20.6875L487.96 15.5815C490.331 9.05403 487.173 4.34456 483.755 2.30411C481.856 1.08307 479.58 0.60099 477.354 0.948082C475.127 1.29518 473.103 2.44766 471.659 4.18984L467.157 9.34413L468.117 2.57488C468.428 0.0160637 468.131 -2.58058 467.252 -5.00148C466.372 -7.42239 464.935 -9.59837 463.057 -11.3504C458.584 -15.6247 452.152 -17.1526 444.952 -15.8085C427.777 -12.4722 428.152 3.80304 429.909 13.2026L431.157 19.9042L426.424 15.069C423.104 11.7762 418.908 9.5239 414.343 8.58503C409.778 7.64616 405.041 8.06101 400.705 9.77931C393.88 12.6127 390.03 18.7244 389.704 27.0602H389.675Z" fill="#5C667F"/>
<path opacity="0.5" d="M238.129 37.8126H160.465V35.7431C160.465 32.3295 162.462 29.4284 165.928 27.7844C169.129 26.2834 172.783 26.0893 176.123 27.2429C176.57 25.6164 177.409 24.1267 178.567 22.9067C179.724 21.6867 181.164 20.7744 182.757 20.2512C184.134 19.7918 185.592 19.6293 187.036 19.7742C188.48 19.9191 189.877 20.3683 191.137 21.0925C191.705 19.4172 192.611 17.8782 193.797 16.5719C194.983 15.2656 196.424 14.2202 198.03 13.5013C200.93 12.2365 204.103 11.7379 207.247 12.0526C210.392 12.3674 213.405 13.4851 216.001 15.3C217.703 16.4968 219.124 18.0547 220.164 19.8641C221.204 21.6735 221.838 23.6904 222.021 25.773C223.819 25.1325 225.735 24.8958 227.633 25.0796C229.532 25.2633 231.368 25.863 233.013 26.8367C236.699 28.9932 238.773 32.4939 238.341 35.9752L238.129 37.8126ZM217.393 33.6737H233.992C233.357 32.2821 232.289 31.1377 230.949 30.4147C229.451 29.512 227.723 29.0762 225.98 29.1622C224.237 29.2483 222.559 29.8524 221.157 30.8983L217.393 33.6737ZM179.694 33.6737H217.365L217.902 28.9932C218.226 27.0369 217.995 25.028 217.234 23.1988C216.473 21.3695 215.213 19.7945 213.601 18.6556C211.601 17.263 209.284 16.4032 206.865 16.1563C204.446 15.9094 202.004 16.2835 199.768 17.2437C198.246 17.9194 196.944 19.0136 196.012 20.4009C195.08 21.7882 194.555 23.4121 194.497 25.0864L194.104 30.5018L190.821 26.1985C190.035 25.1997 188.962 24.4696 187.749 24.1078C186.536 23.7461 185.242 23.7704 184.043 24.1774C181.422 25.038 179.819 27.4073 179.761 30.5115L179.694 33.6737ZM165.131 33.6737H178.331L176.411 32.0587C174.424 30.3857 170.584 30.1246 167.685 31.5268C166.639 31.9723 165.747 32.7192 165.121 33.6737H165.131Z" fill="#5C667F"/>
<path opacity="0.9" d="M1199.25 63.9435H1121.59V61.8838C1121.59 58.4604 1123.57 55.5593 1127.04 53.925C1130.24 52.4185 1133.9 52.2243 1137.24 53.3835C1137.69 51.7545 1138.53 50.262 1139.68 49.04C1140.84 47.818 1142.28 46.9047 1143.88 46.3822C1145.25 45.9262 1146.71 45.7663 1148.15 45.9129C1149.59 46.0595 1150.99 46.5093 1152.25 47.2331C1152.82 45.5575 1153.73 44.0184 1154.91 42.7122C1156.1 41.4059 1157.54 40.3607 1159.15 39.6419C1162.05 38.3798 1165.22 37.8826 1168.36 38.1973C1171.51 38.512 1174.52 39.6282 1177.11 41.4406C1178.81 42.6359 1180.24 44.192 1181.28 45.9996C1182.32 47.8071 1182.96 49.8224 1183.14 51.9039C1184.94 51.2712 1186.86 51.0387 1188.75 51.2223C1190.65 51.4059 1192.49 52.0014 1194.13 52.9677C1197.81 55.1242 1199.89 58.6248 1199.46 62.1158L1199.25 63.9435ZM1178.5 59.8143H1195.1C1194.47 58.4222 1193.41 57.275 1192.07 56.5457C1190.57 55.6472 1188.84 55.2148 1187.09 55.3025C1185.35 55.3903 1183.67 55.9943 1182.27 57.0389L1178.5 59.8143ZM1140.81 59.8143H1178.49L1179.01 55.1338C1179.34 53.1784 1179.11 51.1702 1178.35 49.3411C1177.59 47.5119 1176.33 45.9363 1174.72 44.7962C1172.73 43.3969 1170.41 42.5329 1167.99 42.2859C1165.57 42.0389 1163.12 42.4169 1160.89 43.3844C1159.37 44.0586 1158.06 45.1522 1157.13 46.5396C1156.19 47.927 1155.67 49.5517 1155.61 51.227L1155.22 56.6424L1151.94 52.3294C1151.15 51.3349 1150.08 50.6088 1148.86 50.2491C1147.65 49.8894 1146.35 49.9134 1145.15 50.318C1143.86 50.7682 1142.75 51.6266 1141.97 52.7659C1141.2 53.9052 1140.82 55.2646 1140.87 56.6424L1140.81 59.8143ZM1126.24 59.8143H1139.44L1137.52 58.1994C1135.54 56.5264 1131.7 56.2653 1128.8 57.6675C1127.75 58.1146 1126.87 58.8613 1126.24 59.8143Z" fill="#5C667F"/>
<path opacity="0.5" d="M784.732 49.4377H701.904L701.692 47.6003C701.28 43.9353 703.44 40.2412 707.328 37.93C709.099 36.8891 711.076 36.2542 713.119 36.0703C715.161 35.8865 717.219 36.1582 719.145 36.8662C719.317 34.6263 719.98 32.4528 721.087 30.5027C722.195 28.5527 723.719 26.8749 725.548 25.5906C728.302 23.6603 731.499 22.4696 734.837 22.1311C738.175 21.7927 741.543 22.3177 744.624 23.6565C746.352 24.4286 747.901 25.5574 749.169 26.97C750.437 28.3825 751.397 30.0474 751.987 31.857C753.331 31.058 754.829 30.5583 756.38 30.3915C757.932 30.2247 759.501 30.3947 760.982 30.8899C762.688 31.4563 764.224 32.4457 765.451 33.7673C766.677 35.0888 767.554 36.6999 768 38.4522C771.579 37.1809 775.509 37.3683 778.953 38.9744C782.601 40.7054 784.713 43.7612 784.713 47.3586L784.732 49.4377ZM765.379 45.2988H780.124C779.453 44.1604 778.447 43.2612 777.244 42.7265C774.086 41.2469 769.929 41.4983 767.76 43.3164L765.379 45.2988ZM706.003 45.2988H764.457L764.38 41.7691C764.313 38.3845 762.566 35.8025 759.705 34.8548C758.393 34.4083 756.975 34.3814 755.647 34.7779C754.318 35.1743 753.144 35.9746 752.284 37.0693L749.001 41.3533L748.608 35.9379C748.541 34.1168 747.965 32.3518 746.946 30.8462C745.927 29.3406 744.506 28.1557 742.848 27.428C740.432 26.3838 737.793 25.9762 735.178 26.2435C732.563 26.5108 730.058 27.4443 727.9 28.9559C725.404 30.7642 722.563 34.1779 723.244 40.1445L723.782 44.8443L719.942 42.0496C718.419 40.9132 716.596 40.2563 714.704 40.1616C712.811 40.067 710.932 40.5388 709.305 41.5177C707.807 42.3603 706.642 43.6949 706.003 45.2988Z" fill="#5C667F"/>
<path d="M589.814 92.4993H589.737C589.414 92.4879 589.097 92.3986 588.815 92.2388C588.533 92.0789 588.293 91.8532 588.115 91.5806C583.814 85.1015 579.149 84.1151 578.947 84.0764C578.424 83.9649 577.966 83.6527 577.668 83.2062C577.37 82.7596 577.256 82.2137 577.351 81.6842C577.446 81.1548 577.742 80.6833 578.176 80.3699C578.61 80.0564 579.148 79.9256 579.677 80.0052C579.917 80.0052 585.033 80.9722 589.958 87.1419C592.795 84.1778 596.216 81.8426 600 80.2856C600.496 80.1469 601.026 80.201 601.485 80.4373C601.943 80.6737 602.297 81.0749 602.476 81.5616C602.655 82.0483 602.645 82.5848 602.45 83.0649C602.254 83.545 601.887 83.9337 601.42 84.1538C597.539 85.8135 594.121 88.4067 591.465 91.7063C591.27 91.9586 591.019 92.1615 590.733 92.2991C590.446 92.4368 590.132 92.5053 589.814 92.4993Z" fill="#5C667F"/>
<path d="M1272.1 113.947C1271.79 113.948 1271.48 113.879 1271.21 113.745C1270.93 113.611 1270.68 113.415 1270.49 113.173C1268.93 111.307 1266.86 109.937 1264.54 109.228C1264.02 109.09 1263.58 108.754 1263.31 108.291C1263.03 107.829 1262.95 107.276 1263.07 106.753C1263.2 106.229 1263.52 105.775 1263.98 105.49C1264.43 105.204 1264.98 105.109 1265.5 105.224C1267.85 105.908 1270.03 107.099 1271.88 108.715C1273.48 106.849 1275.44 105.334 1277.64 104.267C1277.89 104.143 1278.17 104.072 1278.45 104.057C1278.72 104.043 1279 104.086 1279.26 104.184C1279.53 104.281 1279.77 104.432 1279.97 104.625C1280.17 104.819 1280.33 105.052 1280.44 105.311C1280.55 105.569 1280.61 105.847 1280.61 106.128C1280.6 106.409 1280.55 106.687 1280.44 106.945C1280.33 107.203 1280.16 107.435 1279.96 107.628C1279.76 107.821 1279.52 107.971 1279.26 108.067C1277.03 109.21 1275.14 110.916 1273.77 113.019C1273.59 113.298 1273.36 113.532 1273.08 113.701C1272.8 113.869 1272.48 113.967 1272.15 113.986L1272.1 113.947Z" fill="#5C667F"/>
<path d="M909.927 72.5685C909.617 72.5683 909.311 72.4978 909.032 72.3622C908.752 72.2266 908.507 72.0294 908.314 71.7852C906.758 69.9297 904.705 68.5636 902.4 67.8494C901.906 67.6904 901.489 67.3488 901.235 66.8931C900.98 66.4374 900.906 65.9015 901.028 65.3931C901.149 64.8847 901.457 64.4415 901.89 64.1527C902.323 63.8639 902.848 63.7508 903.36 63.8362C905.717 64.5172 907.897 65.7123 909.744 67.3369C911.339 65.4668 913.3 63.949 915.504 62.8788C916.006 62.6634 916.572 62.6575 917.078 62.8624C917.584 63.0674 917.988 63.4663 918.202 63.9716C918.416 64.4769 918.422 65.047 918.218 65.5566C918.015 66.0662 917.619 66.4735 917.117 66.689C914.888 67.8268 912.994 69.5341 911.626 71.6402C911.447 71.9122 911.207 72.1375 910.925 72.2973C910.643 72.4571 910.327 72.5467 910.003 72.5589L909.927 72.5685Z" fill="#5C667F"/>
<path d="M114.854 104.789C114.546 104.789 114.241 104.718 113.964 104.583C113.686 104.447 113.442 104.25 113.251 104.006C111.686 102.138 109.614 100.77 107.289 100.07C106.808 99.9008 106.407 99.5574 106.163 99.1065C105.919 98.6557 105.85 98.1296 105.97 97.6305C106.089 97.1314 106.389 96.6949 106.81 96.4059C107.232 96.1169 107.745 95.9959 108.249 96.0666C110.601 96.7498 112.776 97.9411 114.624 99.5576C116.226 97.6957 118.185 96.1793 120.384 95.0995C120.885 94.8841 121.451 94.8782 121.957 95.0831C122.463 95.2881 122.868 95.687 123.081 96.1923C123.295 96.6976 123.301 97.2677 123.098 97.7773C122.894 98.2869 122.498 98.6942 121.997 98.9097C119.769 100.049 117.876 101.756 116.505 103.861C116.326 104.132 116.086 104.357 115.804 104.517C115.522 104.677 115.206 104.767 114.883 104.78L114.854 104.789Z" fill="#5C667F"/>
<path d="M557.549 162.233C559.874 162.933 561.945 164.301 563.51 166.169C563.703 166.411 563.947 166.607 564.224 166.741C564.502 166.874 564.806 166.944 565.114 166.943H565.2C565.528 166.927 565.847 166.83 566.13 166.662C566.413 166.493 566.651 166.258 566.822 165.976C568.2 163.877 570.091 162.172 572.314 161.024C572.575 160.928 572.815 160.778 573.018 160.585C573.221 160.392 573.382 160.16 573.493 159.902C573.603 159.644 573.661 159.366 573.661 159.085C573.662 158.804 573.606 158.526 573.496 158.268C573.386 158.009 573.226 157.776 573.024 157.582C572.822 157.389 572.583 157.238 572.321 157.141C572.059 157.043 571.781 157 571.502 157.014C571.224 157.029 570.951 157.1 570.701 157.224C569.459 157.827 568.295 158.58 567.235 159.467C566.407 160.136 565.639 160.877 564.941 161.682C564.145 160.99 563.287 160.375 562.378 159.845C561.176 159.125 559.884 158.569 558.538 158.191C558.024 158.095 557.494 158.199 557.055 158.483C556.615 158.766 556.299 159.207 556.171 159.717C556.042 160.226 556.111 160.766 556.364 161.226C556.616 161.686 557.033 162.033 557.53 162.194L557.549 162.233Z" fill="#5C667F"/>
<path opacity="0.8" d="M453.015 350.863L472.378 350.824L472.042 204.734L475.431 204.725L475.767 350.815L480.577 350.805L480.548 341.009L485.098 340.999L484.791 204.705L488.18 204.696L488.487 340.99L497.847 340.97L497.54 204.676L500.929 204.667L501.236 340.961L510.596 340.932L510.289 204.647L513.677 204.638L513.985 340.932L528.519 340.893L528.346 264.816L533.175 264.797L533.012 195.093L518.122 195.132L518.084 176.41L508.215 176.439L508.177 156.237L492.337 110.148L476.785 156.131L476.804 176.506L467.732 176.526L467.77 195.248L452.66 195.286L453.015 350.863Z" fill="url(#paint0_linear_41_1355)"/>
<path d="M831.599 377.533C830.121 382.416 826.799 385.888 822.844 386.807L822.421 386.903V397.541H832.674V374.109L831.599 377.533Z" fill="white"/>
<path d="M806.947 277.251L825.264 277.202V292.675H822.173L822.278 341.423L822.557 341.587C828.057 344.672 830.803 358.704 831.513 362.93L832.579 362.833L832.32 232.738H839.04V216.521H853.085V206.202L872.909 206.154V216.472H886.944V232.68H893.664L893.933 349.469L900.528 344.914L900.48 300.701L922.137 300.653V284.484H938.611V278.16H945.485V284.484H959.213L959.04 224.915H937.92L937.814 201.88H930.24V192.209L890.208 192.296V201.967H872.073V192.296H868.137V189.473H861.024V192.306H855.715V189.482H849.168V192.316H843.005V189.492H836.448V192.325H831.993V201.996H825.984L826.032 225.098H806.832L806.947 277.251Z" fill="white"/>
<path d="M974.987 300.528L984.462 300.509L984.423 284.34L988.955 284.331L988.801 213.447H991.825L991.979 284.321L1000.6 284.302L1000.58 277.977L1005.88 277.968L1005.74 213.418L1008.76 213.408L1008.92 284.282L1022.83 284.253L1022.67 213.37H1025.69L1025.9 300.412L1038.51 300.383L1038.27 193.932L1026.39 193.961L1026.29 153.897L1018.42 153.916L1018.37 133.647L1006.02 88.6992L993.927 133.56L993.947 153.974L986.708 153.994L986.804 194.048L974.737 194.077L974.987 300.528Z" fill="white"/>
<path d="M758.266 388.972L758.391 388.711C759.135 387.112 760.213 385.694 761.55 384.553L761.742 384.378L761.53 292.839H757.441V277.366L782.343 277.308L782.257 237.892L773.703 234.817L773.646 207.74L729.486 191.89L728.766 191.629L728.833 218.706L719.54 215.418L719.77 319.703L756.145 319.616V336.007H751.969L752.094 392.975L753.054 391.873C754.32 390.374 756.071 389.374 757.998 389.049L758.266 388.972Z" fill="white"/>
<path d="M284.823 344.759H290.967V347.419L302.036 342.245L305.05 343.541L304.858 257.262H289.69V249.139L257.521 249.216V272.957H262.513V279.726H257.521V287.346H262.503V294.116H257.511V301.736H262.503V302.2H270.49V301.736H276.634V308.505H275.521V316.125H276.788V322.895H275.521V330.515H276.797V337.284H275.521V344.904H276.797V351.674H275.53V354.749L284.785 350.416L284.823 344.759ZM270.529 272.947H276.673V279.716H270.529V272.947ZM270.577 294.067V287.298H276.711V294.067H270.577ZM284.66 272.918H290.804V279.687H284.669L284.66 272.918ZM284.66 287.288H290.794V294.057H284.65L284.66 287.288ZM284.66 301.658H290.804V308.428H284.669L284.66 301.658ZM284.66 316.029H290.804V322.798H284.66V316.029ZM284.66 330.389H290.794V337.158H284.65L284.66 330.389Z" fill="white"/>
<path d="M1140.15 351.296H1155.85V360.318H1171.27V349.546H1168.39V342.776H1171.27V335.156H1168.39V328.387H1171.27V320.767H1168.39V313.997H1171.27V306.377H1168.39V299.608H1174.52V300.198H1182.51V299.647L1188.64 299.598V300.178H1192.2V287.249H1202.76L1202.69 255.24H1187.52V247.117L1155.28 247.185V255.308H1140.1L1140.15 351.296ZM1188.48 291.959H1182.34V285.189H1188.49L1188.48 291.959ZM1188.48 270.839V277.608H1182.33V270.839H1188.48ZM1174.4 291.988H1168.25V285.218H1174.4V291.988ZM1174.4 270.868V277.637H1168.26V270.868H1174.4ZM1160.44 349.497H1154.3V342.728H1160.45L1160.44 349.497ZM1160.44 335.127H1154.29V328.358H1160.43L1160.44 335.127ZM1160.44 320.757H1154.3V313.988H1160.45L1160.44 320.757ZM1160.44 306.396H1154.29V299.627H1160.43L1160.44 306.396ZM1160.44 292.026H1154.29V285.257H1160.44V292.026ZM1160.44 270.906V277.676H1154.3V270.906H1160.44Z" fill="white"/>
<path d="M1158.63 392.647V392.125H1140.27V396.631H1159.86L1159.46 395.838C1158.95 394.851 1158.67 393.76 1158.63 392.647Z" fill="white"/>
<path d="M128.152 386.583C127.432 386.68 126.684 386.719 125.925 386.767L124.84 386.825V399.135H128.757V386.516L128.152 386.583Z" fill="white"/>
<path d="M82.2909 393.354C80.8696 393.254 79.4614 393.014 78.0861 392.639L77.4045 392.445V399.215H82.7901V393.412L82.2909 393.354Z" fill="white"/>
<path d="M121.085 386.787C114.471 386.468 108.912 384.457 105.005 380.985L104.852 380.85H100.704V381.381C100.436 388.151 95.1461 392.628 86.5541 393.344H86.0645V399.146L121.642 399.059V386.749L121.085 386.787Z" fill="white"/>
<path d="M77.3478 366.275L78.1542 365.802C80.0495 364.698 82.1954 364.105 84.3846 364.08H84.4806C87.1999 364.103 89.8382 365.016 91.9974 366.682L92.6886 367.223L93.2934 367.861C94.5916 369.226 95.5462 370.884 96.0774 372.697L96.1446 372.89L96.3174 372.996C97.677 373.843 98.8002 375.024 99.5814 376.429L99.735 376.71H101.453L101.079 375.936C100.013 373.728 99.4615 371.303 99.4662 368.848C99.4662 368.461 99.4662 368.074 99.5526 367.581L99.6102 366.981H92.8902V362.755H101.021L101.175 362.475C102.379 360.329 104.163 358.572 106.321 357.408L106.522 357.301L106.58 357.079C106.919 355.944 107.369 354.846 107.924 353.801L108.337 353.008H92.871V348.782H111.975L112.119 348.656C114.302 346.833 116.894 345.575 119.67 344.992C122.446 344.409 125.321 344.518 128.045 345.31L128.737 345.504V339.005L92.871 339.082V334.866L128.737 334.779V325.051L92.871 325.128V320.825L128.641 320.728V310.99L92.775 311.067V306.851L128.641 306.764V302.451H150.298V273.527H141.476V262H126.807V254.66L100.733 254.718V262.058H86.0646V273.595H77.2422L77.3478 366.275ZM134.756 297.055L92.6886 297.152V292.926L134.756 292.829V297.055ZM134.708 278.875V283.11L92.6502 283.207V278.981L134.708 278.875Z" fill="white"/>
<path d="M1055.67 345.223L1055.91 345.378C1059.32 347.645 1061.78 351.082 1062.85 355.048L1062.91 355.261L1063.1 355.367C1064.85 356.371 1066.34 357.765 1067.46 359.442C1068.58 361.119 1069.3 363.034 1069.57 365.038L1069.63 365.511L1097.03 365.453V357.456L1069.19 357.524V347.699L1115.36 347.592V351.335H1128.8L1128.49 235.726H1119.67V221.007H1104.99V211.637L1078.92 211.695V221.065H1064.25V235.784H1055.42L1055.67 345.223ZM1115.28 339.624L1069.11 339.73V329.896L1115.28 329.789V339.624ZM1115.28 321.801L1069.11 321.908V312.083L1115.28 311.976V321.801ZM1115.28 303.989L1069.11 304.095V294.27L1115.28 294.164V303.989ZM1115.28 286.176L1069.11 286.282V276.447L1115.28 276.341V286.176ZM1115.28 268.353L1069.11 268.46V258.635L1115.28 258.528V268.353ZM1115.21 240.715V250.541L1069.05 250.647V240.822L1115.21 240.715Z" fill="white"/>
<path d="M1107.98 392.763V392.241H1097.1V375.279L1069.26 375.337V371.469L1068.23 373.722C1067.01 376.405 1065.09 378.7 1062.66 380.356C1060.68 381.671 1058.51 382.676 1056.22 383.334L1055.84 383.45V386.506L1056.72 385.742C1058.52 384.105 1060.84 383.172 1063.27 383.114C1065.69 383.055 1068.06 383.875 1069.93 385.423L1070.14 385.587L1070.41 385.52C1072.72 384.916 1075.16 385.118 1077.34 386.093C1079.53 387.067 1081.31 388.757 1082.42 390.887L1082.54 391.129L1082.81 391.177C1084.22 391.373 1085.53 391.985 1086.59 392.935C1087.64 393.886 1088.4 395.132 1088.75 396.515L1088.84 396.921H1109.37L1108.94 396.128C1108.36 395.101 1108.03 393.946 1107.98 392.763Z" fill="white"/>
<path d="M1122.81 392.203V392.735C1122.78 393.884 1122.49 395.01 1121.95 396.023L1121.53 396.825H1128.87V392.193L1122.81 392.203Z" fill="white"/>
<path d="M1112.03 243.772L1071.91 243.863L1071.92 247.596L1112.04 247.504L1112.03 243.772Z" fill="white"/>
<path d="M1112.03 261.672L1071.91 261.764L1071.92 265.496L1112.04 265.405L1112.03 261.672Z" fill="white"/>
<path d="M1112.11 279.408L1071.99 279.5L1072 283.233L1112.12 283.141L1112.11 279.408Z" fill="white"/>
<path d="M1112.15 297.221L1072.03 297.312L1072.04 301.045L1112.16 300.954L1112.15 297.221Z" fill="white"/>
<path d="M1112.19 315.043L1072.07 315.135L1072.08 318.868L1112.2 318.776L1112.19 315.043Z" fill="white"/>
<path d="M1112.24 332.856L1072.12 332.947L1072.13 336.68L1112.25 336.588L1112.24 332.856Z" fill="white"/>
<path d="M1097 350.703L1072.16 350.76L1072.17 354.493L1097.01 354.436L1097 350.703Z" fill="white"/>
<path d="M1097.03 368.516L1072.19 368.572L1072.2 372.305L1097.04 372.248L1097.03 368.516Z" fill="white"/>
<path d="M165.793 279.891L173.512 279.872L173.531 286.206L186.904 286.167L186.731 209.578L191.003 209.568L191.176 285.616L191.301 286.157L191.339 302.336L200.718 302.307L200.507 209.549L204.779 209.539L204.99 302.297L212.555 302.288L212.517 286.109H214.446L214.273 209.51L218.555 209.5L218.728 286.099L228.222 286.08L228.049 209.481L232.321 209.471L232.485 279.736H235.547L235.566 286.061L252.865 286.022L252.904 302.191H254.593L254.382 209.771L243.745 209.8L243.707 193.438L233.454 193.467L233.425 178.401L225.87 178.42L225.841 165.781L220.965 165.8L220.936 152.252L198.817 152.3L198.846 165.848L193.979 165.858L194.008 178.497L186.453 178.507L186.481 193.573L176.238 193.593L176.277 209.955L165.63 209.984L165.793 279.891Z" fill="white"/>
<path d="M842.774 389.108C841.513 388.733 840.343 388.099 839.337 387.247C838.331 386.395 837.511 385.343 836.927 384.157L835.91 382.223V397.347H843.167V389.214L842.774 389.108Z" fill="white"/>
<path d="M856.751 390.075L857.001 390.017L857.116 389.795C857.831 388.355 858.926 387.142 860.281 386.289C861.636 385.436 863.198 384.976 864.796 384.959C866.66 384.946 868.476 385.555 869.961 386.69L870.162 386.845L870.412 386.787C872.088 386.405 873.839 386.535 875.441 387.16C877.044 387.785 878.424 388.878 879.407 390.298L880.367 391.709L880.31 366.566H875.078V360.455H880.319V358.849L890.735 351.655L890.476 235.881H883.756V219.664H869.711V209.346H856.377V219.664H842.332V235.881H835.612L835.919 369.197L836.975 364.864C838.098 360.242 840.614 352.477 844.809 352.467C844.914 352.456 845.02 352.456 845.126 352.467L845.375 352.525L846.009 352.631V347.216H851.471V353.337H847.372L848.169 354.237C849.527 355.955 850.57 357.904 851.25 359.991L851.385 360.339H851.49V360.716C853.175 365.857 854.179 371.199 854.476 376.604C854.476 382.842 851.423 387.812 846.854 388.973L846.441 389.069V397.183H851.942V396.622C851.942 396.303 851.942 396.051 851.942 396.032C851.974 394.642 852.464 393.303 853.335 392.225C854.205 391.146 855.407 390.39 856.751 390.075ZM880.53 353.424H875.078V347.303H880.54L880.53 353.424ZM880.53 340.282H875.078V334.161H880.54L880.53 340.282ZM880.53 327.15H875.078V321.038H880.53V327.15ZM880.53 314.008H875.068V307.887H880.521L880.53 314.008ZM880.53 300.876H875.068V294.764H880.521L880.53 300.876ZM880.53 287.743H875.068V281.632H880.521L880.53 287.743ZM880.53 274.601H875.078V268.509H880.53V274.601ZM880.53 261.469H875.078V255.357H880.319L880.53 261.469ZM880.53 242.215V248.298H875.078V242.186L880.53 242.215ZM866.006 366.595H860.553V360.474H866.015L866.006 366.595ZM866.006 353.453H860.553V347.342H866.015L866.006 353.453ZM866.006 340.321H860.553V334.209H865.919L866.006 340.321ZM866.006 327.179H860.553V321.058H865.919L866.006 327.179ZM865.919 314.056H860.457V307.945H865.919V314.056ZM865.919 300.914H860.457V294.812H865.91L865.919 300.914ZM865.919 287.782H860.457V281.661H865.91L865.919 287.782ZM865.919 274.65H860.457V268.538H865.91L865.919 274.65ZM865.919 261.508H860.466V255.396H865.919V261.508ZM865.919 242.264V248.375H860.466V242.264H865.919ZM845.913 242.264H851.366V248.385H845.759L845.913 242.264ZM845.913 255.396H851.366V261.508H845.759L845.913 255.396ZM845.759 268.606H851.212V274.717H845.75L845.759 268.606ZM845.759 281.738H851.212V287.859H845.75L845.759 281.738ZM845.759 294.87H851.212V300.982H845.75L845.759 294.87ZM845.759 308.003H851.212V314.114H845.759V308.003ZM845.759 321.145H851.222V327.256H845.769L845.759 321.145ZM845.807 340.389V334.277H851.27V340.389H845.807Z" fill="white"/>
<path d="M626.324 264.582V262.213H622.33V257.378H626.324V247.437H622.33V242.495H642.414V232.554H622.33V227.719L642.414 227.671V217.729L622.33 217.778V212.894L646.004 212.846L654.327 207.808L654.25 171.225L616.666 147.378L615.831 146.846L616.1 264.64L626.324 264.582ZM648.903 202.847L622.186 202.914V198.012L648.903 197.954V202.847ZM648.855 183.148V187.983L622.138 188.051V183.216L648.855 183.148Z" fill="white"/>
<path d="M645.608 246.635L670.885 246.587L670.684 264.487L680.648 264.458L680.495 195.711L657.724 209.472L645.541 216.831L645.608 246.635Z" fill="white"/>
<path d="M403.335 393.876L403.278 393.393L374.574 393.46L374.516 393.934C374.362 395.32 373.75 396.615 372.778 397.609L371.818 398.576L405.975 398.499L405.015 397.532C404.073 396.531 403.483 395.247 403.335 393.876Z" fill="white"/>
<path d="M429.686 363.985V350.92H435.542L435.254 226.173H420.25L420.192 203.07H415.498V193.4H412.022V190.566H407.52V193.4H402.048V190.576H397.603V193.4H392.803V190.576H388.003V193.4H384.931V203.07H370.118V193.4L339.542 193.468V203.138H333.619L333.667 226.24H317.155L317.434 348.667L320.112 349.818V340.061H328.522V353.435L345.302 360.62L345.389 398.479H364.963L364.003 397.512C363.026 396.523 362.404 395.233 362.237 393.847L362.179 393.373H355.2V376.421H363.888L368.525 361.683L402.528 361.606L408.883 376.315H421.814L421.872 393.276H415.68L415.622 393.76C415.476 395.147 414.867 396.442 413.894 397.435L412.982 398.402H435.61L435.533 363.975L429.686 363.985ZM332.794 245.736L372.864 245.649V251.045L332.794 251.132V245.736ZM332.794 262.804L372.864 262.717V268.113L332.794 268.21V262.804ZM332.794 279.843L372.864 279.756V285.191L332.794 285.278V279.843ZM332.794 296.921L372.864 296.824V302.22L332.794 302.317V296.921ZM332.794 313.989L372.864 313.902V319.298L332.794 319.385V313.989ZM332.794 331.057L372.864 330.97V336.366L332.794 336.463V331.057ZM332.842 353.531V348.106L372.912 348.01V353.444L332.842 353.531ZM380.573 245.629L420.672 245.533V250.938L380.573 251.026V245.629ZM380.573 262.698L420.672 262.601V268.007L380.573 268.094V262.698ZM380.573 279.737L420.672 279.64V285.046L380.573 285.143V279.737ZM380.573 296.805L420.672 296.718V302.114L380.573 302.211V296.805ZM380.573 313.883L420.672 313.786V319.182L380.573 319.279V313.883ZM380.573 330.951L420.672 330.864V336.299L380.573 336.386V330.951ZM380.621 353.425V347.99L420.72 347.903V353.328L380.621 353.425Z" fill="white"/>
<path d="M1043.96 384.649C1043.4 384.649 1042.86 384.581 1042.32 384.523L1041.46 384.465C1041.07 384.453 1040.68 384.421 1040.29 384.368C1039.87 384.297 1039.44 384.203 1039.03 384.088L1038.28 383.895C1034.04 383.091 1030.12 381.077 1026.99 378.092C1026.82 377.917 1026.65 377.73 1026.51 377.532C1026.4 377.386 1026.3 377.241 1026.18 377.106L1025.22 375.975V380.52H1009.49V367.581H1022.39V367.039C1022.39 366.933 1022.39 366.846 1022.39 366.739C1022.38 366.691 1022.38 366.643 1022.39 366.594C1022.39 365.405 1022.55 364.222 1022.86 363.074L1023.05 362.378H1009.52V349.429H1025.25V358.355L1026.16 357.388C1027.07 356.484 1028.09 355.715 1029.22 355.106L1029.42 355L1029.47 354.777C1030.11 352.464 1031.24 350.316 1032.77 348.481C1034.31 346.645 1036.22 345.164 1038.37 344.14C1039.02 343.83 1039.68 343.562 1040.36 343.337C1041.01 343.112 1041.68 342.924 1042.35 342.776C1042.91 342.66 1043.47 342.544 1044.04 342.467L1044.51 342.409L1044.42 303.321H1021.85V287.152L987.561 287.23V303.399L960.297 303.466V287.297L925.237 287.375V303.544L903.58 303.592L903.666 342.602L908.821 339.044L925.276 349.488L925.41 349.565H938.524V357.939L939.484 358.558L939.57 396.872H1044.48V384.572L1043.96 384.649ZM922.636 313.436H938.361V326.375H922.626L922.636 313.436ZM922.703 344.517V331.578H938.437V344.517H922.703ZM947.519 313.388H963.253V326.327H947.519V313.388ZM947.519 331.52H963.253V344.459H947.519V331.52ZM947.567 349.662H963.292V362.61H947.567V349.662ZM947.634 380.742V367.803H963.359V380.742H947.634ZM984.469 313.301H1000.19V326.25H984.469V313.301ZM984.469 331.443H1000.2V344.382H984.469V331.443ZM984.469 349.575H1000.2V362.513H984.469V349.575ZM984.546 380.655V367.716H1000.27V380.665L984.546 380.655ZM1009.25 313.243H1024.98V326.192H1009.25V313.243ZM1009.25 331.385H1024.97V344.324H1009.25V331.385Z" fill="white"/>
<path d="M935.333 316.482L925.647 316.504L925.662 323.36L935.349 323.338L935.333 316.482Z" fill="white"/>
<path d="M960.226 316.386L950.54 316.408L950.555 323.264L960.242 323.242L960.226 316.386Z" fill="white"/>
<path d="M935.403 334.576L925.717 334.598L925.732 341.444L935.418 341.422L935.403 334.576Z" fill="white"/>
<path d="M960.248 334.556L950.561 334.578L950.577 341.425L960.263 341.403L960.248 334.556Z" fill="white"/>
<path d="M930.116 352.748L935.434 356.133V352.738L930.116 352.748Z" fill="white"/>
<path d="M960.288 352.697L950.602 352.719L950.617 359.565L960.304 359.543L960.288 352.697Z" fill="white"/>
<path d="M960.319 370.839L950.633 370.861L950.648 377.708L960.335 377.686L960.319 370.839Z" fill="white"/>
<path d="M997.185 316.341L987.499 316.363L987.514 323.22L997.201 323.197L997.185 316.341Z" fill="white"/>
<path d="M1022.05 316.283L1012.36 316.305L1012.38 323.161L1022.06 323.139L1022.05 316.283Z" fill="white"/>
<path d="M997.228 334.482L987.541 334.504L987.557 341.351L997.243 341.328L997.228 334.482Z" fill="white"/>
<path d="M1022.09 334.425L1012.4 334.447L1012.42 341.294L1022.11 341.272L1022.09 334.425Z" fill="white"/>
<path d="M997.278 352.613L987.592 352.635L987.607 359.481L997.293 359.459L997.278 352.613Z" fill="white"/>
<path d="M1022.13 352.566L1012.45 352.588L1012.46 359.435L1022.15 359.412L1022.13 352.566Z" fill="white"/>
<path d="M997.309 370.755L987.622 370.777L987.638 377.624L997.324 377.602L997.309 370.755Z" fill="white"/>
<path d="M1022.18 370.697L1012.5 370.719L1012.51 377.565L1022.2 377.543L1022.18 370.697Z" fill="white"/>
<path d="M908.812 342.836L883.344 360.475L883.42 393.083L883.564 393.238C884.484 394.237 885.036 395.524 885.129 396.884C885.129 396.98 885.129 397.077 885.196 397.28V397.831L936.499 397.706L936.412 360.388L908.812 342.836ZM896.495 389.66V370.706H907.871V389.66H896.495ZM912.038 389.66V370.706H923.404V389.669L912.038 389.66Z" fill="white"/>
<path d="M904.743 373.732L899.482 373.742L899.511 386.062L899.588 386.604L904.848 386.594L904.82 374.274L904.743 373.732Z" fill="white"/>
<path d="M920.334 373.714L915.015 373.727L915.044 386.588L920.363 386.576L920.334 373.714Z" fill="white"/>
<path d="M818.535 386.825C812.775 385.578 808.782 379.263 808.772 371.478C808.777 370.409 808.838 369.34 808.955 368.277L809.012 367.678H803.079V361.789H809.857L809.943 361.344C810.903 356.093 813.707 343.637 818.977 341.365L819.303 341.22L819.188 289.657H822.279V280.258L760.446 280.403V289.793H764.564L764.775 382.561L765.486 382.319C767.364 381.656 769.38 381.495 771.339 381.851C773.297 382.207 775.13 383.068 776.66 384.35L776.881 384.524L777.15 384.446C778.715 384.027 780.35 383.941 781.95 384.195C782.602 384.296 783.245 384.455 783.87 384.669C784.534 384.895 785.176 385.179 785.79 385.52C787.939 386.653 789.696 388.417 790.83 390.577L790.955 390.829H791.233C792.875 391.043 794.411 391.76 795.635 392.882C796.86 394.005 797.712 395.479 798.078 397.105L798.174 397.53L818.939 397.482V386.845L818.535 386.825ZM775.825 297.935H781.662V303.824H775.815L775.825 297.935ZM775.825 310.719H781.662V316.609H775.815L775.825 310.719ZM775.825 323.504H781.662V329.393H775.815L775.825 323.504ZM775.825 336.288H781.662V342.177H775.815L775.825 336.288ZM775.825 349.082H781.662V354.971H775.815L775.825 349.082ZM775.825 367.755V361.866H781.662V367.755H775.825ZM789.265 297.906H795.111V303.786H789.275L789.265 297.906ZM789.265 310.69H795.111V316.58H789.275L789.265 310.69ZM789.265 323.475H795.111V329.364H789.275L789.265 323.475ZM789.265 336.259H795.111V342.148H789.265V336.259ZM789.265 349.053H795.111V354.942H789.505L789.265 349.053ZM789.265 367.717V361.827H795.111V367.717H789.265ZM802.705 297.877H808.542V303.766H802.695L802.705 297.877ZM802.705 310.661H808.542V316.551H802.695L802.705 310.661ZM802.705 323.446H808.542V329.325H802.695L802.705 323.446ZM802.705 336.23H808.542V342.109H802.695L802.705 336.23ZM802.705 349.014H808.542V354.903H802.695L802.705 349.014Z" fill="white"/>
<path d="M604.3 336.299V319.859L628.53 319.801V317.867H641.519V319.801H656.063V317.867H660.268V309.299L677.423 309.251V292.241H682.559V309.222H697.228L697.142 267.475L667.593 267.542L667.785 249.643L629.27 249.73V267.629L599.414 267.707V249.797L560.274 249.894V267.794L531.302 267.862L531.484 350.698L581.663 350.582V363.646H573.897L573.974 397.802H608.754L608.62 336.299H604.3ZM668.985 307.626H655.996V297.762H668.975L668.985 307.626ZM668.918 277.648V287.512H655.929V277.648H668.918ZM641.452 307.626H628.473V297.762H641.462L641.452 307.626ZM641.385 277.648V287.492L628.396 287.55V277.677L641.385 277.648ZM559.929 277.841H572.917V287.715H559.929V277.841ZM559.929 297.917H572.908V307.781H559.919L559.929 297.917ZM559.929 318.002H572.917V327.866H559.929V318.002ZM560.006 347.98V338.117H572.994V347.99L560.006 347.98ZM587.366 277.803H600.354V287.676H587.375L587.366 277.803ZM587.414 297.888H600.402V307.752H587.414V297.888ZM587.414 317.964H600.402V327.837H587.414V317.964ZM587.462 338.049H600.441V347.913H587.452L587.462 338.049ZM587.462 358.125H600.45V367.988H587.471L587.462 358.125ZM587.529 388.103V378.239H600.518V388.103H587.529Z" fill="white"/>
<path d="M569.87 280.986L562.929 281.002L562.938 284.783L569.879 284.767L569.87 280.986Z" fill="white"/>
<path d="M597.392 280.922L590.451 280.938L590.46 284.719L597.4 284.703L597.392 280.922Z" fill="white"/>
<path d="M569.953 301.031L563.012 301.047L563.021 304.818L569.962 304.802L569.953 301.031Z" fill="white"/>
<path d="M597.475 300.969L590.534 300.984L590.543 304.756L597.483 304.74L597.475 300.969Z" fill="white"/>
<path d="M569.959 321.146L563.018 321.162L563.027 324.943L569.967 324.927L569.959 321.146Z" fill="white"/>
<path d="M597.531 321.054L590.59 321.07L590.599 324.851L597.539 324.836L597.531 321.054Z" fill="white"/>
<path d="M570.044 341.193L563.103 341.209L563.112 344.99L570.052 344.974L570.044 341.193Z" fill="white"/>
<path d="M597.537 341.168L590.596 341.184L590.604 344.965L597.545 344.949L597.537 341.168Z" fill="white"/>
<path d="M597.612 361.215L590.671 361.23L590.68 365.012L597.621 364.996L597.612 361.215Z" fill="white"/>
<path d="M597.618 381.328L590.677 381.344L590.686 385.125L597.627 385.109L597.618 381.328Z" fill="white"/>
<path d="M638.383 280.791L631.442 280.807L631.451 284.588L638.391 284.572L638.383 280.791Z" fill="white"/>
<path d="M665.868 280.765L658.927 280.781L658.936 284.562L665.877 284.547L665.868 280.765Z" fill="white"/>
<path d="M637.892 304.658L638.429 304.581L638.42 300.887L631.479 300.896L631.488 304.677L637.892 304.658Z" fill="white"/>
<path d="M665.951 300.812L659.01 300.828L659.019 304.6L665.96 304.584L665.951 300.812Z" fill="white"/>
<path d="M1214.74 389.718V389.418L1214.02 389.669C1212.27 390.26 1210.46 390.634 1208.62 390.782H1208.12V396.284H1219.75V395.781C1219.83 394.783 1220.11 393.813 1220.58 392.928C1221.04 392.044 1221.68 391.264 1222.46 390.636L1223.66 389.669L1214.74 389.718Z" fill="white"/>
<path d="M1204.38 390.772H1203.68C1203.24 390.772 1202.78 390.772 1202.37 390.656C1201.26 390.472 1200.16 390.194 1199.1 389.824H1194.84V387.551L1194.62 387.387C1194.48 387.271 1194.33 387.165 1194.17 387.058C1193.87 386.849 1193.59 386.62 1193.32 386.372C1192.26 385.313 1191.43 384.051 1190.86 382.66C1190.3 381.27 1190.02 379.779 1190.05 378.277C1190.05 376.682 1190.46 375.115 1191.25 373.729C1192.04 372.344 1193.17 371.189 1194.53 370.377L1194.8 370.222V368.481H1195.5L1195.65 368.172C1196.33 366.788 1197.27 365.552 1198.42 364.536C1199.58 363.52 1200.92 362.745 1202.37 362.254C1202.84 362.093 1203.31 361.961 1203.79 361.857L1204.47 361.703C1207.02 361.253 1209.64 361.633 1211.96 362.788C1214.27 363.943 1216.16 365.812 1217.35 368.124L1217.5 368.423H1223.75V375.251H1222.29L1222.47 375.937C1222.69 376.714 1222.8 377.518 1222.8 378.326C1222.79 379.646 1222.55 380.954 1222.1 382.194L1221.85 382.91H1223.77V389.795L1224.5 389.524C1224.91 389.37 1225.34 389.253 1225.78 389.176H1226.05L1226.17 388.925C1226.8 387.597 1227.7 386.412 1228.8 385.443C1229.91 384.474 1231.19 383.74 1232.58 383.287L1232.96 383.171V371.566H1227.01V360.619H1244.29V353.947H1253.37V360.629H1264.18V353.957H1266.04V353.135L1293.32 353.067L1293.21 303.4H1271.85L1271.99 290.461L1245.22 290.529V303.468H1222.58V290.529L1195.35 290.596V303.526H1174.41L1174.54 362.515L1182.69 379.08L1182.75 392.183H1174.61V396.419H1204.89V390.907L1204.38 390.772ZM1273.2 346.046H1264.12V339.2H1273.2V346.046ZM1273.2 331.541H1264.12V324.713H1273.2V331.541ZM1273.2 310.198V317.025H1264.11V310.188L1273.2 310.198ZM1253.39 346.104H1244.3V339.277H1253.4L1253.39 346.104ZM1253.39 331.599H1244.3V324.771H1253.38L1253.39 331.599ZM1253.39 310.256V317.083H1244.3V310.256H1253.39ZM1223.9 360.697H1214.82V353.869H1223.9V360.697ZM1223.9 346.191H1214.81V339.364H1223.9L1223.9 346.191ZM1223.9 331.686H1214.82V324.858H1223.91L1223.9 331.686ZM1223.86 310.343V317.17H1214.78V310.343H1223.86ZM1203.84 360.716H1194.75V353.889H1203.83L1203.84 360.716ZM1203.84 346.211H1194.75V339.374H1203.84V346.211ZM1203.84 331.705H1194.76V324.878H1203.85L1203.84 331.705ZM1203.84 310.363V317.19H1194.75V310.363H1203.84Z" fill="white"/>
<path d="M325.439 355.582V343.242H323.078V354.557L302.082 345.563L275.586 357.961V371.17H292.502V392.445H275.586V398.779L342.22 398.624L342.143 362.786L325.439 355.582ZM296.514 392.387L296.466 371.112H310.799L310.847 392.387H296.514ZM314.754 392.387L314.706 371.112L336.143 371.064L336.191 392.339L314.754 392.387Z" fill="white"/>
<path d="M307.78 374.159L299.486 374.178L299.52 389.331L307.814 389.312L307.78 374.159Z" fill="white"/>
<path d="M333.132 374.092L317.743 374.127L317.777 389.28L333.166 389.245L333.132 374.092Z" fill="white"/>
<path d="M289.52 374.201L275.619 374.232L275.653 389.386L289.554 389.354L289.52 374.201Z" fill="white"/>
<path d="M578.736 360.6V353.617L527.856 353.743V343.938L483.696 344.044V353.84L432.816 353.956V360.938H440.582L440.668 398.401L571.171 398.101L571.084 360.638L578.736 360.6ZM455.539 392.715V374.428H466.646V392.715H455.539ZM470.745 392.715V374.428H481.843V392.715H470.745ZM493.324 392.657V374.37H504.297V392.657H493.324ZM508.358 392.657V374.37H519.312L519.36 392.657H508.358ZM530.803 392.608V374.312H541.91V392.599L530.803 392.608ZM546.009 392.608V374.322H557.107V392.608H546.009Z" fill="white"/>
<path d="M463.576 377.469L458.517 377.48L458.544 389.684L463.603 389.673L463.576 377.469Z" fill="white"/>
<path d="M473.741 377.435L473.76 389.088L473.799 389.639L478.81 389.62L478.791 377.426L473.741 377.435Z" fill="white"/>
<path d="M538.839 377.297L533.78 377.309L533.807 389.513L538.866 389.501L538.839 377.297Z" fill="white"/>
<path d="M554.034 377.262L548.985 377.273L549.012 389.477L554.062 389.466L554.034 377.262Z" fill="white"/>
<path d="M501.235 377.372L496.32 377.383L496.348 389.587L501.263 389.576L501.235 377.372Z" fill="white"/>
<path d="M516.23 377.348L511.324 377.359L511.352 389.563L516.257 389.552L516.23 377.348Z" fill="white"/>
<path d="M1327.32 388.856L1327.45 388.604C1328.16 387.127 1329.2 385.836 1330.49 384.83C1331.78 383.823 1333.28 383.13 1334.88 382.802L1335.31 382.715V367.987H1341.25V363.577L1302.25 363.664V356.16L1269.3 356.238V363.742L1230.3 363.829V368.209H1236.25V382.773H1236.74C1238.75 382.97 1240.65 383.742 1242.24 384.997L1242.45 385.162L1242.71 385.094C1243.03 385.015 1243.35 384.96 1243.67 384.929H1243.87C1245.03 384.75 1246.21 384.78 1247.36 385.017C1248.85 385.303 1250.26 385.907 1251.49 386.786C1252.26 387.341 1252.95 387.991 1253.55 388.72C1253.99 389.257 1254.39 389.837 1254.72 390.451L1254.84 390.683H1255.11C1256.49 390.877 1257.77 391.469 1258.82 392.386C1259.86 393.302 1260.62 394.505 1261 395.847L1261.06 396.031C1261.06 396.128 1261.1 396.215 1261.12 396.312L1261.22 396.756L1320.96 396.621V396.079C1320.97 394.347 1321.59 392.673 1322.7 391.35C1323.81 390.027 1325.34 389.137 1327.04 388.836L1327.32 388.856ZM1274.21 389.339V371.217L1298.21 371.159V389.281L1274.21 389.339Z" fill="white"/>
<path d="M1283.4 374.49L1277.41 374.504L1277.43 386.089L1283.42 386.075L1283.4 374.49Z" fill="white"/>
<path d="M1294.9 374.475L1288.92 374.488L1288.94 386.073L1294.92 386.06L1294.9 374.475Z" fill="white"/>
<path d="M753.148 332.923V322.624L697.19 322.75V312.258L663.273 312.335V322.828L607.314 322.953V333.262H611.73L611.874 397.27L611.951 398.005L675.762 397.86L674.274 396.893L674.102 396.786C673.362 396.269 672.74 395.6 672.275 394.823C671.81 394.047 671.513 393.18 671.404 392.28L671.337 391.806H664.07V387.029H664.137L664.07 359.082L715.996 358.908V365.89L719.529 374.187H732.892V374.661H735.964V386.265H732.988V391.661H726.556L726.498 392.135C726.395 393.066 726.089 393.963 725.603 394.761C725.117 395.56 724.462 396.242 723.686 396.757L722.159 397.724L749.039 397.666L748.895 332.875L753.148 332.923ZM624.604 343.329H636.124V354.933H624.604V343.329ZM624.604 359.082H636.124V370.686H624.604V359.082ZM624.662 386.478V374.873H636.182V386.478H624.662ZM644.514 343.28H656.034V354.885H644.514V343.28ZM644.514 359.033H656.034V370.638H644.514V359.033ZM644.572 386.429V374.825H656.092V386.429H644.572ZM664.454 354.875V343.271H675.974V354.875H664.454ZM684.402 354.827V343.222H695.922V354.827H684.402ZM704.351 354.827V343.222H715.871V354.827H704.351ZM724.358 343.068H735.878V354.672H724.358V343.068ZM724.415 370.464V358.859H735.935V370.464H724.415Z" fill="white"/>
<path d="M712.959 346.165L707.449 346.178L707.462 351.729L712.972 351.716L712.959 346.165Z" fill="white"/>
<path d="M732.908 346.11L727.397 346.123L727.41 351.674L732.92 351.661L732.908 346.11Z" fill="white"/>
<path d="M732.945 361.862L727.434 361.875L727.447 367.426L732.957 367.413L732.945 361.862Z" fill="white"/>
<path d="M692.982 346.241L687.472 346.254L687.484 351.805L692.995 351.792L692.982 346.241Z" fill="white"/>
<path d="M633.156 346.347L627.646 346.359L627.658 351.91L633.169 351.898L633.156 346.347Z" fill="white"/>
<path d="M653.139 362.056L647.629 362.068L647.641 367.619L653.152 367.607L653.139 362.056Z" fill="white"/>
<path d="M653.174 377.808L647.664 377.82L647.676 383.371L653.186 383.358L653.174 377.808Z" fill="white"/>
<path d="M653.085 346.331L647.575 346.344L647.587 351.895L653.098 351.882L653.085 346.331Z" fill="white"/>
<path d="M713.942 392.155L713.884 391.672L684.124 391.74L684.057 392.213C683.899 393.656 683.256 395.001 682.233 396.024C681.941 396.323 681.619 396.592 681.273 396.826L679.612 397.793L716.572 397.706H718.377L716.774 396.739C716 396.228 715.345 395.553 714.856 394.762C714.367 393.97 714.055 393.081 713.942 392.155Z" fill="white"/>
<path d="M673.034 346.284L667.523 346.297L667.536 351.848L673.046 351.835L673.034 346.284Z" fill="white"/>
<path d="M631.766 363.539H626.256V369.09H631.766V363.539Z" fill="white"/>
<path d="M633.199 377.882L627.688 377.895L627.701 383.445L633.211 383.433L633.199 377.882Z" fill="white"/>
<path d="M249.889 305.247V289.078L215.588 289.156V305.324L188.334 305.382L188.286 289.214L153.217 289.301V305.469H131.559L131.655 346.684L131.934 346.849C132.764 347.32 133.554 347.86 134.295 348.464L134.555 348.667C134.712 348.784 134.862 348.91 135.006 349.044C137.382 351.2 139.092 354 139.931 357.109L139.998 357.322L140.19 357.438C142.179 358.58 143.834 360.23 144.988 362.221C146.143 364.212 146.756 366.475 146.766 368.781C146.826 371.47 146.206 374.131 144.965 376.513C143.724 378.894 141.903 380.919 139.671 382.397C137.372 383.939 134.826 385.071 132.145 385.743L131.742 385.849V398.721H272.123L272.66 398.614L272.449 305.141L249.889 305.247ZM150.721 315.217H166.398L166.484 328.166H150.75L150.721 315.217ZM150.721 333.359H166.407L166.484 346.298H150.759L150.721 333.359ZM150.721 351.5H166.398L166.475 364.439H150.75L150.721 351.5ZM150.788 382.581V369.632H166.465L166.551 382.571L150.788 382.581ZM175.499 315.159H191.233V328.108H175.499V315.159ZM175.499 333.301H191.233V346.24H175.508L175.499 333.301ZM175.547 351.442H191.271V364.381L175.681 364.343L175.547 351.442ZM175.614 382.523V369.574H191.348V382.513L175.614 382.523ZM212.449 315.072H228.183V328.011H212.449V315.072ZM212.449 333.214H228.183V346.162H212.449V333.214ZM212.449 351.355H228.183V364.294H212.459L212.449 351.355ZM212.526 382.436V369.497H228.251V382.436H212.526ZM237.447 315.024H253.182V327.963H237.447V315.024ZM237.447 333.165H253.182V346.114H237.447V333.165ZM237.447 351.307H253.182V364.246H237.447V351.307ZM237.524 382.387V369.449H253.249V382.387H237.524Z" fill="white"/>
<path d="M163.46 318.226L153.773 318.248L153.789 325.104L163.475 325.082L163.46 318.226Z" fill="white"/>
<path d="M188.306 318.179L178.62 318.201L178.635 325.057L188.322 325.035L188.306 318.179Z" fill="white"/>
<path d="M163.475 336.376L153.789 336.398L153.804 343.245L163.49 343.223L163.475 336.376Z" fill="white"/>
<path d="M188.337 336.322L178.651 336.344L178.666 343.19L188.353 343.168L188.337 336.322Z" fill="white"/>
<path d="M163.514 354.521L153.827 354.543L153.843 361.39L163.529 361.367L163.514 354.521Z" fill="white"/>
<path d="M188.378 354.462L178.691 354.484L178.707 361.331L188.393 361.309L188.378 354.462Z" fill="white"/>
<path d="M163.583 372.642L153.897 372.664L153.912 379.511L163.599 379.489L163.583 372.642Z" fill="white"/>
<path d="M188.43 372.603L178.744 372.625L178.759 379.472L188.445 379.449L188.43 372.603Z" fill="white"/>
<path d="M225.284 318.095L215.598 318.117L215.613 324.973L225.3 324.951L225.284 318.095Z" fill="white"/>
<path d="M250.148 318.048L240.462 318.07L240.477 324.927L250.164 324.904L250.148 318.048Z" fill="white"/>
<path d="M225.354 336.228L215.667 336.25L215.683 343.097L225.369 343.074L225.354 336.228Z" fill="white"/>
<path d="M250.189 336.181L240.503 336.203L240.518 343.05L250.204 343.028L250.189 336.181Z" fill="white"/>
<path d="M225.366 354.378L215.679 354.4L215.695 361.247L225.381 361.225L225.366 354.378Z" fill="white"/>
<path d="M250.232 354.322L240.545 354.344L240.561 361.19L250.247 361.168L250.232 354.322Z" fill="white"/>
<path d="M225.408 372.519L215.722 372.541L215.737 379.388L225.423 379.365L225.408 372.519Z" fill="white"/>
<path d="M250.27 372.462L240.584 372.484L240.599 379.331L250.286 379.309L250.27 372.462Z" fill="white"/>
<path d="M372.595 388.617L372.758 388.762L405.1 388.684L405.254 388.539C406.41 387.485 407.914 386.902 409.473 386.902C411.032 386.902 412.536 387.485 413.692 388.539L413.846 388.684H418.78V379.478H406.886L400.531 364.77L370.723 364.837L366.076 379.565H358.214V388.771H363.974L364.127 388.617C365.287 387.559 366.796 386.973 368.361 386.973C369.926 386.973 371.435 387.559 372.595 388.617ZM397.295 369.228L400.972 378.792H388.492V369.218L397.295 369.228ZM374.687 369.276H383.164V378.85H371.74L374.687 369.276Z" fill="white"/>
<path d="M409.479 389.883C408.811 389.89 408.162 390.107 407.623 390.504C407.084 390.901 406.682 391.458 406.474 392.097C406.362 392.408 406.297 392.734 406.282 393.064C406.271 393.837 406.537 394.587 407.032 395.177C407.527 395.767 408.217 396.157 408.975 396.275C409.732 396.393 410.507 396.231 411.155 395.818C411.804 395.406 412.282 394.771 412.503 394.031C412.615 393.721 412.676 393.395 412.685 393.064C412.673 392.733 412.605 392.406 412.484 392.097C412.278 391.457 411.876 390.898 411.337 390.5C410.797 390.103 410.147 389.887 409.479 389.883Z" fill="white"/>
<path d="M368.362 389.961C367.691 389.966 367.039 390.185 366.499 390.586C365.96 390.988 365.56 391.551 365.357 392.195C365.243 392.505 365.178 392.831 365.165 393.162C365.18 393.493 365.248 393.82 365.367 394.129C365.567 394.774 365.967 395.337 366.507 395.737C367.048 396.137 367.701 396.352 368.371 396.352C369.042 396.352 369.695 396.137 370.236 395.737C370.776 395.337 371.176 394.774 371.376 394.129C371.495 393.82 371.559 393.493 371.568 393.162C371.557 392.831 371.492 392.504 371.376 392.195C371.172 391.55 370.77 390.986 370.229 390.585C369.687 390.184 369.034 389.966 368.362 389.961Z" fill="white"/>
<path d="M680.17 385.5C680.878 385.802 681.528 386.227 682.09 386.757L682.349 386.912L715.747 386.835L715.901 386.68C716.165 386.431 716.448 386.201 716.746 385.993C716.802 385.976 716.855 385.946 716.899 385.906C717.42 385.589 717.982 385.345 718.57 385.181C719.128 385.003 719.712 384.918 720.298 384.93H720.461C721.59 384.959 722.69 385.293 723.648 385.897C723.993 386.114 724.315 386.367 724.608 386.651L724.771 386.796H729.936V377.126H717.61L711.034 361.914L667.142 362.011L667.2 386.864H673.219L673.373 386.709C674.359 385.784 675.608 385.192 676.944 385.017C678.043 384.884 679.157 385.051 680.17 385.5ZM708.096 366.633L712.32 377.416H700.301V366.624L708.096 366.633ZM695.616 366.633V377.425H681.216V366.643L695.616 366.633ZM671.712 377.474V366.691H677.194V377.483L671.712 377.474Z" fill="white"/>
<path d="M723.418 392.387C723.535 392.078 723.6 391.751 723.61 391.42C723.588 390.579 723.261 389.776 722.692 389.162C722.122 388.547 721.349 388.163 720.518 388.083L720.23 388.035C719.424 388.044 718.649 388.351 718.051 388.896C717.613 389.273 717.282 389.76 717.091 390.308C716.952 390.665 716.877 391.045 716.87 391.429C716.888 391.76 716.956 392.087 717.072 392.396C717.242 392.987 717.575 393.517 718.032 393.924C718.633 394.462 719.408 394.761 720.211 394.766C720.303 394.766 720.394 394.749 720.48 394.717C721.146 394.672 721.782 394.426 722.307 394.01C722.831 393.594 723.218 393.028 723.418 392.387Z" fill="white"/>
<path d="M677.76 394.833C678.47 394.826 679.158 394.592 679.727 394.165C680.295 393.737 680.712 393.137 680.919 392.454C680.924 392.399 680.924 392.344 680.919 392.289V392.154C680.994 391.919 681.036 391.675 681.044 391.429C681.035 391.182 680.993 390.938 680.919 390.703L680.842 390.375C680.62 389.71 680.197 389.132 679.632 388.723C679.067 388.314 678.389 388.094 677.693 388.094C676.997 388.094 676.319 388.314 675.754 388.723C675.189 389.132 674.766 389.71 674.544 390.375C674.414 390.731 674.342 391.107 674.333 391.487C674.344 391.837 674.412 392.183 674.535 392.512C674.756 393.195 675.189 393.789 675.769 394.206C676.349 394.624 677.047 394.843 677.76 394.833Z" fill="white"/>
<path d="M63.9648 396.399L62.7936 396.447L62.256 395.48C61.5381 393.582 60.1018 392.048 58.2624 391.216C57.3581 390.812 56.383 390.594 55.394 390.574C54.4051 390.554 53.4221 390.733 52.5024 391.1L51.5424 391.457L50.8416 390.761C50.1517 390.053 49.3287 389.489 48.4206 389.104C47.5124 388.719 46.5374 388.52 45.552 388.518C43.9612 388.55 42.4196 389.079 41.1401 390.031C39.8607 390.984 38.9065 392.314 38.4096 393.836L38.064 394.803H36.9792C35.9078 394.796 34.871 395.186 34.0671 395.899C33.2631 396.613 32.7483 397.6 32.6208 398.671L32.5632 399.271L68.0832 399.194L67.584 398.362C67.1966 397.751 66.6609 397.251 66.0275 396.907C65.3941 396.564 64.6841 396.389 63.9648 396.399Z" fill="white"/>
<path d="M1358.94 395.443C1358.56 394.828 1358.03 394.321 1357.41 393.969C1356.78 393.617 1356.07 393.432 1355.36 393.431H1354.19L1353.65 392.464C1352.93 390.566 1351.49 389.031 1349.65 388.19C1348.75 387.786 1347.77 387.568 1346.78 387.55C1345.8 387.531 1344.81 387.713 1343.89 388.083L1342.93 388.441L1342.23 387.745C1341.4 386.906 1340.38 386.277 1339.26 385.908C1337.75 385.356 1336.1 385.356 1334.59 385.908C1333.48 386.307 1332.46 386.955 1331.63 387.804C1330.8 388.654 1330.17 389.681 1329.79 390.81L1329.44 391.835H1328.35C1327.27 391.833 1326.23 392.232 1325.43 392.955C1324.63 393.677 1324.11 394.673 1323.99 395.752L1323.93 396.352L1359.45 396.274L1358.94 395.443Z" fill="white"/>
<path d="M1257.53 395.463C1257.15 394.911 1256.64 394.46 1256.04 394.147C1255.45 393.834 1254.79 393.669 1254.12 393.664H1252.95L1252.42 392.697C1251.75 390.989 1250.5 389.578 1248.89 388.722C1247.29 387.866 1245.42 387.623 1243.65 388.036H1243.46C1243.18 388.099 1242.92 388.18 1242.65 388.278L1241.69 388.636L1241 387.939C1239.88 386.804 1238.43 386.056 1236.85 385.802C1236.19 385.675 1235.51 385.675 1234.85 385.802L1234.52 385.87C1233.7 386.007 1232.92 386.282 1232.19 386.682C1230.49 387.616 1229.19 389.148 1228.55 390.986L1228.19 392.011H1227.11C1226.09 392.017 1225.1 392.383 1224.32 393.045C1223.54 393.707 1223.01 394.624 1222.83 395.637C1222.79 395.73 1222.76 395.828 1222.75 395.927V396.517L1258.27 396.44L1257.75 395.608C1257.69 395.55 1257.61 395.501 1257.53 395.463Z" fill="white"/>
<path d="M1081.75 394.058H1080.58L1080.04 393.091C1079.68 392.151 1079.15 391.29 1078.46 390.56C1077.77 389.83 1076.95 389.244 1076.04 388.837C1075.13 388.428 1074.16 388.206 1073.17 388.184C1072.18 388.163 1071.19 388.342 1070.28 388.711L1069.32 389.078L1068.61 388.372C1067.92 387.66 1067.1 387.093 1066.19 386.706C1065.27 386.319 1064.3 386.12 1063.31 386.119C1061.72 386.15 1060.18 386.678 1058.9 387.629C1057.62 388.58 1056.66 389.907 1056.16 391.428L1055.82 392.453H1054.73C1054.59 392.456 1054.45 392.479 1054.31 392.521H1054.18C1053.32 392.602 1052.5 392.939 1051.83 393.488C1051.01 394.204 1050.49 395.206 1050.37 396.292L1050.31 396.892L1085.83 396.815L1085.32 395.983C1084.93 395.386 1084.4 394.897 1083.78 394.56C1083.15 394.224 1082.46 394.051 1081.75 394.058Z" fill="#DEE0E5"/>
<path d="M133.699 381.836C134.387 381.576 135.059 381.279 135.715 380.946L135.917 380.84C136.581 380.524 137.222 380.162 137.837 379.757C139.64 378.583 141.112 376.961 142.111 375.047C143.11 373.133 143.602 370.991 143.539 368.829C143.526 366.969 142.991 365.15 141.996 363.582C141.001 362.015 139.585 360.763 137.914 359.971L137.203 359.633L137.03 358.859C136.568 356.739 135.629 354.754 134.285 353.057C133.772 352.396 133.196 351.787 132.566 351.239L132.154 350.901C131.578 350.447 130.968 350.04 130.33 349.682C129.673 349.309 128.989 348.986 128.285 348.715C126.646 348.103 124.916 347.776 123.168 347.748C120.655 347.777 118.189 348.443 115.997 349.682C115.361 350.041 114.757 350.455 114.192 350.92C113.4 351.552 112.685 352.276 112.061 353.076C110.777 354.735 109.866 356.656 109.392 358.705L109.21 359.488L108.47 359.817C107.465 360.283 106.541 360.91 105.734 361.673C105.047 362.311 104.461 363.052 103.997 363.869C103.773 364.272 103.58 364.692 103.421 365.126C103.151 365.83 102.961 366.563 102.854 367.311C102.854 367.456 102.854 367.592 102.787 367.727C102.717 368.045 102.676 368.369 102.662 368.694C102.624 371.432 103.473 374.107 105.082 376.314C105.47 376.872 105.9 377.399 106.368 377.891C106.511 378.026 106.665 378.149 106.829 378.258C106.931 378.319 107.028 378.391 107.117 378.471C107.613 378.906 108.136 379.309 108.682 379.68C109.946 380.544 111.305 381.258 112.733 381.807C115.387 382.767 118.171 383.318 120.989 383.441H121.565V381.256V380.917L112.925 375.908C112.785 375.821 112.662 375.71 112.56 375.579C112.322 375.324 112.171 374.998 112.13 374.65C112.088 374.302 112.158 373.95 112.33 373.645C112.541 373.277 112.885 373.004 113.29 372.881C113.706 372.773 114.148 372.836 114.518 373.055L121.526 377.117V363.24C121.522 362.9 121.626 362.567 121.821 362.29C122.017 362.012 122.295 361.805 122.616 361.697C122.936 361.59 123.283 361.587 123.604 361.691C123.926 361.794 124.207 361.998 124.406 362.273C124.636 362.543 124.768 362.884 124.781 363.24V371.537L130.973 366.383C131.138 366.241 131.332 366.137 131.54 366.075C131.748 366.013 131.967 365.996 132.182 366.025C132.601 366.068 132.986 366.272 133.258 366.596C133.416 366.81 133.524 367.058 133.574 367.321C133.635 367.609 133.619 367.908 133.526 368.186C133.433 368.465 133.267 368.714 133.046 368.907L124.79 375.744V383.412H125.366C126.163 383.354 127.219 383.277 128.246 383.122C128.957 383.006 129.658 382.88 130.33 382.726C131.002 382.571 131.866 382.32 132.422 382.145C132.979 381.971 133.306 381.981 133.699 381.836Z" fill="white"/>
<path d="M1052.28 380.936L1052.83 380.83C1053.36 380.743 1053.89 380.646 1054.39 380.51C1054.96 380.343 1055.53 380.146 1056.09 379.921L1056.48 379.776C1057.98 379.24 1059.41 378.519 1060.74 377.629C1062.54 376.456 1064.02 374.835 1065.01 372.923C1066.01 371.01 1066.51 368.871 1066.44 366.711C1066.43 364.85 1065.9 363.031 1064.9 361.462C1063.91 359.893 1062.5 358.639 1060.83 357.843L1060.11 357.505L1059.94 356.731C1059.41 354.317 1058.27 352.083 1056.62 350.252C1055.98 349.532 1055.26 348.884 1054.48 348.318C1053.81 347.841 1053.09 347.424 1052.34 347.07C1050.99 346.444 1049.56 346.023 1048.09 345.823C1047.45 345.738 1046.81 345.693 1046.17 345.688H1045.96C1045.24 345.695 1044.53 345.757 1043.83 345.871C1043.22 345.962 1042.62 346.088 1042.03 346.248C1041.3 346.462 1040.59 346.727 1039.9 347.041C1039.16 347.393 1038.44 347.811 1037.77 348.289C1034.97 350.267 1033.01 353.243 1032.31 356.615L1032.11 357.408L1031.38 357.737C1029.65 358.48 1028.18 359.725 1027.15 361.313C1026.12 362.9 1025.59 364.759 1025.62 366.653C1025.58 368.358 1025.9 370.052 1026.54 371.631C1027.17 373.21 1028.13 374.642 1029.33 375.84C1031.78 378.137 1034.79 379.739 1038.06 380.481L1038.4 380.568C1038.98 380.741 1039.56 380.883 1040.15 380.994C1040.79 381.11 1041.46 381.187 1042.24 381.265C1042.8 381.332 1043.37 381.361 1043.94 381.4H1044.52V378.895L1035.88 373.877C1035.51 373.667 1035.24 373.32 1035.12 372.91C1035.06 372.703 1035.05 372.487 1035.08 372.274C1035.1 372.061 1035.17 371.856 1035.28 371.672C1035.49 371.302 1035.84 371.028 1036.24 370.908C1036.66 370.802 1037.1 370.861 1037.48 371.072L1044.49 375.143V361.237V361.054C1044.53 360.672 1044.71 360.319 1044.99 360.059C1045.27 359.799 1045.63 359.651 1046.02 359.642H1046.12C1046.43 359.656 1046.73 359.761 1046.99 359.943C1047.24 360.124 1047.44 360.376 1047.55 360.667C1047.63 360.856 1047.67 361.06 1047.68 361.266V369.573L1053.88 364.419C1054.02 364.299 1054.19 364.21 1054.37 364.158C1054.62 364.066 1054.9 364.043 1055.17 364.093C1055.44 364.142 1055.69 364.261 1055.89 364.438L1056.06 364.564L1056.16 364.632C1056.44 364.971 1056.57 365.405 1056.52 365.84C1056.48 366.275 1056.27 366.675 1055.93 366.953L1048.02 373.538L1047.69 373.78V381.458H1048.25C1049.61 381.373 1050.95 381.198 1052.28 380.936Z" fill="#F4F5F5"/>
<path d="M97.419 381.439C97.4138 381.382 97.4138 381.323 97.419 381.265C97.4289 381.127 97.4289 380.988 97.419 380.85C97.4216 379.808 97.1428 378.785 96.6126 377.89C96.0407 376.915 95.2182 376.113 94.2318 375.57C94.1457 375.509 94.0559 375.454 93.963 375.405L93.2526 375.067L93.0702 374.293C92.6494 372.283 91.5437 370.484 89.9446 369.209C88.3455 367.934 86.3539 367.262 84.315 367.311C82.2988 367.281 80.3338 367.952 78.75 369.209C77.1663 370.466 76.0602 372.234 75.6174 374.216L75.4254 375.009L74.6958 375.337C74.2278 375.547 73.789 375.817 73.3902 376.14C72.696 376.693 72.1374 377.399 71.7579 378.204C71.3783 379.009 71.1879 379.891 71.2014 380.782C71.1797 381.827 71.3656 382.865 71.7481 383.837C72.1305 384.808 72.7019 385.693 73.4286 386.439L73.5246 386.545C74.1459 387.168 74.8464 387.704 75.6078 388.141C76.2901 388.529 77.0068 388.853 77.7486 389.108C79.1796 389.621 80.6703 389.946 82.1838 390.075L82.779 390.133V387.919L77.2686 384.708C76.9241 384.478 76.6797 384.124 76.5853 383.719C76.4909 383.314 76.5537 382.887 76.7607 382.527C76.9677 382.167 77.3034 381.9 77.6993 381.78C78.0952 381.661 78.5214 381.698 78.891 381.884L82.731 384.137V375.782C82.7624 375.372 82.9465 374.988 83.2464 374.709C83.5463 374.429 83.9399 374.274 84.3486 374.274C84.7573 374.274 85.1509 374.429 85.4508 374.709C85.7507 374.988 85.9348 375.372 85.9662 375.782V380.202L89.2782 377.475C89.4374 377.332 89.6252 377.225 89.8289 377.162C90.0327 377.098 90.2475 377.08 90.459 377.107C90.6716 377.126 90.8782 377.187 91.0664 377.289C91.2545 377.39 91.4202 377.529 91.5534 377.697C91.6736 377.846 91.7648 378.017 91.8222 378.2C91.9221 378.514 91.9221 378.852 91.8222 379.167C91.7463 379.469 91.5825 379.742 91.3518 379.95L86.0142 384.379V390.123L86.6094 390.065C93.1662 389.485 97.1022 386.284 97.419 381.439Z" fill="white"/>
<path d="M1214.4 386.014C1214.95 385.762 1215.48 385.468 1215.98 385.135C1216.94 384.476 1217.74 383.622 1218.35 382.63C1219.16 381.322 1219.58 379.809 1219.57 378.269C1219.56 377.298 1219.31 376.344 1218.85 375.493C1218.25 374.327 1217.29 373.39 1216.11 372.824L1215.4 372.486L1215.23 371.702C1215.08 371.079 1214.88 370.471 1214.62 369.884C1213.91 368.32 1212.75 366.999 1211.3 366.083C1209.85 365.168 1208.17 364.698 1206.46 364.73C1205.71 364.737 1204.97 364.834 1204.24 365.02C1203.44 365.217 1202.67 365.527 1201.95 365.939C1200.39 366.816 1199.14 368.17 1198.39 369.807C1198.12 370.395 1197.91 371.007 1197.76 371.635L1197.58 372.418L1196.83 372.747C1196.68 372.828 1196.53 372.918 1196.39 373.018L1196.21 373.134C1195.24 373.697 1194.45 374.534 1193.94 375.542C1193.51 376.368 1193.28 377.286 1193.27 378.22C1193.25 379.296 1193.44 380.365 1193.85 381.363C1194.25 382.36 1194.84 383.265 1195.6 384.022C1195.92 384.325 1196.26 384.597 1196.63 384.835L1196.9 385.028C1198.48 386.124 1200.28 386.872 1202.17 387.223C1202.86 387.366 1203.56 387.467 1204.26 387.523L1204.85 387.581V385.367L1199.29 382.117L1199.15 381.982C1198.85 381.746 1198.64 381.409 1198.56 381.033C1198.49 380.656 1198.55 380.265 1198.74 379.932C1198.85 379.745 1198.99 379.581 1199.16 379.449C1199.33 379.317 1199.52 379.221 1199.73 379.165C1199.93 379.109 1200.15 379.095 1200.36 379.124C1200.57 379.153 1200.78 379.224 1200.96 379.332L1204.8 381.586V373.23C1204.81 373.129 1204.83 373.028 1204.86 372.931L1204.91 372.747C1205 372.431 1205.18 372.15 1205.43 371.941C1205.68 371.732 1205.99 371.605 1206.32 371.577H1206.5C1206.91 371.596 1207.3 371.773 1207.59 372.071C1207.87 372.37 1208.04 372.767 1208.05 373.182V377.601L1211.32 374.874C1211.64 374.602 1212.06 374.467 1212.48 374.5C1212.9 374.532 1213.3 374.729 1213.57 375.048L1213.66 375.222C1213.79 375.403 1213.88 375.612 1213.91 375.832C1213.97 376.116 1213.96 376.413 1213.86 376.689C1213.77 376.965 1213.6 377.211 1213.38 377.398L1208.05 381.837V387.552L1208.65 387.494C1210.64 387.332 1212.58 386.832 1214.4 386.014Z" fill="white"/>
<path d="M880.032 394.584C879.747 394.489 879.449 394.44 879.149 394.439L877.93 394.506L877.431 393.404C877.182 392.72 876.798 392.093 876.303 391.561C875.809 391.03 875.212 390.604 874.551 390.309C873.893 390.015 873.183 389.858 872.464 389.848C871.744 389.838 871.03 389.975 870.365 390.251L869.405 390.638L868.666 389.874C868.022 389.24 867.228 388.784 866.359 388.549C865.49 388.313 864.575 388.307 863.703 388.53C862.787 388.73 861.938 389.164 861.235 389.788C860.533 390.413 860.001 391.208 859.69 392.098L859.315 393.201H858.154C857.765 393.198 857.379 393.273 857.019 393.421C856.658 393.569 856.331 393.787 856.054 394.063C855.778 394.339 855.558 394.667 855.407 395.028C855.257 395.39 855.179 395.778 855.178 396.169C855.178 396.295 855.178 396.527 855.178 396.808V397.32L882.058 397.262L881.904 396.595C881.79 396.126 881.557 395.695 881.23 395.343C880.902 394.99 880.489 394.729 880.032 394.584Z" fill="white"/>
<path d="M790.243 393.991L788.986 394.04L788.391 392.966C787.961 391.851 787.307 390.837 786.471 389.988C785.264 388.774 783.75 387.918 782.093 387.512C780.412 387.132 778.657 387.267 777.053 387.899L776.093 388.286L775.335 387.532C774.04 386.142 772.308 385.246 770.432 384.995C768.556 384.745 766.653 385.156 765.043 386.159C764.224 386.621 763.487 387.22 762.864 387.928C762.017 388.836 761.363 389.909 760.944 391.081L760.579 392.164H758.928C757.709 392.276 756.571 392.826 755.721 393.714C754.871 394.602 754.367 395.768 754.301 396.999V397.57L795.063 397.483L794.659 396.69C794.243 395.873 793.609 395.188 792.83 394.712C792.05 394.236 791.155 393.986 790.243 393.991Z" fill="white"/>
<path d="M823.095 383.287L822.979 382.852L823.152 383.258C826.848 381.721 829.229 377.089 829.21 371.432C829.21 363.695 826.042 351.955 823.335 346.995C822.499 345.457 821.722 344.596 820.925 344.345C820.804 344.291 820.673 344.262 820.541 344.258C819.821 344.258 819.091 344.857 818.304 346.076C815.511 350.418 811.978 363.241 811.997 371.47C811.997 377.185 814.445 381.837 818.208 383.307L818.947 383.597L818.89 360.388C818.895 360.037 819.012 359.698 819.226 359.421C819.369 359.208 819.562 359.034 819.788 358.914C820.014 358.795 820.266 358.733 820.522 358.734H820.714C821.093 358.783 821.442 358.969 821.696 359.257C821.95 359.545 822.092 359.916 822.096 360.301L822.154 383.51L822.874 383.258L823.095 383.287Z" fill="white"/>
<path d="M851.212 376.778C851.111 373.494 850.65 370.232 849.839 367.05C849.666 366.305 849.474 365.57 849.273 364.845C849.004 363.878 848.697 362.911 848.399 361.944C848.102 360.977 847.852 360.406 847.574 359.739C846.134 356.248 845.183 355.938 844.876 355.871L844.703 355.822L844.53 355.88C841.948 356.77 838.415 369.999 838.434 376.817C838.434 380.743 839.942 384.05 842.361 385.443L843.167 385.907V368.152C843.167 367.937 843.209 367.725 843.291 367.527C843.372 367.328 843.492 367.148 843.642 366.996C843.793 366.845 843.972 366.724 844.169 366.642C844.366 366.56 844.577 366.518 844.79 366.518C844.971 366.521 845.151 366.56 845.318 366.634C845.628 366.751 845.897 366.957 846.091 367.227C846.286 367.497 846.397 367.819 846.412 368.152V385.916L847.209 385.481C849.686 384.108 851.222 380.781 851.212 376.778Z" fill="white"/>
<path d="M1179.45 383.065H1175.04V380.541H1178.88L1179.43 380.415V379.864L1175.59 371.944L1171.41 363.512H1155.89V386.498H1161.5L1161.64 386.392C1162.91 385.468 1164.43 384.97 1165.99 384.97C1167.56 384.97 1169.08 385.468 1170.35 386.392L1170.59 386.498H1179.42L1179.45 383.065ZM1161.32 377.495V366.858H1168.46L1173.57 377.495H1161.32Z" fill="white"/>
<path d="M1152.61 354.537L1100.25 354.653L1100.3 380.763H1104.28V383.287H1100.3V386.701H1110.86L1111.01 386.594C1112.27 385.659 1113.8 385.154 1115.37 385.154C1116.94 385.154 1118.47 385.659 1119.73 386.594L1119.88 386.701L1152.67 386.623L1152.61 354.537Z" fill="#FCFCFD"/>
<path d="M1166.04 388.228C1164.94 388.278 1163.9 388.739 1163.13 389.521C1162.35 390.304 1161.9 391.35 1161.85 392.454C1161.83 392.533 1161.83 392.616 1161.85 392.696C1161.92 393.699 1162.34 394.644 1163.05 395.355C1163.76 396.066 1164.69 396.496 1165.69 396.564C1165.79 396.579 1165.89 396.579 1166 396.564C1166.1 396.563 1166.21 396.543 1166.3 396.506C1167.3 396.442 1168.24 396.014 1168.95 395.302C1169.66 394.59 1170.08 393.642 1170.14 392.638V392.367C1170.09 391.264 1169.64 390.22 1168.86 389.441C1168.08 388.662 1167.04 388.205 1165.95 388.16L1166.04 388.228Z" fill="white"/>
<path d="M1115.39 388.326C1114.29 388.376 1113.25 388.838 1112.48 389.62C1111.71 390.403 1111.25 391.449 1111.21 392.552C1111.19 392.638 1111.19 392.727 1111.21 392.813C1111.28 393.87 1111.75 394.859 1112.52 395.582C1113.28 396.305 1114.3 396.707 1115.35 396.707C1116.4 396.707 1117.41 396.305 1118.18 395.582C1118.95 394.859 1119.41 393.87 1119.48 392.813V392.533C1119.44 391.429 1118.98 390.384 1118.2 389.604C1117.43 388.825 1116.39 388.369 1115.29 388.326H1115.39Z" fill="white"/>
<path d="M1132.22 393.258V399.331H1136.28L1136.27 393.258H1132.22Z" fill="white"/>
<path d="M1051.85 385.551C1050.55 385.756 1049.23 385.895 1047.92 385.967V393.045C1048.88 391.662 1050.26 390.626 1051.85 390.086V385.551Z" fill="white"/>
<path d="M649.507 182.463H621.715V188.429H649.507V182.463Z" fill="#5C667F"/>
<path d="M277.115 271.381H269.896V279.224H277.115V271.381Z" fill="#5C667F"/>
<path d="M291.245 271.381H284.026V279.224H291.245V271.381Z" fill="#5C667F"/>
<path d="M277.115 285.75H269.896V293.593H277.115V285.75Z" fill="#5C667F"/>
<path d="M291.245 285.75H284.026V293.593H291.245V285.75Z" fill="#5C667F"/>
<path d="M291.245 300.121H284.026V307.964H291.245V300.121Z" fill="#5C667F"/>
<path d="M291.245 314.492H284.026V322.335H291.245V314.492Z" fill="#5C667F"/>
<path d="M291.245 328.863H284.026V336.706H291.245V328.863Z" fill="#5C667F"/>
<path d="M1160.14 272.154H1152.92V279.997H1160.14V272.154Z" fill="#5C667F"/>
<path d="M1174.27 272.145H1167.05V279.987H1174.27V272.145Z" fill="#5C667F"/>
<path d="M1188.4 272.154H1181.18V279.997H1188.4V272.154Z" fill="#5C667F"/>
<path d="M1160.14 286.535H1152.92V294.378H1160.14V286.535Z" fill="#5C667F"/>
<path d="M1174.85 285.285L1167.63 285.293L1167.64 293.136L1174.86 293.128L1174.85 285.285Z" fill="#5C667F"/>
<path d="M1188.99 285.233L1181.77 285.24L1181.78 293.083L1189 293.075L1188.99 285.233Z" fill="#5C667F"/>
<path d="M1160.13 300.904H1152.91V308.747H1160.13V300.904Z" fill="#5C667F"/>
<path d="M1160.75 314.051L1153.53 314.059L1153.54 321.901L1160.76 321.894L1160.75 314.051Z" fill="#5C667F"/>
<path d="M1160.13 329.645H1152.91V337.487H1160.13V329.645Z" fill="#5C667F"/>
<path d="M1160.77 342.789L1153.55 342.797L1153.56 350.64L1160.78 350.632L1160.77 342.789Z" fill="#5C667F"/>
<path d="M135.139 276.951H91.9968V282.26H135.139V276.951Z" fill="#5C667F"/>
<path d="M135.139 290.916H91.9968V296.225H135.139V290.916Z" fill="#5C667F"/>
<path d="M1115.57 241.094H1068.33V252.012H1115.57V241.094ZM1111.47 247.863H1072.43V245.213H1111.47V247.863Z" fill="#5C667F"/>
<path d="M1115.57 258.936H1068.33V269.853H1115.57V258.936ZM1111.47 265.705H1072.43V263.065H1111.47V265.705Z" fill="#5C667F"/>
<path d="M1115.57 276.719H1068.33V287.637H1115.57V276.719ZM1111.47 283.488H1072.43V280.838H1111.47V283.488Z" fill="#5C667F"/>
<path d="M1115.57 294.543H1068.33V305.461H1115.57V294.543ZM1111.47 301.312H1072.43V298.663H1111.47V301.312Z" fill="#5C667F"/>
<path d="M1115.57 312.355H1068.33V323.273H1115.57V312.355ZM1111.47 319.125H1072.43V316.485H1111.47V319.125Z" fill="#5C667F"/>
<path d="M1115.57 330.168H1068.33V341.134H1115.57V330.168ZM1111.47 336.937H1072.43V334.288H1111.47V336.937Z" fill="#5C667F"/>
<path d="M851.693 242.051H845.155V249.255H851.693V242.051Z" fill="#5C667F"/>
<path d="M866.246 242.051H859.709V249.255H866.246V242.051Z" fill="#5C667F"/>
<path d="M880.8 242.051H874.262V249.255H880.8V242.051Z" fill="#5C667F"/>
<path d="M851.693 255.193H845.155V262.398H851.693V255.193Z" fill="#5C667F"/>
<path d="M866.246 255.193H859.709V262.398H866.246V255.193Z" fill="#5C667F"/>
<path d="M880.8 255.193H874.262V262.398H880.8V255.193Z" fill="#5C667F"/>
<path d="M851.693 268.324H845.155V275.529H851.693V268.324Z" fill="#5C667F"/>
<path d="M866.246 268.324H859.709V275.529H866.246V268.324Z" fill="#5C667F"/>
<path d="M880.8 268.324H874.262V275.529H880.8V268.324Z" fill="#5C667F"/>
<path d="M851.693 281.467H845.155V288.671H851.693V281.467Z" fill="#5C667F"/>
<path d="M866.246 281.467H859.709V288.671H866.246V281.467Z" fill="#5C667F"/>
<path d="M880.8 281.467H874.262V288.671H880.8V281.467Z" fill="#5C667F"/>
<path d="M851.693 294.6H845.155V301.804H851.693V294.6Z" fill="#5C667F"/>
<path d="M866.246 294.6H859.709V301.804H866.246V294.6Z" fill="#5C667F"/>
<path d="M880.8 294.6H874.262V301.804H880.8V294.6Z" fill="#5C667F"/>
<path d="M851.693 307.73H845.155V314.935H851.693V307.73Z" fill="#5C667F"/>
<path d="M866.246 307.73H859.709V314.935H866.246V307.73Z" fill="#5C667F"/>
<path d="M880.8 307.73H874.262V314.935H880.8V307.73Z" fill="#5C667F"/>
<path d="M851.693 320.875H845.155V328.079H851.693V320.875Z" fill="#5C667F"/>
<path d="M866.246 320.875H859.709V328.079H866.246V320.875Z" fill="#5C667F"/>
<path d="M880.8 320.875H874.262V328.079H880.8V320.875Z" fill="#5C667F"/>
<path d="M851.693 334.006H845.155V341.21H851.693V334.006Z" fill="#5C667F"/>
<path d="M866.246 334.006H859.709V341.21H866.246V334.006Z" fill="#5C667F"/>
<path d="M880.8 334.006H874.262V341.21H880.8V334.006Z" fill="#5C667F"/>
<path d="M866.246 347.139H859.709V354.343H866.246V347.139Z" fill="#5C667F"/>
<path d="M880.8 347.139H874.262V354.343H880.8V347.139Z" fill="#5C667F"/>
<path d="M866.246 360.281H859.709V367.486H866.246V360.281Z" fill="#5C667F"/>
<path d="M649.507 197.285H621.715V203.252H649.507V197.285Z" fill="#5C667F"/>
<path d="M373.363 244.314H332.217V250.803H373.363V244.314Z" fill="#5C667F"/>
<path d="M421.363 244.314H380.188V250.803H421.363V244.314Z" fill="#5C667F"/>
<path d="M373.363 261.383H332.217V267.872H373.363V261.383Z" fill="#5C667F"/>
<path d="M421.363 261.383H380.188V267.872H421.363V261.383Z" fill="#5C667F"/>
<path d="M373.363 278.422H332.217V284.94H373.363V278.422Z" fill="#5C667F"/>
<path d="M421.363 278.422H380.188V284.94H421.363V278.422Z" fill="#5C667F"/>
<path d="M373.363 295.5H332.217V301.989H373.363V295.5Z" fill="#5C667F"/>
<path d="M421.363 295.5H380.188V301.989H421.363V295.5Z" fill="#5C667F"/>
<path d="M373.363 312.566H332.217V319.055H373.363V312.566Z" fill="#5C667F"/>
<path d="M421.363 312.566H380.188V319.055H421.363V312.566Z" fill="#5C667F"/>
<path d="M373.363 329.637H332.217V336.126H373.363V329.637Z" fill="#5C667F"/>
<path d="M421.363 329.637H380.188V336.126H421.363V329.637Z" fill="#5C667F"/>
<path d="M373.363 346.676H332.217V353.194H373.363V346.676Z" fill="#5C667F"/>
<path d="M421.363 346.676H380.188V353.194H421.363V346.676Z" fill="#5C667F"/>
<path d="M921.908 327.411H938.718V313.379H921.908V327.411ZM926.017 317.508H934.657V323.31H926.017V317.508Z" fill="#5C667F"/>
<path d="M960.556 313.379H946.771V327.411H963.59V313.379H960.556ZM959.481 323.272H950.841V317.47H959.481V323.272Z" fill="#5C667F"/>
<path d="M921.908 345.543H938.718V331.512H921.908V345.543ZM926.017 335.651H934.657V341.453H926.017V335.651Z" fill="#5C667F"/>
<path d="M960.556 331.512H946.771V345.543H963.59V331.512H960.556ZM959.481 341.414H950.841V335.612H959.481V341.414Z" fill="#5C667F"/>
<path d="M960.556 349.652H946.771V363.684H963.59V349.652H960.556ZM959.481 359.506H950.841V353.753H959.481V359.506Z" fill="#5C667F"/>
<path d="M960.556 367.795H946.771V381.827H963.59V367.795H960.556ZM959.481 377.688H950.841V371.934H959.481V377.688Z" fill="#5C667F"/>
<path d="M990.346 313.379H983.76V327.411H1000.57V313.379H990.346ZM996.471 323.272H987.831V317.47H996.471V323.272Z" fill="#5C667F"/>
<path d="M1024.22 327.411H1025.43V313.379H1008.62V327.411H1024.22ZM1021.34 323.272H1012.7V317.47H1021.34V323.272Z" fill="#5C667F"/>
<path d="M990.346 331.512H983.76V345.543H1000.57V331.512H990.346ZM996.471 341.414H987.831V335.612H996.471V341.414Z" fill="#5C667F"/>
<path d="M1025.43 334.78V331.512H1008.62V345.543H1025.43V334.78ZM1021.33 341.414H1012.69V335.612H1021.33V341.414Z" fill="#5C667F"/>
<path d="M983.76 363.684H1000.57V349.652H983.76V363.684ZM987.869 353.791H996.509V359.506H987.869V353.791Z" fill="#5C667F"/>
<path d="M983.76 381.827H1000.57V367.795H983.76V381.827ZM987.869 371.934H996.509V377.688H987.869V371.934Z" fill="#5C667F"/>
<path d="M901.823 370.58H895.593V390.617H908.073V370.58H901.823ZM903.954 386.488H899.702V374.709H903.954V386.488Z" fill="#5C667F"/>
<path d="M911.146 370.58V390.617H923.626V370.58H911.146ZM919.488 386.488H915.245V374.709H919.488V386.488Z" fill="#5C667F"/>
<path d="M775.133 297.529V304.511H781.642H782.054V297.529H781.642H775.133Z" fill="#5C667F"/>
<path d="M795.601 297.529H788.679V304.502H795.601V297.529Z" fill="#5C667F"/>
<path d="M805.334 304.511H807.389H809.155V297.529H807.389H805.334H803.28H802.233V304.511H803.28H805.334Z" fill="#5C667F"/>
<path d="M775.133 310.314V317.296H781.642H782.054V310.314H781.642H775.133Z" fill="#5C667F"/>
<path d="M795.601 310.324H788.679V317.297H795.601V310.324Z" fill="#5C667F"/>
<path d="M805.334 317.296H807.389H809.155V310.314H807.389H805.334H803.28H802.233V317.296H803.28H805.334Z" fill="#5C667F"/>
<path d="M775.133 323.107V330.08H781.642H782.054V323.107H781.642H775.133Z" fill="#5C667F"/>
<path d="M795.601 323.107H788.679V330.08H795.601V323.107Z" fill="#5C667F"/>
<path d="M805.334 330.08H807.389H809.155V323.107H807.389H805.334H803.28H802.233V330.08H803.28H805.334Z" fill="#5C667F"/>
<path d="M775.133 335.891V342.863H781.642H782.054V335.891H781.642H775.133Z" fill="#5C667F"/>
<path d="M795.601 335.891H788.679V342.863H795.601V335.891Z" fill="#5C667F"/>
<path d="M805.334 342.863H807.389H809.155V335.891H807.389H805.334H803.28H802.233V342.863H803.28H805.334Z" fill="#5C667F"/>
<path d="M775.133 348.676V355.648H781.642H782.054V348.676H781.642H775.133Z" fill="#5C667F"/>
<path d="M795.601 348.676H788.679V355.648H795.601V348.676Z" fill="#5C667F"/>
<path d="M805.334 355.648H807.389H809.155V348.676H807.389H805.334H803.28H802.233V355.648H803.28H805.334Z" fill="#5C667F"/>
<path d="M775.133 361.461V368.433H781.642H782.054V361.461H781.642H775.133Z" fill="#5C667F"/>
<path d="M795.601 361.461H788.679V368.433H795.601V361.461Z" fill="#5C667F"/>
<path d="M559.287 287.996H573.351V277.039H559.287V287.996ZM563.387 281.168H569.281V283.857H563.415L563.387 281.168Z" fill="#5C667F"/>
<path d="M586.809 287.996H600.873V277.039H586.809V287.996ZM590.918 281.168H596.774V283.857H590.918V281.168Z" fill="#5C667F"/>
<path d="M559.287 308.07H573.351V297.113H559.287V308.07ZM563.387 301.301H569.281V303.989H563.415L563.387 301.301Z" fill="#5C667F"/>
<path d="M586.809 308.07H600.873V297.113H586.809V308.07ZM590.918 301.301H596.774V303.989H590.918V301.301Z" fill="#5C667F"/>
<path d="M559.287 328.156H573.351V317.199H559.287V328.156ZM563.387 321.328H569.281V324.017H563.415L563.387 321.328Z" fill="#5C667F"/>
<path d="M586.809 328.156H600.873V317.199H586.809V328.156ZM590.918 321.328H596.774V324.017H590.918V321.328Z" fill="#5C667F"/>
<path d="M559.287 348.232H573.351V337.266H559.287V348.232ZM563.387 341.414H569.281V344.103H563.415L563.387 341.414Z" fill="#5C667F"/>
<path d="M586.809 348.232H600.873V337.266H586.809V348.232ZM590.918 341.414H596.774V344.103H590.918V341.414Z" fill="#5C667F"/>
<path d="M586.809 368.316H600.873V357.359H586.809V368.316ZM590.918 361.489H596.774V364.177H590.918V361.489Z" fill="#5C667F"/>
<path d="M586.809 388.392H600.873V377.436H586.809V388.392ZM590.918 381.623H596.774V384.311H590.918V381.623Z" fill="#5C667F"/>
<path d="M641.828 287.996V277.039H627.754V287.996H641.828ZM637.719 283.857H631.863V281.178H637.719V283.857Z" fill="#5C667F"/>
<path d="M658.052 287.996H669.351V277.039H655.287V287.996H658.052ZM659.387 281.168H665.281V283.857H659.415L659.387 281.168Z" fill="#5C667F"/>
<path d="M641.828 308.07V297.113H627.754V308.07H641.828ZM637.719 302.268V303.96H631.863V301.272H637.719V302.268Z" fill="#5C667F"/>
<path d="M658.052 308.07H669.351V297.113H655.287V308.07H658.052ZM659.387 301.301H665.281V303.989H659.415L659.387 301.301Z" fill="#5C667F"/>
<path d="M1204.19 318.342H1204.21L1204.2 310.422H1204.18H1202.02L1194.03 310.432L1194.04 318.352L1202.03 318.342H1204.19Z" fill="#5C667F"/>
<path d="M1224.1 310.396L1213.93 310.406L1213.94 318.326L1224.1 318.316L1224.1 310.396Z" fill="#5C667F"/>
<path d="M1204.21 332.856H1204.22L1204.21 324.936H1204.2H1202.04L1194.05 324.945L1194.06 332.865L1202.04 332.856H1204.21Z" fill="#5C667F"/>
<path d="M1224.11 324.901L1213.94 324.912L1213.95 332.832L1224.12 332.821L1224.11 324.901Z" fill="#5C667F"/>
<path d="M1204.21 339.451H1202.05L1194.06 339.461L1194.07 347.381L1202.05 347.371H1204.21H1204.23L1204.22 339.451H1204.21Z" fill="#5C667F"/>
<path d="M1224.13 339.415L1213.96 339.426L1213.97 347.346L1224.13 347.335L1224.13 339.415Z" fill="#5C667F"/>
<path d="M1224.14 353.931L1213.97 353.941L1213.98 361.861L1224.15 361.851L1224.14 353.931Z" fill="#5C667F"/>
<path d="M1253.69 310.355L1243.53 310.365L1243.53 318.285L1253.7 318.275L1253.69 310.355Z" fill="#5C667F"/>
<path d="M1273.58 310.343L1263.42 310.354L1263.43 318.274L1273.59 318.263L1273.58 310.343Z" fill="#5C667F"/>
<path d="M1253.71 324.87L1243.54 324.881L1243.55 332.801L1253.72 332.79L1253.71 324.87Z" fill="#5C667F"/>
<path d="M1273.6 324.849L1263.43 324.859L1263.44 332.779L1273.61 332.769L1273.6 324.849Z" fill="#5C667F"/>
<path d="M1253.72 339.384L1243.56 339.395L1243.56 347.315L1253.73 347.304L1253.72 339.384Z" fill="#5C667F"/>
<path d="M1273.61 339.364L1263.45 339.375L1263.45 347.295L1273.62 347.284L1273.61 339.364Z" fill="#5C667F"/>
<path d="M306.424 369.633H295.604V391.971H311.041V369.633H306.433H306.424ZM306.923 387.832H299.713V373.762H306.923V387.832Z" fill="#5C667F"/>
<path d="M315.601 369.633H313.863V391.971H336.385V369.633H315.601ZM317.972 373.762H332.276V387.832H317.972V373.762Z" fill="#5C667F"/>
<path d="M454.637 392.667H466.82V373.326H454.637V392.667ZM458.746 377.426H462.72V388.518H458.746V377.426Z" fill="#5C667F"/>
<path d="M473.982 373.287H469.844V392.628H482.017V373.287H473.982ZM477.918 388.537H473.953V377.426H477.918V388.537Z" fill="#5C667F"/>
<path d="M534.614 373.287H529.919V392.628H542.102V373.287H534.633H534.614ZM537.983 388.518H533.999V377.426H537.983V388.518Z" fill="#5C667F"/>
<path d="M545.107 392.667H557.28V373.326H545.107V392.667ZM549.206 377.426H553.181V388.518H549.206V377.426Z" fill="#5C667F"/>
<path d="M499.479 373.287H492.414V392.628H504.462V373.287H499.479ZM500.363 388.537H496.523V377.426H500.363V388.537Z" fill="#5C667F"/>
<path d="M512.227 373.287H507.427V392.628H519.466V373.287H512.208H512.227ZM515.376 388.518H511.536V377.426H515.376V388.518Z" fill="#5C667F"/>
<path d="M1296.96 371.354H1273.47V390.559H1298.53V371.354H1296.96ZM1277.76 386.227V375.734H1282.67V386.236L1277.76 386.227ZM1292.6 386.227H1289.28V375.725H1294.18V386.217L1292.6 386.227Z" fill="#5C667F"/>
<path d="M629.809 342.574H623.809V355.3H636.481V342.574H629.837H629.809ZM632.343 346.723V351.171H627.917V346.723H632.343Z" fill="#5C667F"/>
<path d="M623.809 358.328V371.112H636.481V358.328H623.809ZM627.917 362.467H632.343V366.925H627.917V362.467Z" fill="#5C667F"/>
<path d="M623.809 386.816H636.481V374.09H623.809V386.816ZM627.917 378.219H632.343V382.716H627.917V378.219Z" fill="#5C667F"/>
<path d="M655.287 342.574H643.767V355.3H656.41V342.574H655.296H655.287ZM652.291 351.171H647.866V346.713H652.291V351.171Z" fill="#5C667F"/>
<path d="M655.287 358.328H643.767V371.112H656.41V358.328H655.296H655.287ZM652.291 366.925H647.866V362.467H652.291V366.925Z" fill="#5C667F"/>
<path d="M653.76 374.09H643.757V386.816H656.4V374.09H653.76ZM652.32 382.677H647.895V378.219H652.32V382.677Z" fill="#5C667F"/>
<path d="M703.612 342.574V355.3H716.246V342.574H703.612ZM712.146 351.171H707.711V346.713H712.146V351.171Z" fill="#5C667F"/>
<path d="M667.296 342.574H663.715V355.3H676.349V342.574H667.296ZM672.24 351.171H667.814V346.713H672.24V351.171Z" fill="#5C667F"/>
<path d="M683.664 342.574V355.3H696.297V342.574H683.664ZM687.763 346.713H692.16V351.171H687.724L687.763 346.713Z" fill="#5C667F"/>
<path d="M723.562 355.3H736.196V342.574H723.562V355.3ZM727.671 346.713H732.097V351.171H727.681L727.671 346.713Z" fill="#5C667F"/>
<path d="M723.562 371.112H736.196V358.328H723.562V371.112ZM727.671 362.515H732.097V366.973H727.681L727.671 362.515Z" fill="#5C667F"/>
<path d="M164.16 313.379H150V327.411H166.819V313.379H164.16ZM162.701 323.272H154.061V317.47H162.701V323.272Z" fill="#5C667F"/>
<path d="M189.667 313.379H174.864V327.411H191.683V313.379H189.667ZM187.574 323.272H178.934V317.47H187.574V323.272Z" fill="#5C667F"/>
<path d="M164.16 331.512H150V345.543H166.819V331.512H164.16ZM162.701 341.414H154.061V335.612H162.701V341.414Z" fill="#5C667F"/>
<path d="M189.667 331.512H174.864V345.543H191.683V331.512H189.667ZM187.574 341.414H178.934V335.612H187.574V341.414Z" fill="#5C667F"/>
<path d="M164.16 349.652H150V363.684H166.819V349.652H164.16ZM162.71 359.506H154.07V353.753H162.71V359.506Z" fill="#5C667F"/>
<path d="M189.667 349.652H174.864V363.684H191.683V349.652H189.667ZM187.574 359.506H178.934V353.753H187.574V359.506Z" fill="#5C667F"/>
<path d="M164.16 367.795H150V381.827H166.819V367.795H164.16ZM162.701 377.688H154.061V371.934H162.701V377.688Z" fill="#5C667F"/>
<path d="M174.864 381.827H191.683V367.795H174.864V381.827ZM178.973 371.934H187.613V377.688H178.973V371.934Z" fill="#5C667F"/>
<path d="M219.138 313.379H211.852V327.411H228.661V313.379H219.138ZM224.562 323.272H215.922V317.47H224.562V323.272Z" fill="#5C667F"/>
<path d="M240.594 313.379H236.754V327.411H253.564V313.379H240.594ZM249.426 323.272H240.786V317.47H249.426V323.272Z" fill="#5C667F"/>
<path d="M219.138 331.512H211.852V345.543H228.661V331.512H219.138ZM224.562 341.414H215.922V335.612H224.562V341.414Z" fill="#5C667F"/>
<path d="M240.594 331.512H236.754V345.543H253.564V331.512H240.594ZM249.426 341.414H240.786V335.612H249.426V341.414Z" fill="#5C667F"/>
<path d="M219.138 349.652H211.852V363.684H228.661V349.652H219.138ZM224.562 359.506H215.922V353.753H224.562V359.506Z" fill="#5C667F"/>
<path d="M240.594 349.652H236.754V363.684H253.564V349.652H240.594ZM249.426 359.545H240.786V353.791H249.426V359.545Z" fill="#5C667F"/>
<path d="M211.852 381.827H228.661V367.795H211.852V381.827ZM215.999 371.934H224.639V377.688H215.999V371.934Z" fill="#5C667F"/>
<path d="M240.594 367.795H236.754V381.827H253.564V367.795H240.594ZM249.426 377.688H240.786V371.934H249.426V377.688Z" fill="#5C667F"/>
<path d="M387.648 367.949V378.606H401.424L397.353 367.949H387.648Z" fill="#5C667F"/>
<path d="M370.686 378.606H383.396V367.949H373.988L370.686 378.606Z" fill="#5C667F"/>
<path d="M710.112 371.064L708.49 366.925L708.154 366.074H707.722H703.613H700.656H699.456V377.959H700.656H703.613H712.819L711.303 374.091L710.112 371.064Z" fill="#5C667F"/>
<path d="M687.764 366.074H684.356H683.665H682.196H680.381V377.959H682.196H683.665H684.356H695.876V374.091V371.064V366.074H692.199H687.764Z" fill="#5C667F"/>
<path d="M672.24 366.074H670.867V366.925V371.064V374.091V377.959H676.349H677.424V366.074H676.349H672.24Z" fill="#5C667F"/>
<path d="M1170.61 371.016L1168.62 366.867L1160.6 366.877L1160.61 378.607L1170.61 378.597L1172.77 378.588H1174.24L1172.77 375.522L1170.61 371.016Z" fill="#5C667F"/>
</g>
<defs>
<linearGradient id="paint0_linear_41_1355" x1="470.783" y1="164.129" x2="576.231" y2="243.205" gradientUnits="userSpaceOnUse">
<stop stop-color="#2A3F7E"/>
<stop offset="1" stop-color="#121931"/>
</linearGradient>
<clipPath id="clip0_41_1355">
<rect width="1440" height="406" fill="white"/>
</clipPath>
</defs>
</svg>
