<svg width="1532" height="406" viewBox="0 0 1532 406" fill="none" xmlns="http://www.w3.org/2000/svg">
<g opacity="0.66" clip-path="url(#clip0_41_1028)">
<path opacity="0.8" d="M442.953 132.68L407.952 132.719L407.932 119.741L366.609 119.78L366.619 132.757L331.607 132.786L331.628 153.181L314.827 153.191L314.858 180.268L296.341 180.287L296.31 153.81L283.38 153.829L283.349 126.916L260.655 55.5781L238.176 126.955L238.207 153.868L226.318 153.877L226.339 180.355L217.657 180.364L217.647 173.295L139.117 173.373L139.158 211.029L127.3 211.039L127.402 305.963L46.9414 341.231L47.0129 407.947L217.422 407.782L229.75 407.773L315.103 407.686L460.061 407.55L459.785 153.055L442.984 153.075L442.953 132.68Z" fill="black" fill-opacity="0.6"/>
<path opacity="0.07" d="M551.326 69.2611L519.787 58.5657L519.756 31.334H515.089L515.119 56.9894L485.072 46.8066L485.112 82.055L472.315 77.713L472.611 351.336L563.469 351.249L563.204 108.523L551.366 104.51L551.326 69.2611Z" fill="black" fill-opacity="0.3"/>
<path opacity="0.8" d="M659.73 128.991L633.757 129.011L633.717 110.51L614.57 110.52L614.53 95.0022L602.188 95.0119L602.149 78.3807L574.528 78.3903L574.449 43.3262H565.976L566.056 78.4L538.435 78.4097L538.475 95.041L526.114 95.0507L526.153 110.568L507.006 110.578L507.045 129.069L481.072 129.078L481.112 149.177L454.146 149.187L454.682 407.742L687.271 407.625L686.735 149.071L659.77 149.09L659.73 128.991Z" fill="black" fill-opacity="0.6"/>
<path opacity="0.8" d="M1002.84 90.4154L970.773 80.422L970.74 54.9414H965.996L966.029 78.9351L935.481 69.4149L935.525 102.378L922.513 98.3231L922.612 187.056L909.788 187.076L909.777 168.788L892.685 168.808L892.663 149.738L857.072 149.767L857.061 137.63L815.041 137.669L815.063 149.806L779.472 149.835L779.494 168.904L762.403 168.923L762.436 194.25H757.027L756.938 113.53L683.451 78.7709L683.839 407.016L748.115 406.968L757.282 406.958L910.054 406.823L1000.52 406.736L1000.46 354.172L1015.18 354.162L1014.91 127.135L1002.88 123.389L1002.84 90.4154Z" fill="url(#paint0_linear_41_1028)" fill-opacity="0.6"/>
<path opacity="0.3" d="M1174.44 146.593L1149.5 146.603L1149.46 129.32L1131.06 129.329L1131.02 114.839H1119.16L1119.14 99.3042L1092.59 99.3139L1092.53 66.5547H1084.39L1084.47 99.3235L1057.94 99.3332L1057.96 114.868L1046.1 114.877L1046.14 129.378L1027.74 129.387L1027.78 146.661L1002.82 146.68L1002.86 165.451L976.958 165.46L977.488 407.015L1200.91 406.908L1200.38 165.354L1174.48 165.364L1174.44 146.593Z" fill="black" fill-opacity="0.3"/>
<path opacity="0.4" d="M1463.74 339.708L1406.33 339.747L1406.26 302.063L1363.78 302.092L1319.65 281.187L1319.55 220.393L1307.1 220.403L1307.07 200.754L1275.71 200.783L1275.69 188.276L1238.68 188.296L1238.69 200.802L1207.33 200.822L1207.36 220.471L1192.31 220.48L1192.4 267.945L1176.84 267.955L1176.69 165.989L1101.58 194.346L1101.74 281.322L1091.41 281.332L1091.19 131.813L996.067 99.2227L996.557 407.016L1091.63 406.958L1406.45 406.745L1406.43 405.054L1463.85 405.015L1463.74 339.708Z" fill="black" fill-opacity="0.3"/>
<path opacity="0.9" d="M551.521 31.1991H410.281L410.22 29.178C409.914 18.1732 415.143 9.6826 424.58 5.90149C433.353 2.3718 444.21 3.59994 452.279 8.61885C450.859 -6.97943 458.049 -17.259 472.521 -19.9087C481.601 -21.5817 489.802 -19.5992 495.614 -14.3966C499.405 -11.016 501.807 -6.47281 502.395 -1.57371C504.628 -2.73462 507.145 -3.31649 509.692 -3.26045C512.239 -3.20441 514.725 -2.51244 516.898 -1.25457C519.421 0.169411 521.459 2.25008 522.768 4.73955C524.077 7.22903 524.603 10.0223 524.283 12.7868C530.247 10.9011 537.56 10.6496 543.473 13.9666C547.16 16.0457 551.552 20.3683 551.552 29.1297L551.521 31.1991ZM414.571 27.0602H547.089C546.629 22.6602 544.668 19.4497 541.237 17.5156C536.242 14.6919 528.429 14.9433 522.219 18.1152L517.164 20.6875L519.135 15.5815C521.658 9.05403 518.298 4.34456 514.662 2.30411C512.641 1.08307 510.22 0.60099 507.851 0.948082C505.483 1.29518 503.329 2.44766 501.793 4.18984L497.003 9.34413L498.024 2.57488C498.355 0.0160646 498.04 -2.58058 497.104 -5.00148C496.168 -7.42239 494.639 -9.59837 492.642 -11.3504C487.882 -15.6247 481.039 -17.1526 473.379 -15.8085C455.108 -12.4722 455.506 3.80304 457.375 13.2026L458.703 19.9042L453.668 15.069C450.136 11.7762 445.671 9.52391 440.815 8.58503C435.958 7.64616 430.918 8.06101 426.306 9.77931C419.044 12.6127 414.949 18.7244 414.602 27.0602H414.571Z" fill="black" fill-opacity="0.3"/>
<path opacity="0.5" d="M253.343 37.8126H170.717V35.7431C170.717 32.3295 172.841 29.4284 176.528 27.7844C179.934 26.2834 183.821 26.0893 187.375 27.2429C187.85 25.6164 188.744 24.1267 189.975 22.9067C191.207 21.6867 192.738 20.7744 194.432 20.2512C195.898 19.7918 197.449 19.6293 198.985 19.7742C200.521 19.9191 202.008 20.3683 203.349 21.0925C203.953 19.4172 204.916 17.8782 206.178 16.5719C207.44 15.2656 208.973 14.2202 210.682 13.5013C213.767 12.2365 217.142 11.7379 220.488 12.0526C223.834 12.3674 227.039 13.4851 229.801 15.3C231.612 16.4968 233.123 18.0547 234.23 19.8641C235.336 21.6735 236.01 23.6904 236.205 25.773C238.118 25.1325 240.156 24.8958 242.176 25.0796C244.196 25.2633 246.15 25.863 247.899 26.8367C251.821 28.9932 254.027 32.4939 253.568 35.9752L253.343 37.8126ZM231.282 33.6737H248.941C248.266 32.2821 247.129 31.1377 245.703 30.4147C244.111 29.512 242.271 29.0762 240.417 29.1622C238.563 29.2483 236.778 29.8524 235.286 30.8983L231.282 33.6737ZM191.174 33.6737H231.251L231.823 28.9932C232.168 27.0369 231.922 25.028 231.112 23.1988C230.303 21.3695 228.963 19.7945 227.248 18.6556C225.12 17.263 222.655 16.4032 220.081 16.1563C217.508 15.9094 214.91 16.2835 212.53 17.2437C210.911 17.9194 209.527 19.0136 208.535 20.4009C207.543 21.7882 206.984 23.4121 206.923 25.0864L206.505 30.5018L203.012 26.1985C202.176 25.1997 201.035 24.4696 199.744 24.1078C198.453 23.7461 197.076 23.7704 195.801 24.1774C193.013 25.038 191.307 27.4073 191.246 30.5115L191.174 33.6737ZM175.681 33.6737H189.724L187.681 32.0587C185.567 30.3857 181.482 30.1246 178.397 31.5268C177.285 31.9723 176.336 32.7192 175.671 33.6737H175.681Z" fill="black" fill-opacity="0.3"/>
<path opacity="0.9" d="M1275.87 63.9435H1193.24V61.8838C1193.24 58.4604 1195.36 55.5593 1199.04 53.925C1202.45 52.4185 1206.35 52.2243 1209.9 53.3835C1210.37 51.7545 1211.27 50.262 1212.5 49.04C1213.73 47.818 1215.26 46.9047 1216.96 46.3822C1218.42 45.9262 1219.97 45.7663 1221.51 45.9129C1223.04 46.0595 1224.53 46.5093 1225.86 47.2331C1226.47 45.5575 1227.44 44.0184 1228.7 42.7122C1229.96 41.4059 1231.5 40.3607 1233.21 39.6419C1236.29 38.3798 1239.67 37.8826 1243.01 38.1973C1246.35 38.512 1249.56 39.6282 1252.32 41.4406C1254.13 42.6359 1255.64 44.192 1256.75 45.9996C1257.86 47.8071 1258.53 49.8224 1258.73 51.9039C1260.65 51.2712 1262.68 51.0387 1264.7 51.2223C1266.72 51.4059 1268.67 52.0014 1270.43 52.9677C1274.34 55.1242 1276.55 58.6248 1276.09 62.1158L1275.87 63.9435ZM1253.8 59.8143H1271.46C1270.78 58.4222 1269.65 57.275 1268.23 56.5457C1266.63 55.6472 1264.79 55.2148 1262.94 55.3025C1261.08 55.3903 1259.3 55.9943 1257.8 57.0389L1253.8 59.8143ZM1213.69 59.8143H1253.78L1254.34 55.1338C1254.69 53.1784 1254.44 51.1702 1253.63 49.3411C1252.83 47.5119 1251.49 45.9363 1249.77 44.7962C1247.65 43.3969 1245.18 42.5329 1242.61 42.2859C1240.03 42.0389 1237.43 42.4169 1235.06 43.3844C1233.44 44.0586 1232.05 45.1522 1231.06 46.5396C1230.06 47.927 1229.5 49.5517 1229.44 51.227L1229.03 56.6424L1225.54 52.3294C1224.7 51.3349 1223.55 50.6088 1222.26 50.2491C1220.97 49.8894 1219.59 49.9134 1218.32 50.318C1216.94 50.7682 1215.75 51.6266 1214.93 52.7659C1214.11 53.9052 1213.7 55.2646 1213.76 56.6424L1213.69 59.8143ZM1198.2 59.8143H1212.24L1210.2 58.1994C1208.08 56.5264 1204.01 56.2653 1200.91 57.6675C1199.8 58.1146 1198.86 58.8613 1198.2 59.8143V59.8143Z" fill="black" fill-opacity="0.3"/>
<path opacity="0.5" d="M834.868 49.4377H746.748L746.523 47.6003C746.084 43.9353 748.382 40.2412 752.518 37.93C754.402 36.8891 756.506 36.2542 758.679 36.0703C760.852 35.8865 763.041 36.1582 765.091 36.8662C765.273 34.6263 765.979 32.4528 767.157 30.5027C768.335 28.5527 769.956 26.8749 771.903 25.5906C774.833 23.6603 778.234 22.4696 781.785 22.1311C785.336 21.7927 788.92 22.3177 792.197 23.6565C794.036 24.4286 795.683 25.5574 797.032 26.97C798.382 28.3825 799.403 30.0474 800.03 31.857C801.46 31.058 803.054 30.5583 804.705 30.3915C806.355 30.2247 808.025 30.3947 809.6 30.8899C811.415 31.4563 813.05 32.4457 814.354 33.7673C815.659 35.0888 816.592 36.6999 817.066 38.4522C820.874 37.1809 825.056 37.3683 828.72 38.9744C832.601 40.7054 834.848 43.7612 834.848 47.3586L834.868 49.4377ZM814.278 45.2988H829.966C829.252 44.1604 828.181 43.2612 826.902 42.7265C823.542 41.2469 819.119 41.4983 816.811 43.3164L814.278 45.2988ZM751.109 45.2988H813.298L813.216 41.7691C813.144 38.3845 811.286 35.8025 808.242 34.8548C806.845 34.4083 805.337 34.3814 803.924 34.7779C802.511 35.1743 801.261 35.9746 800.347 37.0693L796.854 41.3533L796.435 35.9379C796.365 34.1168 795.752 32.3518 794.667 30.8462C793.583 29.3406 792.072 28.1557 790.307 27.428C787.738 26.3838 784.93 25.9762 782.147 26.2435C779.365 26.5108 776.701 27.4443 774.405 28.9559C771.75 30.7642 768.727 34.1779 769.452 40.1445L770.024 44.8443L765.938 42.0496C764.318 40.9132 762.379 40.2563 760.365 40.1616C758.351 40.067 756.353 40.5388 754.622 41.5177C753.028 42.3603 751.788 43.6949 751.109 45.2988V45.2988Z" fill="black" fill-opacity="0.3"/>
<path d="M627.497 92.4993H627.415C627.071 92.4879 626.734 92.3986 626.434 92.2388C626.133 92.0789 625.878 91.8532 625.689 91.5806C621.113 85.1015 616.15 84.1151 615.935 84.0764C615.379 83.9649 614.891 83.6527 614.574 83.2062C614.257 82.7596 614.136 82.2137 614.237 81.6842C614.338 81.1548 614.653 80.6833 615.115 80.3699C615.577 80.0564 616.149 79.9256 616.711 80.0052C616.967 80.0052 622.41 80.9722 627.65 87.1419C630.668 84.1778 634.307 81.8426 638.333 80.2856C638.861 80.1469 639.425 80.201 639.913 80.4373C640.401 80.6737 640.777 81.0749 640.967 81.5616C641.157 82.0483 641.148 82.5848 640.94 83.0649C640.732 83.545 640.341 83.9337 639.844 84.1538C635.715 85.8135 632.078 88.4067 629.253 91.7063C629.046 91.9586 628.779 92.1615 628.474 92.2991C628.169 92.4368 627.834 92.5053 627.497 92.4993Z" fill="black" fill-opacity="0.3"/>
<path d="M1353.37 113.947C1353.04 113.948 1352.72 113.879 1352.42 113.745C1352.13 113.611 1351.87 113.415 1351.66 113.173C1350 111.307 1347.8 109.937 1345.33 109.228C1344.78 109.09 1344.31 108.754 1344.02 108.291C1343.73 107.829 1343.64 107.276 1343.77 106.753C1343.9 106.229 1344.25 105.775 1344.73 105.49C1345.21 105.204 1345.8 105.109 1346.35 105.224C1348.86 105.908 1351.17 107.099 1353.14 108.715C1354.84 106.849 1356.93 105.334 1359.27 104.267C1359.54 104.143 1359.83 104.072 1360.12 104.057C1360.42 104.043 1360.72 104.086 1361 104.184C1361.27 104.281 1361.53 104.432 1361.74 104.625C1361.96 104.819 1362.13 105.052 1362.25 105.311C1362.36 105.569 1362.42 105.847 1362.42 106.128C1362.42 106.409 1362.36 106.687 1362.24 106.945C1362.12 107.203 1361.95 107.435 1361.74 107.628C1361.52 107.821 1361.27 107.971 1360.99 108.067C1358.62 109.21 1356.61 110.916 1355.15 113.019C1354.96 113.298 1354.71 113.532 1354.41 113.701C1354.11 113.869 1353.78 113.967 1353.43 113.986L1353.37 113.947Z" fill="black" fill-opacity="0.3"/>
<path d="M968.061 72.5685C967.731 72.5683 967.406 72.4978 967.109 72.3622C966.812 72.2266 966.551 72.0294 966.345 71.7852C964.689 69.9297 962.506 68.5636 960.054 67.8494C959.527 67.6904 959.084 67.3488 958.813 66.8931C958.542 66.4374 958.464 65.9015 958.593 65.3931C958.723 64.8847 959.05 64.4415 959.511 64.1527C959.971 63.8639 960.53 63.7508 961.075 63.8362C963.583 64.5172 965.902 65.7123 967.867 67.3369C969.563 65.4668 971.649 63.949 973.995 62.8788C974.528 62.6634 975.131 62.6575 975.669 62.8624C976.207 63.0674 976.637 63.4663 976.865 63.9716C977.092 64.4769 977.099 65.047 976.882 65.5566C976.666 66.0662 976.244 66.4735 975.711 66.689C973.339 67.8268 971.325 69.5341 969.869 71.6402C969.679 71.9122 969.423 72.1375 969.123 72.2973C968.823 72.4571 968.487 72.5467 968.143 72.5589L968.061 72.5685Z" fill="black" fill-opacity="0.3"/>
<path d="M122.192 104.789C121.864 104.789 121.54 104.718 121.244 104.583C120.949 104.447 120.69 104.25 120.487 104.006C118.821 102.138 116.617 100.77 114.144 100.07C113.632 99.9008 113.205 99.5574 112.945 99.1065C112.686 98.6557 112.613 98.1296 112.74 97.6305C112.867 97.1314 113.186 96.6949 113.634 96.4059C114.083 96.1169 114.628 95.9959 115.165 96.0666C117.667 96.7498 119.981 97.9411 121.947 99.5576C123.651 97.6957 125.736 96.1793 128.075 95.0995C128.609 94.8841 129.211 94.8782 129.749 95.0831C130.287 95.2881 130.717 95.687 130.945 96.1923C131.173 96.6976 131.179 97.2677 130.962 97.7773C130.746 98.2869 130.324 98.6942 129.791 98.9097C127.421 100.049 125.407 101.756 123.949 103.861C123.758 104.132 123.503 104.357 123.203 104.517C122.903 104.677 122.567 104.767 122.223 104.78L122.192 104.789Z" fill="black" fill-opacity="0.3"/>
<path d="M593.17 162.233C595.643 162.933 597.847 164.301 599.512 166.169C599.717 166.411 599.976 166.607 600.272 166.741C600.567 166.874 600.89 166.944 601.218 166.943H601.31C601.659 166.927 601.999 166.83 602.3 166.662C602.6 166.493 602.853 166.258 603.036 165.976C604.501 163.877 606.513 162.172 608.878 161.024C609.157 160.928 609.412 160.778 609.627 160.585C609.843 160.392 610.015 160.16 610.133 159.902C610.25 159.644 610.311 159.366 610.312 159.085C610.312 158.804 610.253 158.526 610.136 158.268C610.019 158.009 609.848 157.776 609.633 157.582C609.419 157.389 609.164 157.238 608.886 157.141C608.608 157.043 608.311 157 608.015 157.014C607.719 157.029 607.428 157.1 607.162 157.224C605.841 157.827 604.603 158.58 603.475 159.467C602.594 160.136 601.777 160.877 601.034 161.682C600.188 160.99 599.275 160.375 598.307 159.845C597.028 159.125 595.655 158.569 594.222 158.191C593.676 158.095 593.112 158.199 592.644 158.483C592.177 158.766 591.84 159.207 591.704 159.717C591.567 160.226 591.641 160.766 591.909 161.226C592.178 161.686 592.621 162.033 593.149 162.194L593.17 162.233Z" fill="black" fill-opacity="0.3"/>
<path opacity="0.8" d="M481.958 350.863L502.558 350.824L502.2 204.734L505.806 204.725L506.163 350.815L511.28 350.805L511.249 341.009L516.091 340.999L515.764 204.705L519.369 204.696L519.696 340.99L529.654 340.97L529.327 204.676L532.932 204.667L533.259 340.961L543.217 340.932L542.89 204.647L546.496 204.638L546.823 340.932L562.285 340.893L562.102 264.816L567.239 264.797L567.065 195.093L551.224 195.132L551.184 176.41L540.684 176.439L540.643 156.237L523.791 110.148L507.246 156.131L507.266 176.506L497.615 176.526L497.656 195.248L481.58 195.286L481.958 350.863Z" fill="url(#paint1_linear_41_1028)"/>
<path d="M884.729 377.533C883.156 382.416 879.622 385.888 875.414 386.807L874.965 386.903V397.541H885.873V374.109L884.729 377.533Z" fill="white"/>
<path d="M858.502 277.251L877.989 277.202V292.675H874.7L874.813 341.423L875.109 341.587C880.961 344.672 883.882 358.704 884.638 362.93L885.772 362.833L885.496 232.738H892.645V216.521H907.587V206.202L928.678 206.154V216.472H943.61V232.68H950.759L951.045 349.469L958.062 344.914L958.01 300.701L981.052 300.653V284.484H998.578V278.16H1005.89V284.484H1020.5L1020.31 224.915H997.842L997.73 201.88H989.672V192.209L947.082 192.296V201.967H927.789V192.296H923.602V189.473H916.034V192.306H910.386V189.482H903.42V192.316H896.863V189.492H889.888V192.325H885.149V201.996H878.755L878.806 225.098H858.379L858.502 277.251Z" fill="white"/>
<path d="M1037.28 300.528L1047.36 300.509L1047.32 284.34L1052.14 284.331L1051.97 213.447H1055.19L1055.36 284.321L1064.53 284.302L1064.51 277.977L1070.14 277.968L1069.99 213.418L1073.21 213.408L1073.38 284.282L1088.18 284.253L1088.01 213.37H1091.22L1091.44 300.412L1104.86 300.383L1104.6 193.932L1091.96 193.961L1091.86 153.897L1083.48 153.916L1083.43 133.647L1070.3 88.6992L1057.43 133.56L1057.45 153.974L1049.75 153.994L1049.85 194.048L1037.01 194.077L1037.28 300.528Z" fill="white"/>
<path d="M806.711 388.972L806.844 388.711C807.635 387.112 808.782 385.694 810.204 384.553L810.408 384.379L810.184 292.839H805.833V277.366L832.326 277.308L832.234 237.892L823.134 234.817L823.073 207.74L776.091 191.89L775.325 191.629L775.397 218.706L765.51 215.418L765.756 319.703L804.454 319.616V336.007H800.011L800.144 392.975L801.165 391.873C802.512 390.374 804.375 389.374 806.425 389.049L806.711 388.972Z" fill="white"/>
<path d="M303.02 344.759H309.557V347.419L321.333 342.245L324.54 343.541L324.335 257.262H308.198V249.139L273.973 249.216V272.957H279.284V279.726H273.973V287.346H279.274V294.116H273.963V301.736H279.274V302.2H287.772V301.736H294.308V308.505H293.123V316.125H294.472V322.895H293.123V330.515H294.482V337.284H293.123V344.904H294.482V351.674H293.134V354.749L302.979 350.416L303.02 344.759ZM287.812 272.947H294.349V279.716H287.812V272.947ZM287.863 294.067V287.298H294.39V294.067H287.863ZM302.846 272.918H309.383V279.687H302.857L302.846 272.918ZM302.846 287.288H309.373V294.058H302.836L302.846 287.288ZM302.846 301.658H309.383V308.428H302.857L302.846 301.658ZM302.846 316.029H309.383V322.798H302.846V316.029ZM302.846 330.389H309.373V337.158H302.836L302.846 330.389Z" fill="white"/>
<path d="M1213 351.296H1229.69V360.318H1246.1V349.546H1243.03V342.776H1246.1V335.156H1243.03V328.387H1246.1V320.767H1243.03V313.997H1246.1V306.377H1243.03V299.608H1249.56V300.198H1258.06V299.647L1264.58 299.598V300.178H1268.37V287.249H1279.61L1279.53 255.24H1263.39V247.117L1229.09 247.185V255.308H1212.94L1213 351.296ZM1264.41 291.959H1257.88V285.189H1264.42L1264.41 291.959ZM1264.41 270.839V277.608H1257.87V270.839H1264.41ZM1249.43 291.988H1242.89V285.218H1249.43V291.988ZM1249.43 270.868V277.637H1242.9V270.868H1249.43ZM1234.58 349.497H1228.05V342.728H1234.59L1234.58 349.497ZM1234.58 335.127H1228.04V328.358H1234.57L1234.58 335.127ZM1234.58 320.757H1228.05V313.988H1234.59L1234.58 320.757ZM1234.58 306.396H1228.04V299.627H1234.57L1234.58 306.396ZM1234.58 292.026H1228.04V285.257H1234.58V292.026ZM1234.58 270.906V277.676H1228.05V270.906H1234.58Z" fill="white"/>
<path d="M1232.66 392.647V392.125H1213.12V396.631H1233.96L1233.54 395.838C1232.99 394.851 1232.69 393.76 1232.66 392.647V392.647Z" fill="white"/>
<path d="M136.34 386.583C135.574 386.68 134.777 386.719 133.97 386.767L132.816 386.825V399.135H136.983V386.516L136.34 386.583Z" fill="white"/>
<path d="M87.5484 393.354C86.0363 393.254 84.5381 393.014 83.075 392.639L82.3499 392.445V399.215H88.0795V393.412L87.5484 393.354Z" fill="white"/>
<path d="M128.821 386.787C121.784 386.468 115.871 384.457 111.714 380.985L111.55 380.85H107.138V381.381C106.852 388.151 101.225 392.628 92.0839 393.344H91.563V399.146L129.414 399.059V386.749L128.821 386.787Z" fill="white"/>
<path d="M82.2896 366.275L83.1475 365.802C85.1639 364.698 87.4469 364.105 89.776 364.08H89.8781C92.7712 364.103 95.578 365.016 97.8751 366.682L98.6105 367.223L99.2539 367.861C100.635 369.226 101.651 370.884 102.216 372.697L102.287 372.89L102.471 372.996C103.918 373.843 105.113 375.025 105.944 376.429L106.107 376.71H107.935L107.537 375.936C106.403 373.728 105.816 371.303 105.821 368.848C105.821 368.461 105.821 368.074 105.913 367.581L105.974 366.981H98.825V362.755H107.476L107.639 362.475C108.92 360.329 110.818 358.572 113.113 357.408L113.328 357.301L113.389 357.079C113.75 355.944 114.229 354.846 114.819 353.801L115.258 353.008H98.8046V348.782H119.129L119.282 348.656C121.605 346.833 124.362 345.575 127.316 344.992C130.269 344.409 133.328 344.518 136.226 345.31L136.962 345.504V339.005L98.8046 339.082V334.866L136.962 334.779V325.051L98.8046 325.128V320.825L136.859 320.728V310.99L98.7024 311.067V306.851L136.859 306.764V302.451H159.901V273.527H150.515V262H134.909V254.66L107.169 254.718V262.058H91.5633V273.595H82.1772L82.2896 366.275ZM143.365 297.055L98.6105 297.152V292.926L143.365 292.829V297.055ZM143.314 278.875V283.11L98.5696 283.207V278.981L143.314 278.875Z" fill="white"/>
<path d="M1123.12 345.223L1123.37 345.378C1127 347.645 1129.62 351.082 1130.76 355.048L1130.82 355.261L1131.02 355.367C1132.88 356.371 1134.46 357.765 1135.66 359.442C1136.85 361.119 1137.62 363.034 1137.91 365.038L1137.97 365.511L1167.12 365.453V357.456L1137.5 357.524V347.699L1186.62 347.592V351.335H1200.91L1200.59 235.726H1191.2V221.007H1175.59V211.637L1147.85 211.695V221.065H1132.24V235.784H1122.85L1123.12 345.223ZM1186.53 339.624L1137.42 339.73V329.896L1186.53 329.789V339.624ZM1186.53 321.801L1137.42 321.908V312.083L1186.53 311.976V321.801ZM1186.53 303.989L1137.42 304.095V294.27L1186.53 294.164V303.989ZM1186.53 286.176L1137.42 286.282V276.447L1186.53 276.341V286.176ZM1186.53 268.353L1137.42 268.46V258.635L1186.53 258.528V268.353ZM1186.46 240.715V250.541L1137.35 250.647V240.822L1186.46 240.715Z" fill="white"/>
<path d="M1178.77 392.763V392.241H1167.19V375.279L1137.57 375.337V371.469L1136.48 373.722C1135.18 376.405 1133.13 378.7 1130.56 380.356C1128.44 381.671 1126.13 382.676 1123.7 383.334L1123.29 383.45V386.506L1124.23 385.742C1126.15 384.105 1128.62 383.172 1131.2 383.114C1133.78 383.055 1136.29 383.875 1138.29 385.423L1138.51 385.587L1138.8 385.52C1141.25 384.916 1143.86 385.118 1146.18 386.093C1148.5 387.067 1150.4 388.757 1151.57 390.887L1151.71 391.129L1151.99 391.177C1153.49 391.373 1154.88 391.985 1156.01 392.935C1157.13 393.886 1157.93 395.132 1158.31 396.515L1158.41 396.921H1180.24L1179.79 396.128C1179.17 395.101 1178.82 393.946 1178.77 392.763V392.763Z" fill="white"/>
<path d="M1194.55 392.203V392.735C1194.52 393.884 1194.2 395.01 1193.63 396.023L1193.18 396.825H1200.99V392.193L1194.55 392.203Z" fill="white"/>
<path d="M1183.08 243.772L1140.4 243.863L1140.4 247.596L1183.09 247.504L1183.08 243.772Z" fill="white"/>
<path d="M1183.08 261.672L1140.4 261.764L1140.4 265.496L1183.09 265.405L1183.08 261.672Z" fill="white"/>
<path d="M1183.16 279.408L1140.48 279.5L1140.49 283.233L1183.17 283.141L1183.16 279.408Z" fill="white"/>
<path d="M1183.2 297.221L1140.52 297.312L1140.53 301.045L1183.21 300.954L1183.2 297.221Z" fill="white"/>
<path d="M1183.25 315.043L1140.57 315.135L1140.58 318.868L1183.26 318.776L1183.25 315.043Z" fill="white"/>
<path d="M1183.3 332.856L1140.62 332.947L1140.63 336.68L1183.31 336.588L1183.3 332.856Z" fill="white"/>
<path d="M1167.08 350.703L1140.66 350.76L1140.67 354.493L1167.09 354.436L1167.08 350.703Z" fill="white"/>
<path d="M1167.12 368.516L1140.69 368.572L1140.7 372.305L1167.12 372.248L1167.12 368.516Z" fill="white"/>
<path d="M176.386 279.891L184.597 279.872L184.618 286.206L198.845 286.167L198.661 209.578L203.206 209.568L203.39 285.616L203.523 286.157L203.563 302.336L213.542 302.307L213.317 209.549L217.862 209.539L218.087 302.297L226.135 302.288L226.094 286.109H228.147L227.963 209.51L232.518 209.5L232.702 286.099L242.803 286.08L242.619 209.481L247.164 209.471L247.338 279.736H250.596L250.616 286.061L269.021 286.022L269.062 302.191H270.859L270.634 209.771L259.318 209.8L259.277 193.438L248.369 193.467L248.339 178.401L240.301 178.42L240.27 165.781L235.082 165.8L235.051 152.252L211.52 152.3L211.55 165.848L206.372 165.858L206.403 178.497L198.365 178.507L198.396 193.573L187.498 193.593L187.539 209.955L176.212 209.984L176.386 279.891Z" fill="white"/>
<path d="M896.618 389.108C895.277 388.733 894.032 388.099 892.962 387.247C891.891 386.395 891.019 385.343 890.398 384.157L889.315 382.223V397.347H897.036V389.214L896.618 389.108Z" fill="white"/>
<path d="M911.488 390.075L911.754 390.017L911.876 389.795C912.637 388.355 913.802 387.142 915.244 386.289C916.685 385.436 918.347 384.976 920.047 384.959C922.03 384.946 923.962 385.555 925.542 386.69L925.756 386.845L926.022 386.787C927.805 386.405 929.668 386.535 931.372 387.16C933.077 387.785 934.546 388.878 935.592 390.297L936.613 391.709L936.552 366.566H930.985V360.455H936.562V358.849L947.643 351.655L947.368 235.881H940.218V219.664H925.276V209.346H911.09V219.664H896.148V235.881H888.998L889.325 369.197L890.449 364.864C891.644 360.242 894.32 352.477 898.783 352.467C898.895 352.456 899.008 352.456 899.12 352.467L899.385 352.525L900.059 352.631V347.216H905.871V353.337H901.51L902.357 354.237C903.802 355.955 904.913 357.904 905.636 359.991L905.779 360.339H905.891V360.716C907.683 365.857 908.751 371.199 909.068 376.604C909.068 382.842 905.82 387.812 900.958 388.973L900.519 389.069V397.183H906.371V396.622C906.371 396.303 906.371 396.051 906.371 396.032C906.406 394.642 906.927 393.303 907.853 392.225C908.78 391.146 910.058 390.39 911.488 390.075V390.075ZM936.787 353.424H930.985V347.303H936.797L936.787 353.424ZM936.787 340.282H930.985V334.161H936.797L936.787 340.282ZM936.787 327.15H930.985V321.038H936.787V327.15ZM936.787 314.008H930.975V307.887H936.776L936.787 314.008ZM936.787 300.876H930.975V294.764H936.776L936.787 300.876ZM936.787 287.743H930.975V281.632H936.776L936.787 287.743ZM936.787 274.601H930.985V268.509H936.787V274.601ZM936.787 261.469H930.985V255.357H936.562L936.787 261.469ZM936.787 242.215V248.298H930.985V242.186L936.787 242.215ZM921.334 366.595H915.533V360.474H921.344L921.334 366.595ZM921.334 353.453H915.533V347.342H921.344L921.334 353.453ZM921.334 340.321H915.533V334.209H921.242L921.334 340.321ZM921.334 327.179H915.533V321.058H921.242L921.334 327.179ZM921.242 314.056H915.431V307.945H921.242V314.056ZM921.242 300.914H915.431V294.812H921.232L921.242 300.914ZM921.242 287.782H915.431V281.661H921.232L921.242 287.782ZM921.242 274.65H915.431V268.538H921.232L921.242 274.65ZM921.242 261.508H915.441V255.396H921.242V261.508ZM921.242 242.264V248.375H915.441V242.264H921.242ZM899.957 242.264H905.759V248.385H899.794L899.957 242.264ZM899.957 255.396H905.759V261.508H899.794L899.957 255.396ZM899.794 268.606H905.595V274.717H899.784L899.794 268.606ZM899.794 281.738H905.595V287.859H899.784L899.794 281.738ZM899.794 294.87H905.595V300.982H899.784L899.794 294.87ZM899.794 308.003H905.595V314.114H899.794V308.003ZM899.794 321.145H905.605V327.256H899.804L899.794 321.145ZM899.845 340.389V334.277H905.656V340.389H899.845Z" fill="white"/>
<path d="M666.339 264.582V262.213H662.09V257.378H666.339V247.437H662.09V242.495H683.457V232.554H662.09V227.719L683.457 227.671V217.729L662.09 217.778V212.894L687.277 212.846L696.132 207.808L696.05 171.225L656.065 147.378L655.176 146.846L655.462 264.64L666.339 264.582ZM690.361 202.847L661.937 202.914V198.012L690.361 197.954V202.847ZM690.31 183.148V187.983L661.886 188.051V183.216L690.31 183.148Z" fill="white"/>
<path d="M686.856 246.635L713.747 246.587L713.533 264.487L724.134 264.458L723.971 195.711L699.745 209.472L686.784 216.831L686.856 246.635Z" fill="white"/>
<path d="M429.104 393.876L429.042 393.393L398.505 393.46L398.443 393.934C398.279 395.32 397.628 396.615 396.595 397.609L395.573 398.576L431.912 398.499L430.891 397.532C429.889 396.531 429.261 395.247 429.104 393.876V393.876Z" fill="white"/>
<path d="M457.139 363.985V350.92H463.369L463.062 226.173H447.099L447.038 203.07H442.043V193.4H438.346V190.566H433.556V193.4H427.734V190.576H423.006V193.4H417.899V190.576H412.792V193.4H409.524V203.07H393.765V193.4L361.235 193.468V203.138H354.934L354.985 226.24H337.418L337.714 348.667L340.564 349.818V340.061H349.511V353.435L367.363 360.62L367.455 398.479H388.28L387.259 397.512C386.219 396.523 385.558 395.233 385.38 393.847L385.318 393.373H377.893V376.421H387.136L392.07 361.683L428.245 361.606L435.006 376.315H448.764L448.825 393.276H442.237L442.176 393.76C442.02 395.147 441.372 396.442 440.338 397.435L439.367 398.402H463.44L463.359 363.975L457.139 363.985ZM354.055 245.736L396.686 245.649V251.045L354.055 251.132V245.736ZM354.055 262.804L396.686 262.717V268.113L354.055 268.21V262.804ZM354.055 279.843L396.686 279.756V285.191L354.055 285.278V279.843ZM354.055 296.921L396.686 296.824V302.22L354.055 302.317V296.921ZM354.055 313.989L396.686 313.902V319.298L354.055 319.385V313.989ZM354.055 331.057L396.686 330.97V336.366L354.055 336.463V331.057ZM354.107 353.531V348.106L396.737 348.01V353.444L354.107 353.531ZM404.887 245.629L447.548 245.533V250.938L404.887 251.026V245.629ZM404.887 262.698L447.548 262.601V268.007L404.887 268.094V262.698ZM404.887 279.737L447.548 279.64V285.046L404.887 285.143V279.737ZM404.887 296.805L447.548 296.718V302.114L404.887 302.211V296.805ZM404.887 313.883L447.548 313.786V319.182L404.887 319.279V313.883ZM404.887 330.951L447.548 330.864V336.299L404.887 336.386V330.951ZM404.938 353.425V347.99L447.599 347.903V353.328L404.938 353.425Z" fill="white"/>
<path d="M1110.66 384.649C1110.07 384.649 1109.48 384.581 1108.91 384.523L1108 384.465C1107.59 384.453 1107.17 384.421 1106.76 384.369V384.369C1106.3 384.297 1105.85 384.203 1105.41 384.088L1104.61 383.895C1100.1 383.091 1095.93 381.077 1092.6 378.092C1092.42 377.917 1092.25 377.73 1092.09 377.532C1091.98 377.386 1091.87 377.241 1091.74 377.106L1090.72 375.975V380.52H1073.98V367.581H1087.71V367.039C1087.71 366.933 1087.71 366.846 1087.71 366.739C1087.7 366.691 1087.7 366.643 1087.71 366.594C1087.71 365.405 1087.88 364.222 1088.21 363.074L1088.41 362.378H1074.01V349.429H1090.75V358.355L1091.72 357.388C1092.68 356.484 1093.78 355.715 1094.97 355.106L1095.19 355L1095.25 354.777C1095.92 352.464 1097.12 350.316 1098.75 348.481C1100.39 346.645 1102.42 345.164 1104.71 344.14C1105.4 343.83 1106.11 343.562 1106.83 343.337C1107.52 343.112 1108.23 342.924 1108.94 342.776C1109.54 342.66 1110.14 342.544 1110.74 342.467L1111.24 342.409L1111.15 303.321H1087.14V287.152L1050.65 287.23V303.399L1021.65 303.466V287.297L984.35 287.375V303.544L961.309 303.592L961.401 342.602L966.885 339.044L984.391 349.488L984.534 349.565H998.485V357.939L999.506 358.558L999.598 396.872H1111.21V384.572L1110.66 384.649ZM981.582 313.436H998.312V326.375H981.572L981.582 313.436ZM981.654 344.517V331.578H998.393V344.517H981.654ZM1008.06 313.388H1024.79V326.327H1008.06V313.388ZM1008.06 331.52H1024.79V344.459H1008.06V331.52ZM1008.11 349.662H1024.84V362.61H1008.11V349.662ZM1008.18 380.742V367.803H1024.91V380.742H1008.18ZM1047.37 313.301H1064.1V326.25H1047.37V313.301ZM1047.37 331.443H1064.11V344.382H1047.37V331.443ZM1047.37 349.575H1064.11V362.513H1047.37V349.575ZM1047.45 380.655V367.716H1064.18V380.665L1047.45 380.655ZM1073.73 313.243H1090.47V326.192H1073.73V313.243ZM1073.73 331.385H1090.46V344.324H1073.73V331.385Z" fill="white"/>
<path d="M995.091 316.482L984.785 316.504L984.802 323.36L995.107 323.338L995.091 316.482Z" fill="white"/>
<path d="M1021.57 316.386L1011.27 316.408L1011.29 323.264L1021.59 323.242L1021.57 316.386Z" fill="white"/>
<path d="M995.165 334.576L984.859 334.598L984.876 341.444L995.181 341.422L995.165 334.576Z" fill="white"/>
<path d="M1021.6 334.556L1011.29 334.578L1011.31 341.425L1021.61 341.403L1021.6 334.556Z" fill="white"/>
<path d="M989.54 352.748L995.198 356.133V352.738L989.54 352.748Z" fill="white"/>
<path d="M1021.64 352.697L1011.33 352.719L1011.35 359.565L1021.66 359.543L1021.64 352.697Z" fill="white"/>
<path d="M1021.67 370.839L1011.37 370.861L1011.38 377.708L1021.69 377.686L1021.67 370.839Z" fill="white"/>
<path d="M1060.89 316.341L1050.59 316.363L1050.61 323.22L1060.91 323.197L1060.89 316.341Z" fill="white"/>
<path d="M1087.35 316.283L1077.04 316.305L1077.06 323.161L1087.36 323.139L1087.35 316.283Z" fill="white"/>
<path d="M1060.94 334.482L1050.63 334.504L1050.65 341.351L1060.96 341.328L1060.94 334.482Z" fill="white"/>
<path d="M1087.39 334.425L1077.08 334.447L1077.1 341.294L1087.41 341.272L1087.39 334.425Z" fill="white"/>
<path d="M1060.99 352.613L1050.69 352.635L1050.7 359.481L1061.01 359.459L1060.99 352.613Z" fill="white"/>
<path d="M1087.44 352.566L1077.13 352.588L1077.15 359.435L1087.45 359.412L1087.44 352.566Z" fill="white"/>
<path d="M1061.03 370.755L1050.72 370.777L1050.74 377.624L1061.04 377.602L1061.03 370.755Z" fill="white"/>
<path d="M1087.49 370.697L1077.18 370.719L1077.2 377.565L1087.51 377.543L1087.49 370.697Z" fill="white"/>
<path d="M966.875 342.836L939.779 360.475L939.861 393.083L940.014 393.238C940.993 394.237 941.58 395.524 941.679 396.884C941.679 396.98 941.679 397.077 941.75 397.28V397.831L996.331 397.706L996.239 360.388L966.875 342.836ZM953.772 389.66V370.706H965.874V389.66H953.772ZM970.307 389.66V370.706H982.4V389.669L970.307 389.66Z" fill="white"/>
<path d="M962.546 373.732L956.949 373.742L956.979 386.062L957.061 386.604L962.658 386.594L962.627 374.274L962.546 373.732Z" fill="white"/>
<path d="M979.133 373.714L973.475 373.727L973.506 386.588L979.164 386.576L979.133 373.714Z" fill="white"/>
<path d="M870.831 386.825C864.703 385.578 860.454 379.263 860.444 371.478C860.449 370.409 860.514 369.34 860.638 368.277L860.699 367.678H854.387V361.789H861.598L861.69 361.344C862.711 356.093 865.693 343.637 871.301 341.365L871.648 341.22L871.525 289.657H874.814V280.258L809.03 280.403V289.793H813.411L813.636 382.561L814.392 382.319C816.39 381.656 818.535 381.495 820.619 381.851C822.702 382.207 824.653 383.068 826.28 384.35L826.515 384.524L826.801 384.446C828.466 384.027 830.206 383.941 831.908 384.195C832.602 384.296 833.285 384.455 833.95 384.669C834.657 384.895 835.34 385.179 835.993 385.52C838.28 386.653 840.149 388.417 841.355 390.577L841.488 390.829H841.784C843.531 391.043 845.165 391.76 846.468 392.882C847.77 394.005 848.677 395.479 849.066 397.105L849.168 397.53L871.26 397.482V386.845L870.831 386.825ZM825.392 297.935H831.601V303.824H825.381L825.392 297.935ZM825.392 310.719H831.601V316.609H825.381L825.392 310.719ZM825.392 323.504H831.601V329.393H825.381L825.392 323.504ZM825.392 336.288H831.601V342.177H825.381L825.392 336.288ZM825.392 349.082H831.601V354.971H825.381L825.392 349.082ZM825.392 367.755V361.866H831.601V367.755H825.392ZM839.69 297.906H845.91V303.786H839.701L839.69 297.906ZM839.69 310.69H845.91V316.58H839.701L839.69 310.69ZM839.69 323.475H845.91V329.364H839.701L839.69 323.475ZM839.69 336.259H845.91V342.148H839.69V336.259ZM839.69 349.053H845.91V354.942H839.946L839.69 349.053ZM839.69 367.717V361.827H845.91V367.717H839.69ZM853.989 297.877H860.199V303.766H853.979L853.989 297.877ZM853.989 310.661H860.199V316.551H853.979L853.989 310.661ZM853.989 323.446H860.199V329.325H853.979L853.989 323.446ZM853.989 336.23H860.199V342.109H853.979L853.989 336.23ZM853.989 349.014H860.199V354.903H853.979L853.989 349.014Z" fill="white"/>
<path d="M642.908 336.299V319.859L668.686 319.801V317.867H682.505V319.801H697.978V317.867H702.452V309.299L720.703 309.251V292.241H726.167V309.222H741.773L741.681 267.475L710.245 267.542L710.449 249.643L669.473 249.73V267.629L637.709 267.707V249.797L596.07 249.894V267.794L565.246 267.862L565.44 350.698L618.825 350.582V363.646H610.562L610.644 397.802H647.647L647.504 336.299H642.908ZM711.725 307.626H697.907V297.762H711.715L711.725 307.626ZM711.654 277.648V287.512H697.835V277.648H711.654ZM682.434 307.626H668.625V297.762H682.444L682.434 307.626ZM682.362 277.648V287.492L668.544 287.55V277.677L682.362 277.648ZM595.702 277.841H609.521V287.715H595.702V277.841ZM595.702 297.917H609.51V307.781H595.692L595.702 297.917ZM595.702 318.002H609.521V327.866H595.702V318.002ZM595.784 347.98V338.117H609.602V347.99L595.784 347.98ZM624.892 277.803H638.71V287.676H624.902L624.892 277.803ZM624.943 297.888H638.761V307.752H624.943V297.888ZM624.943 317.964H638.761V327.837H624.943V317.964ZM624.994 338.049H638.802V347.913H624.984L624.994 338.049ZM624.994 358.125H638.812V367.988H625.004L624.994 358.125ZM625.065 388.103V378.239H638.884V388.103H625.065Z" fill="white"/>
<path d="M606.278 280.986L598.894 281.002L598.903 284.783L606.287 284.767L606.278 280.986Z" fill="white"/>
<path d="M635.559 280.922L628.174 280.938L628.183 284.719L635.568 284.703L635.559 280.922Z" fill="white"/>
<path d="M606.367 301.031L598.982 301.047L598.991 304.818L606.376 304.802L606.367 301.031Z" fill="white"/>
<path d="M635.647 300.969L628.263 300.984L628.272 304.756L635.656 304.74L635.647 300.969Z" fill="white"/>
<path d="M606.373 321.146L598.989 321.162L598.998 324.943L606.382 324.927L606.373 321.146Z" fill="white"/>
<path d="M635.707 321.054L628.322 321.07L628.331 324.851L635.716 324.836L635.707 321.054Z" fill="white"/>
<path d="M606.463 341.193L599.079 341.209L599.088 344.99L606.472 344.974L606.463 341.193Z" fill="white"/>
<path d="M635.713 341.168L628.329 341.184L628.338 344.965L635.722 344.949L635.713 341.168Z" fill="white"/>
<path d="M635.793 361.215L628.409 361.23L628.418 365.012L635.802 364.996L635.793 361.215Z" fill="white"/>
<path d="M635.799 381.328L628.415 381.344L628.424 385.125L635.808 385.109L635.799 381.328Z" fill="white"/>
<path d="M679.168 280.791L671.784 280.807L671.793 284.588L679.177 284.572L679.168 280.791Z" fill="white"/>
<path d="M708.41 280.765L701.025 280.781L701.034 284.562L708.419 284.547L708.41 280.765Z" fill="white"/>
<path d="M678.646 304.658L679.218 304.581L679.208 300.887L671.823 300.896L671.833 304.677L678.646 304.658Z" fill="white"/>
<path d="M708.498 300.812L701.114 300.828L701.123 304.6L708.507 304.584L708.498 300.812Z" fill="white"/>
<path d="M1292.34 389.718V389.418L1291.58 389.669C1289.72 390.26 1287.79 390.634 1285.84 390.782H1285.31V396.284H1297.68V395.781C1297.76 394.783 1298.06 393.813 1298.56 392.928C1299.05 392.044 1299.73 391.264 1300.56 390.636L1301.83 389.669L1292.34 389.718Z" fill="white"/>
<path d="M1281.32 390.772H1280.58C1280.11 390.772 1279.63 390.772 1279.19 390.656C1278.01 390.472 1276.84 390.194 1275.71 389.824H1271.17V387.551L1270.95 387.387C1270.79 387.271 1270.63 387.165 1270.47 387.058C1270.15 386.849 1269.85 386.62 1269.56 386.372C1268.43 385.313 1267.55 384.051 1266.95 382.66C1266.35 381.27 1266.05 379.779 1266.08 378.277C1266.08 376.682 1266.52 375.115 1267.36 373.729C1268.19 372.344 1269.4 371.189 1270.85 370.377L1271.13 370.222V368.481H1271.88L1272.04 368.172C1272.76 366.788 1273.76 365.552 1274.99 364.536C1276.22 363.52 1277.65 362.745 1279.19 362.254C1279.69 362.093 1280.19 361.961 1280.7 361.857L1281.43 361.703C1284.13 361.253 1286.92 361.633 1289.39 362.788C1291.85 363.943 1293.86 365.812 1295.12 368.124L1295.29 368.423H1301.94V375.251H1300.38L1300.58 375.937C1300.81 376.714 1300.93 377.518 1300.92 378.326C1300.91 379.646 1300.66 380.954 1300.18 382.194L1299.91 382.91H1301.96V389.795L1302.73 389.524C1303.17 389.37 1303.63 389.253 1304.09 389.176H1304.38L1304.51 388.925C1305.18 387.597 1306.14 386.412 1307.31 385.443C1308.48 384.474 1309.85 383.74 1311.33 383.287L1311.73 383.171V371.566H1305.4V360.619H1323.78V353.947H1333.44V360.629H1344.94V353.957H1346.93V353.135L1375.95 353.067L1375.83 303.4H1353.1L1353.26 290.461L1324.77 290.529V303.468H1300.69V290.529L1271.72 290.596V303.526H1249.44L1249.58 362.515L1258.25 379.08L1258.31 392.183H1249.65V396.419H1281.87V390.907L1281.32 390.772ZM1354.54 346.046H1344.88V339.2H1354.54V346.046ZM1354.54 331.541H1344.88V324.713H1354.54V331.541ZM1354.54 310.198V317.025H1344.87V310.188L1354.54 310.198ZM1333.46 346.104H1323.8V339.277H1333.47L1333.46 346.104ZM1333.46 331.599H1323.79V324.771H1333.45L1333.46 331.599ZM1333.46 310.256V317.083H1323.79V310.256H1333.46ZM1302.1 360.697H1292.44V353.869H1302.1V360.697ZM1302.1 346.191H1292.43V339.364H1302.09L1302.1 346.191ZM1302.1 331.686H1292.44V324.858H1302.11L1302.1 331.686ZM1302.05 310.343V317.17H1292.39V310.343H1302.05ZM1280.75 360.716H1271.08V353.889H1280.74L1280.75 360.716ZM1280.75 346.211H1271.08V339.374H1280.75V346.211ZM1280.75 331.705H1271.09V324.878H1280.76L1280.75 331.705ZM1280.75 310.363V317.19H1271.08V310.363H1280.75Z" fill="white"/>
<path d="M346.231 355.582V343.242H343.719V354.557L321.382 345.563L293.193 357.961V371.17H311.189V392.445H293.193V398.779L364.084 398.624L364.002 362.786L346.231 355.582ZM315.458 392.387L315.407 371.112H330.656L330.707 392.387H315.458ZM334.864 392.387L334.813 371.112L357.619 371.064L357.67 392.339L334.864 392.387Z" fill="white"/>
<path d="M327.444 374.159L318.62 374.178L318.656 389.331L327.48 389.312L327.444 374.159Z" fill="white"/>
<path d="M354.415 374.092L338.043 374.127L338.08 389.28L354.451 389.245L354.415 374.092Z" fill="white"/>
<path d="M308.017 374.201L293.228 374.232L293.265 389.386L308.053 389.354L308.017 374.201Z" fill="white"/>
<path d="M615.71 360.6V353.617L561.58 353.743V343.938L514.598 344.044V353.84L460.468 353.956V360.938H468.73L468.822 398.401L607.662 398.101L607.57 360.638L615.71 360.6ZM484.643 392.715V374.428H496.46V392.715H484.643ZM500.821 392.715V374.428H512.627V392.715H500.821ZM524.842 392.657V374.37H536.516V392.657H524.842ZM540.836 392.657V374.37H552.49L552.541 392.657H540.836ZM564.715 392.608V374.312H576.532V392.599L564.715 392.608ZM580.893 392.608V374.322H592.7V392.608H580.893Z" fill="white"/>
<path d="M493.193 377.469L487.811 377.48L487.84 389.684L493.223 389.673L493.193 377.469Z" fill="white"/>
<path d="M504.008 377.435L504.028 389.088L504.069 389.639L509.4 389.62L509.38 377.426L504.008 377.435Z" fill="white"/>
<path d="M573.265 377.297L567.882 377.309L567.911 389.513L573.294 389.501L573.265 377.297Z" fill="white"/>
<path d="M589.431 377.262L584.059 377.273L584.088 389.477L589.46 389.466L589.431 377.262Z" fill="white"/>
<path d="M533.259 377.372L528.03 377.383L528.059 389.587L533.288 389.576L533.259 377.372Z" fill="white"/>
<path d="M549.211 377.348L543.992 377.359L544.021 389.563L549.24 389.552L549.211 377.348Z" fill="white"/>
<path d="M1412.13 388.856L1412.26 388.604C1413.02 387.127 1414.13 385.836 1415.5 384.83C1416.87 383.823 1418.46 383.13 1420.16 382.802L1420.62 382.715V367.987H1426.95V363.577L1385.45 363.664V356.16L1350.4 356.238V363.742L1308.9 363.829V368.209H1315.23V382.773H1315.75C1317.89 382.97 1319.92 383.742 1321.61 384.997L1321.83 385.162L1322.11 385.094C1322.44 385.015 1322.78 384.96 1323.13 384.929H1323.34C1324.57 384.75 1325.83 384.78 1327.05 385.017C1328.63 385.303 1330.13 385.907 1331.45 386.786C1332.26 387.341 1333 387.991 1333.64 388.72C1334.11 389.257 1334.53 389.837 1334.88 390.451L1335.02 390.683H1335.3C1336.76 390.877 1338.13 391.469 1339.24 392.386C1340.35 393.302 1341.16 394.505 1341.56 395.847L1341.62 396.031C1341.62 396.128 1341.67 396.215 1341.7 396.312L1341.8 396.756L1405.35 396.621V396.079C1405.37 394.347 1406.02 392.673 1407.2 391.35C1408.38 390.027 1410.02 389.137 1411.82 388.836L1412.13 388.856ZM1355.62 389.339V371.217L1381.15 371.159V389.281L1355.62 389.339Z" fill="white"/>
<path d="M1365.39 374.49L1359.02 374.504L1359.05 386.089L1365.42 386.075L1365.39 374.49Z" fill="white"/>
<path d="M1377.63 374.475L1371.26 374.488L1371.29 386.073L1377.65 386.06L1377.63 374.475Z" fill="white"/>
<path d="M801.266 332.923V322.624L741.732 322.75V312.258L705.648 312.335V322.828L646.115 322.953V333.262H650.813L650.966 397.27L651.048 398.005L718.936 397.86L717.353 396.893L717.169 396.786C716.383 396.269 715.72 395.6 715.226 394.823C714.731 394.047 714.416 393.18 714.299 392.28L714.228 391.806H706.496V387.029H706.568L706.496 359.082L761.74 358.908V365.89L765.499 374.187H779.716V374.661H782.984V386.265H779.818V391.661H772.975L772.914 392.135C772.803 393.066 772.478 393.963 771.961 394.762C771.443 395.56 770.747 396.242 769.921 396.757L768.297 397.724L796.894 397.666L796.741 332.875L801.266 332.923ZM664.509 343.329H676.765V354.933H664.509V343.329ZM664.509 359.082H676.765V370.686H664.509V359.082ZM664.57 386.478V374.873H676.826V386.478H664.57ZM685.692 343.28H697.948V354.885H685.692V343.28ZM685.692 359.033H697.948V370.638H685.692V359.033ZM685.753 386.429V374.825H698.009V386.429H685.753ZM706.905 354.875V343.271H719.161V354.875H706.905ZM728.128 354.827V343.222H740.384V354.827H728.128ZM749.351 354.827V343.222H761.607V354.827H749.351ZM770.636 343.068H782.892V354.672H770.636V343.068ZM770.697 370.464V358.859H782.953V370.464H770.697Z" fill="white"/>
<path d="M758.51 346.165L752.647 346.178L752.661 351.729L758.523 351.716L758.51 346.165Z" fill="white"/>
<path d="M779.733 346.11L773.87 346.123L773.883 351.674L779.746 351.661L779.733 346.11Z" fill="white"/>
<path d="M779.772 361.862L773.909 361.875L773.922 367.426L779.785 367.413L779.772 361.862Z" fill="white"/>
<path d="M737.256 346.241L731.393 346.254L731.407 351.805L737.269 351.792L737.256 346.241Z" fill="white"/>
<path d="M673.608 346.347L667.745 346.359L667.758 351.91L673.621 351.898L673.608 346.347Z" fill="white"/>
<path d="M694.868 362.056L689.005 362.068L689.018 367.619L694.881 367.607L694.868 362.056Z" fill="white"/>
<path d="M694.905 377.808L689.042 377.82L689.056 383.371L694.918 383.358L694.905 377.808Z" fill="white"/>
<path d="M694.81 346.331L688.948 346.344L688.961 351.895L694.823 351.882L694.81 346.331Z" fill="white"/>
<path d="M759.555 392.155L759.493 391.672L727.832 391.74L727.761 392.213C727.593 393.656 726.908 395.001 725.82 396.024C725.509 396.323 725.167 396.592 724.799 396.826L723.032 397.793L762.353 397.706H764.273L762.568 396.739C761.744 396.228 761.048 395.553 760.528 394.762C760.007 393.97 759.675 393.081 759.555 392.155V392.155Z" fill="white"/>
<path d="M716.033 346.284L710.171 346.297L710.184 351.848L716.046 351.835L716.033 346.284Z" fill="white"/>
<path d="M672.129 363.539H666.267V369.09H672.129V363.539Z" fill="white"/>
<path d="M673.653 377.882L667.791 377.895L667.804 383.445L673.666 383.433L673.653 377.882Z" fill="white"/>
<path d="M265.854 305.247V289.078L229.362 289.156V305.324L200.366 305.382L200.315 289.214L163.006 289.301V305.469H139.964L140.066 346.684L140.363 346.849C141.246 347.32 142.087 347.86 142.875 348.464L143.151 348.667C143.318 348.784 143.478 348.91 143.631 349.044C146.159 351.2 147.978 354 148.87 357.109L148.942 357.322L149.146 357.438C151.262 358.58 153.023 360.23 154.251 362.221C155.479 364.212 156.132 366.475 156.142 368.781C156.206 371.47 155.547 374.131 154.227 376.513C152.906 378.894 150.968 380.919 148.595 382.397C146.148 383.939 143.439 385.071 140.587 385.743L140.158 385.849V398.721H289.508L290.08 398.614L289.855 305.141L265.854 305.247ZM160.35 315.217H177.029L177.12 328.166H160.381L160.35 315.217ZM160.35 333.359H177.039L177.12 346.298H160.391L160.35 333.359ZM160.35 351.5H177.029L177.11 364.439H160.381L160.35 351.5ZM160.422 382.581V369.632H177.1L177.192 382.571L160.422 382.581ZM186.711 315.159H203.45V328.108H186.711V315.159ZM186.711 333.301H203.45V346.24H186.721L186.711 333.301ZM186.762 351.442H203.491V364.381L186.905 364.343L186.762 351.442ZM186.833 382.523V369.574H203.573V382.513L186.833 382.523ZM226.022 315.072H242.762V328.011H226.022V315.072ZM226.022 333.214H242.762V346.162H226.022V333.214ZM226.022 351.355H242.762V364.294H226.032L226.022 351.355ZM226.104 382.436V369.497H242.833V382.436H226.104ZM252.617 315.024H269.357V327.963H252.617V315.024ZM252.617 333.165H269.357V346.114H252.617V333.165ZM252.617 351.307H269.357V364.246H252.617V351.307ZM252.699 382.387V369.449H269.429V382.387H252.699Z" fill="white"/>
<path d="M173.903 318.226L163.598 318.248L163.614 325.104L173.919 325.082L173.903 318.226Z" fill="white"/>
<path d="M200.337 318.179L190.032 318.201L190.048 325.057L200.353 325.035L200.337 318.179Z" fill="white"/>
<path d="M173.919 336.376L163.614 336.398L163.63 343.245L173.936 343.223L173.919 336.376Z" fill="white"/>
<path d="M200.37 336.322L190.064 336.344L190.081 343.19L200.386 343.168L200.37 336.322Z" fill="white"/>
<path d="M173.961 354.521L163.655 354.543L163.672 361.39L173.977 361.367L173.961 354.521Z" fill="white"/>
<path d="M200.413 354.462L190.108 354.484L190.124 361.331L200.429 361.309L200.413 354.462Z" fill="white"/>
<path d="M174.034 372.642L163.729 372.664L163.746 379.511L174.051 379.489L174.034 372.642Z" fill="white"/>
<path d="M200.469 372.603L190.163 372.625L190.18 379.472L200.485 379.449L200.469 372.603Z" fill="white"/>
<path d="M239.678 318.095L229.372 318.117L229.389 324.973L239.694 324.951L239.678 318.095Z" fill="white"/>
<path d="M266.13 318.048L255.825 318.07L255.841 324.927L266.146 324.904L266.13 318.048Z" fill="white"/>
<path d="M239.752 336.228L229.446 336.25L229.463 343.097L239.768 343.074L239.752 336.228Z" fill="white"/>
<path d="M266.173 336.181L255.868 336.203L255.884 343.05L266.19 343.028L266.173 336.181Z" fill="white"/>
<path d="M239.764 354.378L229.458 354.4L229.475 361.247L239.78 361.225L239.764 354.378Z" fill="white"/>
<path d="M266.219 354.322L255.913 354.344L255.93 361.19L266.235 361.168L266.219 354.322Z" fill="white"/>
<path d="M239.809 372.519L229.504 372.541L229.52 379.388L239.826 379.365L239.809 372.519Z" fill="white"/>
<path d="M266.26 372.462L255.954 372.484L255.971 379.331L266.276 379.309L266.26 372.462Z" fill="white"/>
<path d="M396.399 388.617L396.573 388.762L430.982 388.684L431.145 388.539C432.375 387.485 433.975 386.902 435.634 386.902C437.293 386.902 438.893 387.485 440.123 388.539L440.286 388.684H445.536V379.478H432.881L426.12 364.77L394.408 364.837L389.465 379.565H381.1V388.771H387.228L387.391 388.617C388.625 387.559 390.231 386.973 391.895 386.973C393.56 386.973 395.165 387.559 396.399 388.617V388.617ZM422.678 369.228L426.59 378.792H413.313V369.218L422.678 369.228ZM398.626 369.276H407.644V378.85H395.49L398.626 369.276Z" fill="white"/>
<path d="M435.64 389.883C434.93 389.89 434.239 390.107 433.666 390.504C433.093 390.901 432.665 391.458 432.443 392.097C432.324 392.408 432.255 392.734 432.239 393.064C432.227 393.837 432.51 394.587 433.037 395.177C433.563 395.767 434.297 396.157 435.104 396.275C435.91 396.393 436.734 396.231 437.424 395.818C438.114 395.406 438.623 394.771 438.857 394.031C438.976 393.721 439.042 393.395 439.051 393.064C439.039 392.733 438.966 392.406 438.837 392.097C438.618 391.457 438.191 390.898 437.617 390.5C437.043 390.103 436.351 389.887 435.64 389.883V389.883Z" fill="white"/>
<path d="M391.896 389.961C391.182 389.966 390.489 390.185 389.914 390.586C389.34 390.988 388.915 391.551 388.699 392.195C388.578 392.505 388.509 392.831 388.495 393.162C388.51 393.493 388.583 393.82 388.709 394.129C388.923 394.774 389.348 395.337 389.923 395.737C390.498 396.137 391.193 396.352 391.906 396.352C392.62 396.352 393.314 396.137 393.889 395.737C394.464 395.337 394.89 394.774 395.103 394.129C395.229 393.82 395.298 393.493 395.307 393.162C395.295 392.831 395.226 392.504 395.103 392.195C394.885 391.55 394.458 390.986 393.882 390.585C393.306 390.184 392.611 389.966 391.896 389.961V389.961Z" fill="white"/>
<path d="M723.625 385.5C724.379 385.802 725.07 386.227 725.668 386.757L725.943 386.912L761.475 386.835L761.639 386.68C761.92 386.431 762.221 386.201 762.538 385.993C762.598 385.976 762.654 385.946 762.701 385.906C763.256 385.589 763.854 385.345 764.478 385.181C765.072 385.003 765.693 384.918 766.317 384.93H766.49C767.691 384.959 768.862 385.293 769.881 385.897C770.248 386.114 770.59 386.367 770.902 386.651L771.076 386.796H776.571V377.126H763.457L756.461 361.914L709.765 362.011L709.827 386.864H716.23L716.394 386.709C717.443 385.784 718.772 385.192 720.193 385.017C721.362 384.884 722.547 385.051 723.625 385.5ZM753.335 366.633L757.829 377.416H745.042V366.624L753.335 366.633ZM740.058 366.633V377.425H724.738V366.643L740.058 366.633ZM714.627 377.474V366.691H720.459V377.483L714.627 377.474Z" fill="white"/>
<path d="M769.636 392.387C769.761 392.078 769.83 391.751 769.84 391.42C769.817 390.579 769.469 389.776 768.864 389.162C768.258 388.547 767.435 388.163 766.552 388.083V388.083L766.245 388.035C765.387 388.044 764.563 388.351 763.927 388.896C763.46 389.273 763.108 389.76 762.905 390.308C762.757 390.665 762.678 391.045 762.671 391.429C762.689 391.76 762.761 392.087 762.885 392.396C763.065 392.987 763.42 393.517 763.906 393.924C764.546 394.462 765.37 394.761 766.225 394.766C766.322 394.766 766.419 394.749 766.511 394.717C767.219 394.672 767.896 394.426 768.454 394.01C769.012 393.594 769.424 393.028 769.636 392.387V392.387Z" fill="white"/>
<path d="M721.062 394.833C721.816 394.826 722.549 394.592 723.154 394.165C723.758 393.737 724.202 393.137 724.422 392.454C724.428 392.399 724.428 392.344 724.422 392.289V392.154C724.502 391.919 724.547 391.675 724.555 391.429C724.546 391.182 724.501 390.938 724.422 390.703L724.34 390.375C724.105 389.71 723.654 389.132 723.053 388.723C722.452 388.314 721.731 388.094 720.99 388.094C720.25 388.094 719.528 388.314 718.927 388.723C718.326 389.132 717.876 389.71 717.64 390.375C717.501 390.731 717.425 391.107 717.416 391.487C717.427 391.837 717.5 392.183 717.63 392.512C717.865 393.195 718.326 393.789 718.943 394.206C719.561 394.624 720.303 394.843 721.062 394.833V394.833Z" fill="white"/>
<path d="M68.0514 396.399L66.8054 396.447L66.2334 395.48C65.4696 393.582 63.9415 392.048 61.9847 391.216C61.0225 390.812 59.9851 390.594 58.933 390.574C57.8809 390.554 56.8351 390.733 55.8567 391.1L54.8353 391.457L54.0897 390.761C53.3557 390.053 52.4801 389.489 51.514 389.104C50.5479 388.719 49.5105 388.52 48.4622 388.518C46.7698 388.55 45.1296 389.079 43.7684 390.031C42.4072 390.984 41.3921 392.314 40.8635 393.836L40.4958 394.803H39.3417C38.2018 394.796 37.0988 395.186 36.2435 395.899C35.3882 396.613 34.8404 397.6 34.7048 398.671L34.6436 399.271L72.4329 399.194L71.9018 398.362C71.4897 397.751 70.9196 397.251 70.2458 396.907C69.572 396.564 68.8166 396.389 68.0514 396.399V396.399Z" fill="white"/>
<path d="M1445.76 395.443C1445.36 394.828 1444.8 394.321 1444.13 393.969C1443.46 393.617 1442.71 393.432 1441.95 393.431H1440.7L1440.13 392.464C1439.36 390.566 1437.84 389.031 1435.88 388.19C1434.92 387.786 1433.88 387.568 1432.83 387.55C1431.78 387.531 1430.73 387.713 1429.75 388.083L1428.73 388.441L1427.99 387.745C1427.1 386.906 1426.01 386.277 1424.82 385.908C1423.22 385.356 1421.46 385.356 1419.86 385.908C1418.67 386.307 1417.59 386.955 1416.71 387.804C1415.83 388.654 1415.16 389.681 1414.75 390.81L1414.37 391.835H1413.22C1412.07 391.833 1410.96 392.232 1410.11 392.955C1409.25 393.677 1408.71 394.673 1408.58 395.752L1408.51 396.352L1446.3 396.274L1445.76 395.443Z" fill="white"/>
<path d="M1337.87 395.463C1337.47 394.911 1336.92 394.46 1336.29 394.147C1335.66 393.834 1334.96 393.669 1334.25 393.664H1333L1332.43 392.697C1331.73 390.989 1330.4 389.578 1328.69 388.722C1326.97 387.866 1324.99 387.623 1323.11 388.036H1322.9C1322.61 388.099 1322.32 388.18 1322.04 388.278L1321.02 388.636L1320.29 387.939C1319.09 386.804 1317.55 386.056 1315.87 385.802C1315.17 385.675 1314.45 385.675 1313.74 385.802L1313.39 385.87C1312.52 386.007 1311.68 386.282 1310.91 386.682C1309.1 387.616 1307.73 389.148 1307.04 390.986L1306.66 392.011H1305.51C1304.42 392.017 1303.37 392.383 1302.54 393.045C1301.71 393.707 1301.15 394.624 1300.95 395.637C1300.91 395.73 1300.89 395.828 1300.87 395.927V396.517L1338.66 396.44L1338.11 395.608C1338.04 395.55 1337.96 395.501 1337.87 395.463V395.463Z" fill="white"/>
<path d="M1150.86 394.058H1149.61L1149.04 393.091C1148.66 392.151 1148.09 391.29 1147.36 390.56C1146.63 389.83 1145.75 389.244 1144.78 388.837C1143.82 388.428 1142.78 388.206 1141.73 388.184C1140.68 388.163 1139.63 388.342 1138.65 388.711L1137.63 389.078L1136.89 388.372C1136.15 387.66 1135.27 387.093 1134.3 386.706C1133.33 386.319 1132.29 386.12 1131.24 386.119C1129.55 386.15 1127.91 386.678 1126.55 387.629C1125.19 388.58 1124.17 389.907 1123.64 391.428L1123.27 392.453H1122.12C1121.97 392.456 1121.82 392.479 1121.67 392.521H1121.53C1120.61 392.602 1119.75 392.939 1119.03 393.488C1118.16 394.204 1117.61 395.206 1117.48 396.292L1117.41 396.892L1155.2 396.815L1154.66 395.983C1154.25 395.386 1153.68 394.897 1153.02 394.56C1152.35 394.224 1151.61 394.051 1150.86 394.058V394.058Z" fill="#DEE0E5"/>
<path d="M142.241 381.836C142.972 381.576 143.688 381.279 144.386 380.946L144.6 380.84C145.307 380.524 145.989 380.162 146.643 379.757C148.561 378.583 150.128 376.961 151.191 375.047C152.253 373.133 152.777 370.991 152.71 368.829C152.696 366.969 152.127 365.15 151.068 363.582C150.009 362.015 148.503 360.763 146.725 359.971L145.969 359.633L145.785 358.859C145.293 356.739 144.294 354.754 142.864 353.057C142.318 352.396 141.706 351.787 141.036 351.239L140.597 350.901C139.984 350.447 139.336 350.04 138.656 349.682C137.958 349.309 137.23 348.986 136.481 348.715C134.737 348.103 132.896 347.776 131.037 347.748C128.363 347.777 125.74 348.443 123.408 349.682C122.731 350.041 122.088 350.455 121.488 350.92C120.645 351.552 119.884 352.276 119.22 353.076C117.854 354.735 116.885 356.656 116.381 358.705L116.187 359.488L115.4 359.817C114.331 360.283 113.348 360.91 112.49 361.673C111.759 362.311 111.135 363.052 110.641 363.869C110.403 364.272 110.198 364.692 110.028 365.126C109.741 365.83 109.539 366.563 109.426 367.311C109.426 367.456 109.426 367.592 109.354 367.727C109.28 368.045 109.235 368.369 109.221 368.694C109.18 371.432 110.084 374.107 111.795 376.314C112.208 376.872 112.665 377.399 113.164 377.891C113.316 378.026 113.48 378.149 113.654 378.258C113.763 378.319 113.866 378.391 113.96 378.471C114.488 378.906 115.044 379.309 115.625 379.68C116.97 380.544 118.417 381.258 119.935 381.807C122.759 382.767 125.721 383.318 128.719 383.441H129.331V381.256V380.917L120.139 375.908C119.991 375.821 119.859 375.71 119.751 375.579C119.498 375.324 119.338 374.998 119.294 374.65C119.25 374.302 119.324 373.95 119.506 373.645C119.732 373.277 120.097 373.004 120.527 372.881C120.97 372.773 121.441 372.836 121.835 373.055L129.291 377.117V363.24C129.286 362.9 129.396 362.567 129.604 362.29C129.813 362.012 130.109 361.805 130.45 361.697C130.791 361.59 131.159 361.587 131.501 361.691C131.844 361.794 132.142 361.998 132.355 362.273C132.599 362.543 132.739 362.884 132.753 363.24V371.537L139.34 366.383C139.517 366.241 139.722 366.137 139.944 366.075C140.166 366.013 140.398 365.996 140.627 366.025C141.072 366.068 141.482 366.272 141.771 366.596C141.94 366.81 142.055 367.058 142.108 367.321C142.173 367.609 142.155 367.908 142.056 368.186C141.958 368.465 141.781 368.714 141.547 368.907L132.763 375.744V383.412H133.376C134.224 383.354 135.347 383.277 136.44 383.122C137.196 383.006 137.941 382.88 138.656 382.726C139.371 382.571 140.29 382.32 140.883 382.145C141.475 381.971 141.822 381.981 142.241 381.836Z" fill="white"/>
<path d="M1119.51 380.936L1120.1 380.83C1120.66 380.743 1121.22 380.646 1121.75 380.51C1122.36 380.343 1122.97 380.146 1123.56 379.921L1123.98 379.776C1125.58 379.24 1127.1 378.519 1128.51 377.629C1130.43 376.456 1131.99 374.835 1133.06 372.923C1134.12 371.01 1134.64 368.871 1134.58 366.711C1134.57 364.85 1134 363.031 1132.94 361.462C1131.88 359.893 1130.38 358.639 1128.6 357.843L1127.84 357.505L1127.65 356.731C1127.1 354.317 1125.88 352.083 1124.13 350.252C1123.45 349.532 1122.68 348.884 1121.85 348.318C1121.13 347.841 1120.37 347.424 1119.57 347.07C1118.14 346.444 1116.62 346.023 1115.05 345.823C1114.37 345.738 1113.69 345.693 1113.01 345.688H1112.78C1112.02 345.695 1111.27 345.757 1110.52 345.871C1109.87 345.962 1109.23 346.088 1108.61 346.248C1107.83 346.462 1107.07 346.727 1106.34 347.041C1105.55 347.393 1104.79 347.811 1104.07 348.289C1101.09 350.267 1099.01 353.243 1098.26 356.615L1098.06 357.408L1097.27 357.737C1095.43 358.48 1093.86 359.725 1092.77 361.313C1091.68 362.9 1091.11 364.759 1091.14 366.653C1091.11 368.358 1091.44 370.052 1092.12 371.631C1092.8 373.21 1093.81 374.642 1095.09 375.84C1097.7 378.137 1100.9 379.739 1104.38 380.481L1104.75 380.568C1105.36 380.741 1105.98 380.883 1106.6 380.994C1107.29 381.11 1107.99 381.187 1108.83 381.265C1109.42 381.332 1110.03 381.361 1110.64 381.4H1111.25V378.895L1102.06 373.877C1101.67 373.667 1101.38 373.32 1101.25 372.91C1101.19 372.703 1101.18 372.487 1101.2 372.274C1101.23 372.061 1101.31 371.856 1101.43 371.672C1101.65 371.302 1102.02 371.028 1102.45 370.908C1102.89 370.802 1103.36 370.861 1103.76 371.072L1111.22 375.143V361.237V361.054C1111.26 360.672 1111.45 360.319 1111.75 360.059C1112.05 359.799 1112.44 359.651 1112.84 359.642H1112.96C1113.29 359.656 1113.61 359.761 1113.88 359.943C1114.15 360.124 1114.36 360.376 1114.48 360.667C1114.56 360.856 1114.61 361.06 1114.61 361.266V369.573L1121.21 364.419C1121.36 364.299 1121.54 364.21 1121.73 364.158C1122 364.066 1122.3 364.043 1122.58 364.093C1122.87 364.142 1123.13 364.261 1123.35 364.438L1123.53 364.564L1123.64 364.632C1123.93 364.971 1124.07 365.405 1124.02 365.84C1123.98 366.275 1123.75 366.675 1123.39 366.953L1114.98 373.538L1114.62 373.78V381.458H1115.22C1116.66 381.373 1118.1 381.198 1119.51 380.936V380.936Z" fill="#F4F5F5"/>
<path d="M103.643 381.439C103.637 381.382 103.637 381.323 103.643 381.265C103.653 381.127 103.653 380.988 103.643 380.85C103.646 379.808 103.349 378.785 102.785 377.89C102.177 376.915 101.302 376.113 100.252 375.57C100.161 375.509 100.065 375.454 99.9662 375.405L99.2104 375.067L99.0163 374.293C98.5687 372.283 97.3923 370.484 95.691 369.209C93.9898 367.934 91.871 367.262 89.7018 367.311C87.5567 367.281 85.4662 367.952 83.7812 369.209C82.0963 370.466 80.9195 372.234 80.4485 374.216L80.2442 375.009L79.468 375.337C78.9701 375.547 78.5032 375.817 78.079 376.14C77.3404 376.693 76.7462 377.399 76.3423 378.204C75.9385 379.009 75.7359 379.891 75.7503 380.782C75.7273 381.827 75.925 382.865 76.3319 383.837C76.7388 384.808 77.3467 385.693 78.1198 386.439L78.222 386.545C78.883 387.168 79.6282 387.704 80.4383 388.141C81.1642 388.529 81.9266 388.853 82.7158 389.108C84.2383 389.621 85.8242 389.946 87.4344 390.075L88.0676 390.133V387.919L82.2052 384.708C81.8387 384.478 81.5787 384.124 81.4782 383.719C81.3778 383.314 81.4445 382.887 81.6648 382.527C81.885 382.167 82.2422 381.9 82.6634 381.78C83.0846 381.661 83.538 381.698 83.9312 381.884L88.0166 384.137V375.782C88.05 375.372 88.2458 374.988 88.5648 374.709C88.8839 374.429 89.3027 374.274 89.7375 374.274C90.1723 374.274 90.5911 374.429 90.9102 374.709C91.2292 374.988 91.425 375.372 91.4585 375.782V380.202L94.9821 377.475C95.1514 377.332 95.3512 377.225 95.568 377.162C95.7847 377.098 96.0133 377.08 96.2383 377.107C96.4645 377.126 96.6843 377.187 96.8844 377.289C97.0846 377.39 97.2609 377.529 97.4026 377.697C97.5305 377.846 97.6275 378.017 97.6886 378.2C97.7949 378.514 97.7949 378.852 97.6886 379.167C97.6079 379.469 97.4336 379.742 97.1881 379.95L91.5095 384.379V390.123L92.1427 390.065C99.1185 389.485 103.306 386.284 103.643 381.439Z" fill="white"/>
<path d="M1291.99 386.014C1292.57 385.762 1293.14 385.468 1293.67 385.135C1294.69 384.476 1295.54 383.622 1296.18 382.63C1297.05 381.322 1297.5 379.809 1297.48 378.269C1297.47 377.298 1297.21 376.344 1296.72 375.493C1296.08 374.327 1295.06 373.39 1293.81 372.824L1293.05 372.486L1292.87 371.702C1292.71 371.079 1292.49 370.471 1292.22 369.884C1291.46 368.32 1290.23 366.999 1288.69 366.083C1287.15 365.168 1285.36 364.698 1283.54 364.73C1282.74 364.737 1281.95 364.834 1281.18 365.02C1280.33 365.217 1279.51 365.527 1278.74 365.939C1277.08 366.816 1275.75 368.17 1274.95 369.807C1274.67 370.395 1274.45 371.007 1274.29 371.635L1274.09 372.418L1273.3 372.747C1273.13 372.828 1272.98 372.918 1272.83 373.018L1272.63 373.134C1271.6 373.697 1270.76 374.534 1270.22 375.542C1269.76 376.368 1269.52 377.286 1269.51 378.22C1269.48 379.296 1269.69 380.365 1270.12 381.363C1270.55 382.36 1271.18 383.265 1271.99 384.022C1272.33 384.325 1272.69 384.597 1273.08 384.835L1273.37 385.028C1275.05 386.124 1276.96 386.872 1278.98 387.223C1279.71 387.366 1280.45 387.467 1281.2 387.523L1281.83 387.581V385.367L1275.91 382.117L1275.76 381.982C1275.44 381.746 1275.22 381.409 1275.14 381.033C1275.06 380.656 1275.13 380.265 1275.33 379.932C1275.44 379.745 1275.59 379.581 1275.77 379.449C1275.95 379.317 1276.16 379.221 1276.38 379.165C1276.6 379.109 1276.83 379.095 1277.05 379.124C1277.28 379.153 1277.49 379.224 1277.69 379.332L1281.77 381.586V373.23C1281.78 373.129 1281.8 373.028 1281.84 372.931L1281.89 372.747C1281.98 372.431 1282.18 372.15 1282.45 371.941C1282.71 371.732 1283.04 371.605 1283.39 371.577H1283.58C1284.02 371.596 1284.43 371.773 1284.74 372.071C1285.04 372.37 1285.22 372.767 1285.23 373.182V377.601L1288.71 374.874C1289.05 374.602 1289.5 374.467 1289.95 374.5C1290.39 374.532 1290.81 374.729 1291.11 375.048L1291.2 375.222C1291.34 375.403 1291.43 375.612 1291.47 375.832C1291.53 376.116 1291.52 376.413 1291.42 376.689C1291.32 376.965 1291.14 377.211 1290.9 377.398L1285.24 381.837V387.552L1285.87 387.494C1287.98 387.332 1290.05 386.832 1291.99 386.014V386.014Z" fill="white"/>
<path d="M936.257 394.584C935.953 394.489 935.636 394.44 935.317 394.439V394.439L934.02 394.506L933.489 393.404C933.224 392.72 932.816 392.093 932.289 391.561C931.763 391.03 931.129 390.604 930.425 390.309C929.725 390.015 928.97 389.858 928.205 389.848C927.439 389.838 926.68 389.975 925.972 390.251L924.95 390.638L924.164 389.874C923.479 389.24 922.634 388.784 921.709 388.549C920.785 388.313 919.812 388.307 918.884 388.53C917.91 388.73 917.006 389.164 916.259 389.788C915.511 390.413 914.945 391.208 914.614 392.098L914.216 393.201H912.98C912.566 393.198 912.156 393.273 911.773 393.421C911.389 393.569 911.041 393.787 910.746 394.063C910.452 394.339 910.218 394.667 910.059 395.028C909.899 395.39 909.816 395.778 909.814 396.169C909.814 396.295 909.814 396.527 909.814 396.808V397.32L938.412 397.262L938.248 396.595C938.126 396.126 937.879 395.695 937.53 395.343C937.182 394.99 936.743 394.729 936.257 394.584V394.584Z" fill="white"/>
<path d="M840.731 393.991L839.393 394.04L838.76 392.966C838.303 391.851 837.607 390.837 836.717 389.988C835.434 388.774 833.823 387.918 832.06 387.512C830.272 387.132 828.405 387.267 826.698 387.899L825.677 388.286L824.87 387.532C823.493 386.142 821.65 385.246 819.654 384.995C817.659 384.745 815.633 385.156 813.921 386.159C813.049 386.621 812.265 387.22 811.603 387.928C810.701 388.836 810.006 389.909 809.56 391.081L809.172 392.164H807.415C806.118 392.276 804.907 392.826 804.003 393.714C803.099 394.602 802.563 395.768 802.492 396.999V397.57L845.858 397.483L845.429 396.69C844.986 395.873 844.312 395.188 843.483 394.712C842.654 394.236 841.701 393.986 840.731 393.991V393.991Z" fill="white"/>
<path d="M875.681 383.287L875.558 382.852L875.742 383.258C879.674 381.721 882.207 377.089 882.187 371.432C882.187 363.695 878.816 351.955 875.936 346.995C875.048 345.457 874.22 344.596 873.373 344.345C873.244 344.291 873.105 344.262 872.964 344.258C872.198 344.258 871.422 344.857 870.585 346.076C867.612 350.418 863.854 363.241 863.874 371.47C863.874 377.185 866.479 381.837 870.482 383.307L871.269 383.597L871.208 360.388C871.213 360.037 871.338 359.698 871.565 359.421C871.718 359.208 871.923 359.034 872.164 358.914C872.404 358.795 872.672 358.733 872.944 358.734V358.734H873.148C873.552 358.783 873.923 358.969 874.193 359.257C874.463 359.545 874.615 359.916 874.619 360.301L874.68 383.51L875.446 383.258L875.681 383.287Z" fill="white"/>
<path d="M905.595 376.778C905.487 373.494 904.997 370.232 904.135 367.05C903.951 366.305 903.746 365.57 903.532 364.845C903.246 363.878 902.919 362.911 902.603 361.944C902.286 360.977 902.02 360.406 901.724 359.739C900.192 356.248 899.181 355.938 898.854 355.871L898.67 355.822L898.487 355.88C895.739 356.77 891.981 369.999 892.001 376.817C892.001 380.743 893.605 384.05 896.178 385.443L897.036 385.907V368.152C897.036 367.937 897.081 367.725 897.168 367.527C897.254 367.328 897.382 367.148 897.542 366.996C897.702 366.845 897.892 366.724 898.102 366.642C898.311 366.56 898.536 366.518 898.762 366.518C898.956 366.521 899.147 366.56 899.324 366.634C899.654 366.751 899.94 366.957 900.147 367.227C900.354 367.497 900.473 367.819 900.488 368.152V385.916L901.336 385.481C903.971 384.108 905.605 380.781 905.595 376.778Z" fill="white"/>
<path d="M1254.8 383.065H1250.11V380.541H1254.2L1254.78 380.415V379.864L1250.7 371.944L1246.25 363.512H1229.74V386.498H1235.7L1235.86 386.392C1237.2 385.468 1238.82 384.97 1240.49 384.97C1242.15 384.97 1243.77 385.468 1245.12 386.392L1245.37 386.498H1254.77L1254.8 383.065ZM1235.52 377.495V366.858H1243.11L1248.55 377.495H1235.52Z" fill="white"/>
<path d="M1226.25 354.537L1170.54 354.653L1170.6 380.763H1174.83V383.287H1170.6V386.701H1181.84L1181.99 386.594C1183.33 385.659 1184.96 385.154 1186.63 385.154C1188.3 385.154 1189.93 385.659 1191.27 386.594L1191.43 386.701L1226.31 386.623L1226.25 354.537Z" fill="#FCFCFD"/>
<path d="M1240.53 388.228C1239.37 388.278 1238.26 388.739 1237.44 389.521C1236.61 390.304 1236.13 391.35 1236.08 392.454C1236.06 392.533 1236.06 392.616 1236.08 392.696C1236.15 393.699 1236.6 394.644 1237.36 395.355C1238.11 396.066 1239.1 396.496 1240.16 396.564C1240.27 396.579 1240.38 396.579 1240.49 396.564C1240.6 396.563 1240.71 396.543 1240.82 396.506C1241.88 396.442 1242.88 396.014 1243.63 395.302C1244.38 394.59 1244.84 393.642 1244.9 392.638V392.367C1244.85 391.264 1244.36 390.22 1243.54 389.441C1242.71 388.662 1241.61 388.205 1240.44 388.16L1240.53 388.228Z" fill="white"/>
<path d="M1186.65 388.326C1185.48 388.376 1184.38 388.838 1183.56 389.62C1182.73 390.403 1182.25 391.449 1182.2 392.552C1182.18 392.638 1182.18 392.727 1182.2 392.813C1182.28 393.87 1182.78 394.859 1183.59 395.582C1184.41 396.305 1185.49 396.707 1186.61 396.707C1187.72 396.707 1188.8 396.305 1189.62 395.582C1190.43 394.859 1190.93 393.87 1191.01 392.813V392.533C1190.96 391.429 1190.47 390.384 1189.64 389.604C1188.82 388.825 1187.71 388.369 1186.54 388.326H1186.65Z" fill="white"/>
<path d="M1204.56 393.258V399.331H1208.88L1208.87 393.258H1204.56Z" fill="white"/>
<path d="M1119.05 385.551C1117.67 385.756 1116.27 385.895 1114.87 385.967V393.045C1115.89 391.662 1117.36 390.626 1119.05 390.086V385.551Z" fill="white"/>
<path d="M691.004 182.463H661.436V188.429H691.004V182.463Z" fill="black" fill-opacity="0.3"/>
<path d="M294.819 271.381H287.139V279.224H294.819V271.381Z" fill="black" fill-opacity="0.3"/>
<path d="M309.852 271.381H302.172V279.224H309.852V271.381Z" fill="black" fill-opacity="0.3"/>
<path d="M294.819 285.75H287.139V293.593H294.819V285.75Z" fill="black" fill-opacity="0.3"/>
<path d="M309.852 285.75H302.172V293.593H309.852V285.75Z" fill="black" fill-opacity="0.3"/>
<path d="M309.852 300.121H302.172V307.964H309.852V300.121Z" fill="black" fill-opacity="0.3"/>
<path d="M309.852 314.492H302.172V322.335H309.852V314.492Z" fill="black" fill-opacity="0.3"/>
<path d="M309.852 328.863H302.172V336.706H309.852V328.863Z" fill="black" fill-opacity="0.3"/>
<path d="M1234.26 272.154H1226.58V279.997H1234.26V272.154Z" fill="black" fill-opacity="0.3"/>
<path d="M1249.3 272.145H1241.62V279.987H1249.3V272.145Z" fill="black" fill-opacity="0.3"/>
<path d="M1264.33 272.154H1256.65V279.997H1264.33V272.154Z" fill="black" fill-opacity="0.3"/>
<path d="M1234.26 286.535H1226.58V294.378H1234.26V286.535Z" fill="black" fill-opacity="0.3"/>
<path d="M1249.91 285.285L1242.23 285.293L1242.24 293.136L1249.92 293.128L1249.91 285.285Z" fill="black" fill-opacity="0.3"/>
<path d="M1264.95 285.233L1257.27 285.24L1257.28 293.083L1264.96 293.075L1264.95 285.233Z" fill="black" fill-opacity="0.3"/>
<path d="M1234.25 300.904H1226.57V308.747H1234.25V300.904Z" fill="black" fill-opacity="0.3"/>
<path d="M1234.91 314.051L1227.23 314.059L1227.24 321.901L1234.92 321.894L1234.91 314.051Z" fill="black" fill-opacity="0.3"/>
<path d="M1234.25 329.645H1226.57V337.487H1234.25V329.645Z" fill="black" fill-opacity="0.3"/>
<path d="M1234.93 342.789L1227.25 342.797L1227.26 350.64L1234.94 350.632L1234.93 342.789Z" fill="black" fill-opacity="0.3"/>
<path d="M143.773 276.951H97.8743V282.26H143.773V276.951Z" fill="black" fill-opacity="0.3"/>
<path d="M143.773 290.916H97.8743V296.225H143.773V290.916Z" fill="black" fill-opacity="0.3"/>
<path d="M1186.84 241.094H1136.58V252.012H1186.84V241.094ZM1182.48 247.863H1140.94V245.213H1182.48V247.863Z" fill="black" fill-opacity="0.3"/>
<path d="M1186.84 258.936H1136.58V269.853H1186.84V258.936ZM1182.48 265.705H1140.94V263.065H1182.48V265.705Z" fill="black" fill-opacity="0.3"/>
<path d="M1186.84 276.719H1136.58V287.637H1186.84V276.719ZM1182.48 283.488H1140.94V280.838H1182.48V283.488Z" fill="black" fill-opacity="0.3"/>
<path d="M1186.84 294.543H1136.58V305.461H1186.84V294.543ZM1182.48 301.312H1140.94V298.663H1182.48V301.312Z" fill="black" fill-opacity="0.3"/>
<path d="M1186.84 312.355H1136.58V323.273H1186.84V312.355ZM1182.48 319.125H1140.94V316.485H1182.48V319.125Z" fill="black" fill-opacity="0.3"/>
<path d="M1186.84 330.168H1136.58V341.134H1186.84V330.168ZM1182.48 336.937H1140.94V334.288H1182.48V336.937Z" fill="black" fill-opacity="0.3"/>
<path d="M906.107 242.051H899.151V249.255H906.107V242.051Z" fill="black" fill-opacity="0.3"/>
<path d="M921.59 242.051H914.635V249.255H921.59V242.051Z" fill="black" fill-opacity="0.3"/>
<path d="M937.073 242.051H930.118V249.255H937.073V242.051Z" fill="black" fill-opacity="0.3"/>
<path d="M906.107 255.193H899.151V262.398H906.107V255.193Z" fill="black" fill-opacity="0.3"/>
<path d="M921.59 255.193H914.635V262.398H921.59V255.193Z" fill="black" fill-opacity="0.3"/>
<path d="M937.073 255.193H930.118V262.398H937.073V255.193Z" fill="black" fill-opacity="0.3"/>
<path d="M906.107 268.324H899.151V275.529H906.107V268.324Z" fill="black" fill-opacity="0.3"/>
<path d="M921.59 268.324H914.635V275.529H921.59V268.324Z" fill="black" fill-opacity="0.3"/>
<path d="M937.073 268.324H930.118V275.529H937.073V268.324Z" fill="black" fill-opacity="0.3"/>
<path d="M906.107 281.467H899.151V288.671H906.107V281.467Z" fill="black" fill-opacity="0.3"/>
<path d="M921.59 281.467H914.635V288.671H921.59V281.467Z" fill="black" fill-opacity="0.3"/>
<path d="M937.073 281.467H930.118V288.671H937.073V281.467Z" fill="black" fill-opacity="0.3"/>
<path d="M906.107 294.6H899.151V301.804H906.107V294.6Z" fill="black" fill-opacity="0.3"/>
<path d="M921.59 294.6H914.635V301.804H921.59V294.6Z" fill="black" fill-opacity="0.3"/>
<path d="M937.073 294.6H930.118V301.804H937.073V294.6Z" fill="black" fill-opacity="0.3"/>
<path d="M906.107 307.73H899.151V314.935H906.107V307.73Z" fill="black" fill-opacity="0.3"/>
<path d="M921.59 307.73H914.635V314.935H921.59V307.73Z" fill="black" fill-opacity="0.3"/>
<path d="M937.073 307.73H930.118V314.935H937.073V307.73Z" fill="black" fill-opacity="0.3"/>
<path d="M906.107 320.875H899.151V328.079H906.107V320.875Z" fill="black" fill-opacity="0.3"/>
<path d="M921.59 320.875H914.635V328.079H921.59V320.875Z" fill="black" fill-opacity="0.3"/>
<path d="M937.073 320.875H930.118V328.079H937.073V320.875Z" fill="black" fill-opacity="0.3"/>
<path d="M906.107 334.006H899.151V341.21H906.107V334.006Z" fill="black" fill-opacity="0.3"/>
<path d="M921.59 334.006H914.635V341.21H921.59V334.006Z" fill="black" fill-opacity="0.3"/>
<path d="M937.073 334.006H930.118V341.21H937.073V334.006Z" fill="black" fill-opacity="0.3"/>
<path d="M921.59 347.139H914.635V354.343H921.59V347.139Z" fill="black" fill-opacity="0.3"/>
<path d="M937.073 347.139H930.118V354.343H937.073V347.139Z" fill="black" fill-opacity="0.3"/>
<path d="M921.59 360.281H914.635V367.486H921.59V360.281Z" fill="black" fill-opacity="0.3"/>
<path d="M691.004 197.285H661.436V203.252H691.004V197.285Z" fill="black" fill-opacity="0.3"/>
<path d="M397.217 244.314H353.442V250.803H397.217V244.314Z" fill="black" fill-opacity="0.3"/>
<path d="M448.283 244.314H404.478V250.803H448.283V244.314Z" fill="black" fill-opacity="0.3"/>
<path d="M397.217 261.383H353.442V267.872H397.217V261.383Z" fill="black" fill-opacity="0.3"/>
<path d="M448.283 261.383H404.478V267.872H448.283V261.383Z" fill="black" fill-opacity="0.3"/>
<path d="M397.217 278.422H353.442V284.94H397.217V278.422Z" fill="black" fill-opacity="0.3"/>
<path d="M448.283 278.422H404.478V284.94H448.283V278.422Z" fill="black" fill-opacity="0.3"/>
<path d="M397.217 295.5H353.442V301.989H397.217V295.5Z" fill="black" fill-opacity="0.3"/>
<path d="M448.283 295.5H404.478V301.989H448.283V295.5Z" fill="black" fill-opacity="0.3"/>
<path d="M397.217 312.566H353.442V319.055H397.217V312.566Z" fill="black" fill-opacity="0.3"/>
<path d="M448.283 312.566H404.478V319.055H448.283V312.566Z" fill="black" fill-opacity="0.3"/>
<path d="M397.217 329.637H353.442V336.126H397.217V329.637Z" fill="black" fill-opacity="0.3"/>
<path d="M448.283 329.637H404.478V336.126H448.283V329.637Z" fill="black" fill-opacity="0.3"/>
<path d="M397.217 346.676H353.442V353.194H397.217V346.676Z" fill="black" fill-opacity="0.3"/>
<path d="M448.283 346.676H404.478V353.194H448.283V346.676Z" fill="black" fill-opacity="0.3"/>
<path d="M980.808 327.411H998.692V313.379H980.808V327.411ZM985.18 317.508H994.372V323.31H985.18V317.508Z" fill="black" fill-opacity="0.3"/>
<path d="M1021.93 313.379H1007.26V327.411H1025.15V313.379H1021.93ZM1020.78 323.272H1011.59V317.47H1020.78V323.272Z" fill="black" fill-opacity="0.3"/>
<path d="M980.808 345.543H998.692V331.512H980.808V345.543ZM985.18 335.651H994.372V341.453H985.18V335.651Z" fill="black" fill-opacity="0.3"/>
<path d="M1021.93 331.512H1007.26V345.543H1025.15V331.512H1021.93ZM1020.78 341.414H1011.59V335.612H1020.78V341.414Z" fill="black" fill-opacity="0.3"/>
<path d="M1021.93 349.652H1007.26V363.684H1025.15V349.652H1021.93ZM1020.78 359.506H1011.59V353.753H1020.78V359.506Z" fill="black" fill-opacity="0.3"/>
<path d="M1021.93 367.795H1007.26V381.827H1025.15V367.795H1021.93ZM1020.78 377.688H1011.59V371.934H1020.78V377.688Z" fill="black" fill-opacity="0.3"/>
<path d="M1053.62 313.379H1046.61V327.411H1064.5V313.379H1053.62ZM1060.13 323.272H1050.94V317.47H1060.13V323.272Z" fill="black" fill-opacity="0.3"/>
<path d="M1089.66 327.411H1090.95V313.379H1073.06V327.411H1089.66ZM1086.6 323.272H1077.4V317.47H1086.6V323.272Z" fill="black" fill-opacity="0.3"/>
<path d="M1053.62 331.512H1046.61V345.543H1064.5V331.512H1053.62ZM1060.13 341.414H1050.94V335.612H1060.13V341.414Z" fill="black" fill-opacity="0.3"/>
<path d="M1090.95 334.78V331.512H1073.06V345.543H1090.95V334.78ZM1086.58 341.414H1077.38V335.612H1086.58V341.414Z" fill="black" fill-opacity="0.3"/>
<path d="M1046.61 363.684H1064.5V349.652H1046.61V363.684ZM1050.98 353.791H1060.18V359.506H1050.98V353.791Z" fill="black" fill-opacity="0.3"/>
<path d="M1046.61 381.827H1064.5V367.795H1046.61V381.827ZM1050.98 371.934H1060.18V377.688H1050.98V371.934Z" fill="black" fill-opacity="0.3"/>
<path d="M959.44 370.58H952.811V390.617H966.089V370.58H959.44ZM961.707 386.488H957.183V374.709H961.707V386.488Z" fill="black" fill-opacity="0.3"/>
<path d="M969.358 370.58V390.617H982.635V370.58H969.358ZM978.233 386.488H973.719V374.709H978.233V386.488Z" fill="black" fill-opacity="0.3"/>
<path d="M824.655 297.529V304.511H831.58H832.019V297.529H831.58H824.655Z" fill="black" fill-opacity="0.3"/>
<path d="M846.431 297.529H839.067V304.502H846.431V297.529Z" fill="black" fill-opacity="0.3"/>
<path d="M856.786 304.511H858.972H860.851V297.529H858.972H856.786H854.6H853.487V304.511H854.6H856.786Z" fill="black" fill-opacity="0.3"/>
<path d="M824.655 310.314V317.296H831.58H832.019V310.314H831.58H824.655Z" fill="black" fill-opacity="0.3"/>
<path d="M846.431 310.324H839.067V317.297H846.431V310.324Z" fill="black" fill-opacity="0.3"/>
<path d="M856.786 317.296H858.972H860.851V310.314H858.972H856.786H854.6H853.487V317.296H854.6H856.786Z" fill="black" fill-opacity="0.3"/>
<path d="M824.655 323.107V330.08H831.58H832.019V323.107H831.58H824.655Z" fill="black" fill-opacity="0.3"/>
<path d="M846.431 323.107H839.067V330.08H846.431V323.107Z" fill="black" fill-opacity="0.3"/>
<path d="M856.786 330.08H858.972H860.851V323.107H858.972H856.786H854.6H853.487V330.08H854.6H856.786Z" fill="black" fill-opacity="0.3"/>
<path d="M824.655 335.891V342.863H831.58H832.019V335.891H831.58H824.655Z" fill="black" fill-opacity="0.3"/>
<path d="M846.431 335.891H839.067V342.863H846.431V335.891Z" fill="black" fill-opacity="0.3"/>
<path d="M856.786 342.863H858.972H860.851V335.891H858.972H856.786H854.6H853.487V342.863H854.6H856.786Z" fill="black" fill-opacity="0.3"/>
<path d="M824.655 348.676V355.648H831.58H832.019V348.676H831.58H824.655Z" fill="black" fill-opacity="0.3"/>
<path d="M846.431 348.676H839.067V355.648H846.431V348.676Z" fill="black" fill-opacity="0.3"/>
<path d="M856.786 355.648H858.972H860.851V348.676H858.972H856.786H854.6H853.487V355.648H854.6H856.786Z" fill="black" fill-opacity="0.3"/>
<path d="M824.655 361.461V368.433H831.58H832.019V361.461H831.58H824.655Z" fill="black" fill-opacity="0.3"/>
<path d="M846.431 361.461H839.067V368.433H846.431V361.461Z" fill="black" fill-opacity="0.3"/>
<path d="M595.02 287.996H609.982V277.039H595.02V287.996ZM599.381 281.168H605.652V283.857H599.411L599.381 281.168Z" fill="black" fill-opacity="0.3"/>
<path d="M624.3 287.996H639.262V277.039H624.3V287.996ZM628.671 281.168H634.901V283.857H628.671V281.168Z" fill="black" fill-opacity="0.3"/>
<path d="M595.02 308.07H609.982V297.113H595.02V308.07ZM599.381 301.301H605.652V303.989H599.411L599.381 301.301Z" fill="black" fill-opacity="0.3"/>
<path d="M624.3 308.07H639.262V297.113H624.3V308.07ZM628.671 301.301H634.901V303.989H628.671V301.301Z" fill="black" fill-opacity="0.3"/>
<path d="M595.02 328.156H609.982V317.199H595.02V328.156ZM599.381 321.328H605.652V324.017H599.411L599.381 321.328Z" fill="black" fill-opacity="0.3"/>
<path d="M624.3 328.156H639.262V317.199H624.3V328.156ZM628.671 321.328H634.901V324.017H628.671V321.328Z" fill="black" fill-opacity="0.3"/>
<path d="M595.02 348.232H609.982V337.266H595.02V348.232ZM599.381 341.414H605.652V344.103H599.411L599.381 341.414Z" fill="black" fill-opacity="0.3"/>
<path d="M624.3 348.232H639.262V337.266H624.3V348.232ZM628.671 341.414H634.901V344.103H628.671V341.414Z" fill="black" fill-opacity="0.3"/>
<path d="M624.3 368.316H639.262V357.359H624.3V368.316ZM628.671 361.489H634.901V364.177H628.671V361.489Z" fill="black" fill-opacity="0.3"/>
<path d="M624.3 388.392H639.262V377.436H624.3V388.392ZM628.671 381.623H634.901V384.311H628.671V381.623Z" fill="black" fill-opacity="0.3"/>
<path d="M682.833 287.996V277.039H667.86V287.996H682.833V287.996ZM678.462 283.857H672.232V281.178H678.462V283.857Z" fill="black" fill-opacity="0.3"/>
<path d="M700.094 287.996H712.115V277.039H697.153V287.996H700.094V287.996ZM701.514 281.168H707.785V283.857H701.545L701.514 281.168Z" fill="black" fill-opacity="0.3"/>
<path d="M682.833 308.07V297.113H667.86V308.07H682.833V308.07ZM678.462 302.268V303.96H672.232V301.272H678.462V302.268Z" fill="black" fill-opacity="0.3"/>
<path d="M700.094 308.07H712.115V297.113H697.153V308.07H700.094V308.07ZM701.514 301.301H707.785V303.989H701.545L701.514 301.301Z" fill="black" fill-opacity="0.3"/>
<path d="M1281.12 318.342H1281.14L1281.13 310.422H1281.11H1278.81L1270.31 310.432L1270.32 318.352L1278.82 318.342H1281.12Z" fill="black" fill-opacity="0.3"/>
<path d="M1302.3 310.396L1291.49 310.406L1291.49 318.326L1302.31 318.316L1302.3 310.396Z" fill="black" fill-opacity="0.3"/>
<path d="M1281.14 332.856H1281.16L1281.15 324.936H1281.13H1278.83L1270.33 324.945L1270.34 332.865L1278.83 332.856H1281.14Z" fill="black" fill-opacity="0.3"/>
<path d="M1302.32 324.901L1291.5 324.912L1291.51 332.832L1302.33 332.821L1302.32 324.901Z" fill="black" fill-opacity="0.3"/>
<path d="M1281.14 339.451H1278.84L1270.34 339.461L1270.36 347.381L1278.85 347.371H1281.15H1281.17L1281.16 339.451H1281.14Z" fill="black" fill-opacity="0.3"/>
<path d="M1302.33 339.415L1291.52 339.426L1291.53 347.346L1302.34 347.335L1302.33 339.415Z" fill="black" fill-opacity="0.3"/>
<path d="M1302.35 353.931L1291.53 353.941L1291.54 361.861L1302.36 361.851L1302.35 353.931Z" fill="black" fill-opacity="0.3"/>
<path d="M1333.79 310.355L1322.97 310.365L1322.98 318.285L1333.8 318.275L1333.79 310.355Z" fill="black" fill-opacity="0.3"/>
<path d="M1354.95 310.343L1344.14 310.354L1344.14 318.274L1354.96 318.263L1354.95 310.343Z" fill="black" fill-opacity="0.3"/>
<path d="M1333.8 324.87L1322.99 324.881L1323 332.801L1333.81 332.79L1333.8 324.87Z" fill="black" fill-opacity="0.3"/>
<path d="M1354.97 324.849L1344.15 324.859L1344.16 332.779L1354.98 332.769L1354.97 324.849Z" fill="black" fill-opacity="0.3"/>
<path d="M1333.82 339.384L1323.01 339.395L1323.01 347.315L1333.83 347.304L1333.82 339.384Z" fill="black" fill-opacity="0.3"/>
<path d="M1354.98 339.364L1344.17 339.375L1344.18 347.295L1354.99 347.284L1354.98 339.364Z" fill="black" fill-opacity="0.3"/>
<path d="M326.001 369.633H314.49V391.971H330.913V369.633H326.011H326.001ZM326.532 387.832H318.862V373.762H326.532V387.832Z" fill="black" fill-opacity="0.3"/>
<path d="M335.764 369.633H333.916V391.971H357.876V369.633H335.764ZM338.287 373.762H353.505V387.832H338.287V373.762Z" fill="black" fill-opacity="0.3"/>
<path d="M483.683 392.667H496.644V373.326H483.683V392.667ZM488.055 377.426H492.283V388.518H488.055V377.426Z" fill="black" fill-opacity="0.3"/>
<path d="M504.264 373.287H499.862V392.628H512.812V373.287H504.264ZM508.451 388.537H504.233V377.426H508.451V388.537Z" fill="black" fill-opacity="0.3"/>
<path d="M568.77 373.287H563.775V392.628H576.736V373.287H568.79H568.77ZM572.355 388.518H568.116V377.426H572.355V388.518Z" fill="black" fill-opacity="0.3"/>
<path d="M579.933 392.667H592.884V373.326H579.933V392.667ZM584.294 377.426H588.523V388.518H584.294V377.426Z" fill="black" fill-opacity="0.3"/>
<path d="M531.39 373.287H523.873V392.628H536.691V373.287H531.39V373.287ZM532.33 388.537H528.245V377.426H532.33V388.537Z" fill="black" fill-opacity="0.3"/>
<path d="M544.953 373.287H539.846V392.628H552.654V373.287H544.932H544.953ZM548.303 388.518H544.217V377.426H548.303V388.518Z" fill="black" fill-opacity="0.3"/>
<path d="M1379.82 371.354H1354.83V390.559H1381.5V371.354H1379.82ZM1359.39 386.227V375.734H1364.61V386.236L1359.39 386.227ZM1375.18 386.227H1371.65V375.725H1376.86V386.217L1375.18 386.227Z" fill="black" fill-opacity="0.3"/>
<path d="M670.046 342.574H663.663V355.3H677.145V342.574H670.077H670.046ZM672.743 346.723V351.171H668.034V346.723H672.743Z" fill="black" fill-opacity="0.3"/>
<path d="M663.663 358.328V371.112H677.145V358.328H663.663ZM668.034 362.467H672.743V366.925H668.034V362.467Z" fill="black" fill-opacity="0.3"/>
<path d="M663.663 386.816H677.145V374.09H663.663V386.816ZM668.034 378.219H672.743V382.716H668.034V378.219Z" fill="black" fill-opacity="0.3"/>
<path d="M697.152 342.574H684.896V355.3H698.347V342.574H697.162H697.152ZM693.966 351.171H689.257V346.713H693.966V351.171Z" fill="black" fill-opacity="0.3"/>
<path d="M697.152 358.328H684.896V371.112H698.347V358.328H697.162H697.152ZM693.966 366.925H689.257V362.467H693.966V366.925Z" fill="black" fill-opacity="0.3"/>
<path d="M695.528 374.09H684.886V386.816H698.337V374.09H695.528ZM693.996 382.677H689.288V378.219H693.996V382.677Z" fill="black" fill-opacity="0.3"/>
<path d="M748.565 342.574V355.3H762.006V342.574H748.565ZM757.645 351.171H752.926V346.713H757.645V351.171Z" fill="black" fill-opacity="0.3"/>
<path d="M709.929 342.574H706.119V355.3H719.56V342.574H709.929ZM715.189 351.171H710.48V346.713H715.189V351.171Z" fill="black" fill-opacity="0.3"/>
<path d="M727.342 342.574V355.3H740.783V342.574H727.342ZM731.703 346.713H736.381V351.171H731.662L731.703 346.713Z" fill="black" fill-opacity="0.3"/>
<path d="M769.79 355.3H783.231V342.574H769.79V355.3ZM774.161 346.713H778.87V351.171H774.172L774.161 346.713Z" fill="black" fill-opacity="0.3"/>
<path d="M769.79 371.112H783.231V358.328H769.79V371.112ZM774.161 362.515H778.87V366.973H774.172L774.161 362.515Z" fill="black" fill-opacity="0.3"/>
<path d="M174.648 313.379H159.583V327.411H177.477V313.379H174.648ZM173.095 323.272H163.903V317.47H173.095V323.272Z" fill="black" fill-opacity="0.3"/>
<path d="M201.785 313.379H186.036V327.411H203.93V313.379H201.785V313.379ZM199.558 323.272H190.366V317.47H199.558V323.272Z" fill="black" fill-opacity="0.3"/>
<path d="M174.648 331.512H159.583V345.543H177.477V331.512H174.648ZM173.095 341.414H163.903V335.612H173.095V341.414Z" fill="black" fill-opacity="0.3"/>
<path d="M201.785 331.512H186.036V345.543H203.93V331.512H201.785V331.512ZM199.558 341.414H190.366V335.612H199.558V341.414Z" fill="black" fill-opacity="0.3"/>
<path d="M174.648 349.652H159.583V363.684H177.477V349.652H174.648ZM173.106 359.506H163.914V353.753H173.106V359.506Z" fill="black" fill-opacity="0.3"/>
<path d="M201.785 349.652H186.036V363.684H203.93V349.652H201.785V349.652ZM199.558 359.506H190.366V353.753H199.558V359.506Z" fill="black" fill-opacity="0.3"/>
<path d="M174.648 367.795H159.583V381.827H177.477V367.795H174.648ZM173.095 377.688H163.903V371.934H173.095V377.688Z" fill="black" fill-opacity="0.3"/>
<path d="M186.036 381.827H203.93V367.795H186.036V381.827ZM190.407 371.934H199.599V377.688H190.407V371.934Z" fill="black" fill-opacity="0.3"/>
<path d="M233.139 313.379H225.387V327.411H243.27V313.379H233.139ZM238.909 323.272H229.717V317.47H238.909V323.272Z" fill="black" fill-opacity="0.3"/>
<path d="M255.966 313.379H251.88V327.411H269.764V313.379H255.966ZM265.362 323.272H256.17V317.47H265.362V323.272Z" fill="black" fill-opacity="0.3"/>
<path d="M233.139 331.512H225.387V345.543H243.27V331.512H233.139ZM238.909 341.414H229.717V335.612H238.909V341.414Z" fill="black" fill-opacity="0.3"/>
<path d="M255.966 331.512H251.88V345.543H269.764V331.512H255.966ZM265.362 341.414H256.17V335.612H265.362V341.414Z" fill="black" fill-opacity="0.3"/>
<path d="M233.139 349.652H225.387V363.684H243.27V349.652H233.139ZM238.909 359.506H229.717V353.753H238.909V359.506Z" fill="black" fill-opacity="0.3"/>
<path d="M255.966 349.652H251.88V363.684H269.764V349.652H255.966ZM265.362 359.545H256.17V353.791H265.362V359.545Z" fill="black" fill-opacity="0.3"/>
<path d="M225.387 381.827H243.27V367.795H225.387V381.827ZM229.799 371.934H238.991V377.688H229.799V371.934Z" fill="black" fill-opacity="0.3"/>
<path d="M255.966 367.795H251.88V381.827H269.764V367.795H255.966ZM265.362 377.688H256.17V371.934H265.362V377.688Z" fill="black" fill-opacity="0.3"/>
<path d="M412.414 367.949V378.606H427.07L422.74 367.949H412.414Z" fill="black" fill-opacity="0.3"/>
<path d="M394.368 378.606H407.891V367.949H397.882L394.368 378.606Z" fill="black" fill-opacity="0.3"/>
<path d="M755.481 371.064L753.754 366.925L753.397 366.074H752.937H748.566H745.42H744.144V377.959H745.42H748.566H758.361L756.747 374.091L755.481 371.064Z" fill="black" fill-opacity="0.3"/>
<path d="M731.704 366.074H728.079H727.343H725.781H723.85V377.959H725.781H727.343H728.079H740.335V374.091V371.064V366.074H736.423H731.704Z" fill="black" fill-opacity="0.3"/>
<path d="M715.189 366.074H713.728V366.925V371.064V374.091V377.959H719.56H720.704V366.074H719.56H715.189Z" fill="black" fill-opacity="0.3"/>
<path d="M1245.39 371.016L1243.28 366.867L1234.75 366.877L1234.76 378.607L1245.4 378.597L1247.7 378.588H1249.26L1247.7 375.522L1245.39 371.016Z" fill="black" fill-opacity="0.3"/>
</g>
<defs>
<linearGradient id="paint0_linear_41_1028" x1="849.313" y1="54.9414" x2="849.313" y2="407.016" gradientUnits="userSpaceOnUse">
<stop/>
<stop offset="1" stop-opacity="0"/>
</linearGradient>
<linearGradient id="paint1_linear_41_1028" x1="500.86" y1="164.129" x2="607.962" y2="249.576" gradientUnits="userSpaceOnUse">
<stop stop-color="#F3B319"/>
<stop offset="0.555213" stop-color="#D07F28"/>
<stop offset="1" stop-color="#B35634"/>
</linearGradient>
<clipPath id="clip0_41_1028">
<rect width="1532" height="406" fill="white"/>
</clipPath>
</defs>
</svg>
