<svg width="105" height="55" viewBox="0 0 105 55" fill="none" xmlns="http://www.w3.org/2000/svg">
<path d="M12.284 46.4438L6.47474 46.3084V46.3084C4.29538 46.3084 2.54371 44.5136 2.59677 42.3348L2.69056 38.4832C2.69794 38.1803 2.94566 37.9385 3.24872 37.9385V37.9385C3.56396 37.9385 3.81755 37.6977 3.80923 37.3826C3.69608 33.1 3.10663 5.48081 6.67857 4.00033C10.5514 2.39515 51.8276 2.96843 56.9234 4.00033C61.6915 4.96586 66.9949 3.52225 82.6852 20.3328C84.9408 22.7494 87.6947 24.6642 90.796 25.8088L97.523 28.2916C98.3117 28.5827 99.0799 28.9708 99.5202 29.6869C100.064 30.5719 100.739 32.1973 101.065 35.0603C101.284 36.9759 102.651 39.1138 102.48 41.0342V41.0342C102.29 43.1703 103.25 47.2961 94.7326 47.7586" stroke="#F3B319" stroke-width="5" stroke-miterlimit="10" stroke-linecap="round" stroke-linejoin="round"/>
<path d="M74.1473 47.5699L32.7688 46.7576" stroke="#F3B319" stroke-width="5" stroke-miterlimit="10" stroke-linecap="round" stroke-linejoin="round"/>
<path d="M84.8806 52.2323C82.1788 52.2323 79.9886 49.7683 79.9886 46.7288C79.9886 43.6893 82.1788 41.2253 84.8806 41.2253C87.5824 41.2253 89.7726 43.6893 89.7726 46.7288C89.7726 49.7683 87.5824 52.2323 84.8806 52.2323Z" stroke="#F3B319" stroke-width="5" stroke-miterlimit="10" stroke-linecap="round" stroke-linejoin="round"/>
<path d="M22.068 52.2323C19.3662 52.2323 17.176 49.7683 17.176 46.7288C17.176 43.6893 19.3662 41.2253 22.068 41.2253C24.7697 41.2253 26.96 43.6893 26.96 46.7288C26.96 49.7683 24.7697 52.2323 22.068 52.2323Z" stroke="#F3B319" stroke-width="5" stroke-miterlimit="10" stroke-linecap="round" stroke-linejoin="round"/>
<path d="M90.0822 32.3911C90.0822 32.3911 93.286 35.4342 95.9143 35.9089" stroke="#F3B319" stroke-width="5" stroke-miterlimit="10" stroke-linecap="round" stroke-linejoin="round"/>
<path d="M79.3451 26.8952C78.7336 26.9319 64.1595 26.7026 63.1404 23.9508C62.1212 21.1991 62.1212 12.0266 62.1212 12.0266" stroke="#F3B319" stroke-width="5" stroke-miterlimit="10" stroke-linecap="round" stroke-linejoin="round"/>
<path d="M54.5793 25.3796L19.0787 25.3796C18.7049 25.3796 18.3424 25.235 18.052 24.9703L14.5188 21.7497C14.1366 21.4013 13.9147 20.8776 13.9147 20.3243V11.2239" stroke="#F3B319" stroke-width="5" stroke-miterlimit="10" stroke-linecap="round" stroke-linejoin="round"/>
<path d="M11.2114 29.4062V35.6028C11.2114 37.1094 10.2568 38.4506 8.83326 38.944V38.944" stroke="#F3B319" stroke-width="5" stroke-miterlimit="10" stroke-linecap="round" stroke-linejoin="round"/>
</svg>
