<svg width="30" height="26" viewBox="0 0 30 26" fill="none" xmlns="http://www.w3.org/2000/svg">
<g id="&#240;&#159;&#166;&#134; icon &#34;mobile phone&#34;">
<path id="Vector" d="M21.5625 0H8.4375C6.89063 0 5.625 1.0954 5.625 2.43422V23.5308C5.625 24.8696 6.89063 25.965 8.4375 25.965H21.5625C23.1094 25.965 24.375 24.8696 24.375 23.5308V2.43422C24.375 1.0954 23.1094 0 21.5625 0ZM15 24.3422C13.9631 24.3422 13.125 23.6168 13.125 22.7194C13.125 21.822 13.9631 21.0966 15 21.0966C16.0369 21.0966 16.875 21.822 16.875 22.7194C16.875 23.6168 16.0369 24.3422 15 24.3422ZM22.5 19.4737H7.5V3.24562H22.5V19.4737Z" fill="#F0C661"/>
</g>
</svg>
